%TF.GenerationSoftware,KiCad,Pcbnew,(5.99.0-2043-g129c16cf7)*%
%TF.CreationDate,2020-07-21T11:43:29+02:00*%
%TF.ProjectId,plate_6x6,706c6174-655f-4367-9836-2e6b69636164,rev?*%
%TF.SameCoordinates,Original*%
%TF.FileFunction,Soldermask,Bot*%
%TF.FilePolarity,Negative*%
%FSLAX46Y46*%
G04 Gerber Fmt 4.6, Leading zero omitted, Abs format (unit mm)*
G04 Created by KiCad (PCBNEW (5.99.0-2043-g129c16cf7)) date 2020-07-21 11:43:29*
%MOMM*%
%LPD*%
G01*
G04 APERTURE LIST*
%ADD10C,1.600000*%
%ADD11R,1.800000X0.820000*%
%ADD12R,2.550000X2.500000*%
%ADD13C,3.000000*%
%ADD14C,4.000000*%
%ADD15C,2.000000*%
%ADD16C,1.701800*%
G04 APERTURE END LIST*
%TO.C,SW8*%
G36*
X220246966Y-146810022D02*
G01*
X219445744Y-146299587D01*
X220144234Y-145203178D01*
X220945456Y-145713613D01*
X220246966Y-146810022D01*
G37*
G36*
X222154380Y-143815982D02*
G01*
X221353158Y-143305547D01*
X222051648Y-142209138D01*
X222852870Y-142719573D01*
X222154380Y-143815982D01*
G37*
D10*
X230733600Y-148186600D03*
X231876600Y-145138600D03*
X231876600Y-142979600D03*
X232257600Y-137899600D03*
X219811600Y-143614600D03*
X231368600Y-132946600D03*
X218795600Y-132946600D03*
X234035600Y-132946600D03*
D11*
X223828600Y-146408600D03*
X223828600Y-144908600D03*
X228828600Y-146408600D03*
X228828600Y-144908600D03*
D12*
X219055600Y-138026600D03*
X232505600Y-135486600D03*
D13*
X222605600Y-138026600D03*
D14*
X226415600Y-140566600D03*
D13*
X228955600Y-135486600D03*
D15*
X221335600Y-140566600D03*
D16*
X220915600Y-140566600D03*
D15*
X231495600Y-140566600D03*
D16*
X231915600Y-140566600D03*
%TD*%
%TO.C,SW8*%
G36*
X201196966Y-146810022D02*
G01*
X200395744Y-146299587D01*
X201094234Y-145203178D01*
X201895456Y-145713613D01*
X201196966Y-146810022D01*
G37*
G36*
X203104380Y-143815982D02*
G01*
X202303158Y-143305547D01*
X203001648Y-142209138D01*
X203802870Y-142719573D01*
X203104380Y-143815982D01*
G37*
D10*
X211683600Y-148186600D03*
X212826600Y-145138600D03*
X212826600Y-142979600D03*
X213207600Y-137899600D03*
X200761600Y-143614600D03*
X212318600Y-132946600D03*
X199745600Y-132946600D03*
X214985600Y-132946600D03*
D11*
X204778600Y-146408600D03*
X204778600Y-144908600D03*
X209778600Y-146408600D03*
X209778600Y-144908600D03*
D12*
X200005600Y-138026600D03*
X213455600Y-135486600D03*
D13*
X203555600Y-138026600D03*
D14*
X207365600Y-140566600D03*
D13*
X209905600Y-135486600D03*
D15*
X202285600Y-140566600D03*
D16*
X201865600Y-140566600D03*
D15*
X212445600Y-140566600D03*
D16*
X212865600Y-140566600D03*
%TD*%
%TO.C,SW8*%
G36*
X182146966Y-146810022D02*
G01*
X181345744Y-146299587D01*
X182044234Y-145203178D01*
X182845456Y-145713613D01*
X182146966Y-146810022D01*
G37*
G36*
X184054380Y-143815982D02*
G01*
X183253158Y-143305547D01*
X183951648Y-142209138D01*
X184752870Y-142719573D01*
X184054380Y-143815982D01*
G37*
D10*
X192633600Y-148186600D03*
X193776600Y-145138600D03*
X193776600Y-142979600D03*
X194157600Y-137899600D03*
X181711600Y-143614600D03*
X193268600Y-132946600D03*
X180695600Y-132946600D03*
X195935600Y-132946600D03*
D11*
X185728600Y-146408600D03*
X185728600Y-144908600D03*
X190728600Y-146408600D03*
X190728600Y-144908600D03*
D12*
X180955600Y-138026600D03*
X194405600Y-135486600D03*
D13*
X184505600Y-138026600D03*
D14*
X188315600Y-140566600D03*
D13*
X190855600Y-135486600D03*
D15*
X183235600Y-140566600D03*
D16*
X182815600Y-140566600D03*
D15*
X193395600Y-140566600D03*
D16*
X193815600Y-140566600D03*
%TD*%
%TO.C,SW8*%
G36*
X163096966Y-146810022D02*
G01*
X162295744Y-146299587D01*
X162994234Y-145203178D01*
X163795456Y-145713613D01*
X163096966Y-146810022D01*
G37*
G36*
X165004380Y-143815982D02*
G01*
X164203158Y-143305547D01*
X164901648Y-142209138D01*
X165702870Y-142719573D01*
X165004380Y-143815982D01*
G37*
D10*
X173583600Y-148186600D03*
X174726600Y-145138600D03*
X174726600Y-142979600D03*
X175107600Y-137899600D03*
X162661600Y-143614600D03*
X174218600Y-132946600D03*
X161645600Y-132946600D03*
X176885600Y-132946600D03*
D11*
X166678600Y-146408600D03*
X166678600Y-144908600D03*
X171678600Y-146408600D03*
X171678600Y-144908600D03*
D12*
X161905600Y-138026600D03*
X175355600Y-135486600D03*
D13*
X165455600Y-138026600D03*
D14*
X169265600Y-140566600D03*
D13*
X171805600Y-135486600D03*
D15*
X164185600Y-140566600D03*
D16*
X163765600Y-140566600D03*
D15*
X174345600Y-140566600D03*
D16*
X174765600Y-140566600D03*
%TD*%
%TO.C,SW8*%
G36*
X144046966Y-146810022D02*
G01*
X143245744Y-146299587D01*
X143944234Y-145203178D01*
X144745456Y-145713613D01*
X144046966Y-146810022D01*
G37*
G36*
X145954380Y-143815982D02*
G01*
X145153158Y-143305547D01*
X145851648Y-142209138D01*
X146652870Y-142719573D01*
X145954380Y-143815982D01*
G37*
D10*
X154533600Y-148186600D03*
X155676600Y-145138600D03*
X155676600Y-142979600D03*
X156057600Y-137899600D03*
X143611600Y-143614600D03*
X155168600Y-132946600D03*
X142595600Y-132946600D03*
X157835600Y-132946600D03*
D11*
X147628600Y-146408600D03*
X147628600Y-144908600D03*
X152628600Y-146408600D03*
X152628600Y-144908600D03*
D12*
X142855600Y-138026600D03*
X156305600Y-135486600D03*
D13*
X146405600Y-138026600D03*
D14*
X150215600Y-140566600D03*
D13*
X152755600Y-135486600D03*
D15*
X145135600Y-140566600D03*
D16*
X144715600Y-140566600D03*
D15*
X155295600Y-140566600D03*
D16*
X155715600Y-140566600D03*
%TD*%
%TO.C,SW8*%
G36*
X124996966Y-146810022D02*
G01*
X124195744Y-146299587D01*
X124894234Y-145203178D01*
X125695456Y-145713613D01*
X124996966Y-146810022D01*
G37*
G36*
X126904380Y-143815982D02*
G01*
X126103158Y-143305547D01*
X126801648Y-142209138D01*
X127602870Y-142719573D01*
X126904380Y-143815982D01*
G37*
D10*
X135483600Y-148186600D03*
X136626600Y-145138600D03*
X136626600Y-142979600D03*
X137007600Y-137899600D03*
X124561600Y-143614600D03*
X136118600Y-132946600D03*
X123545600Y-132946600D03*
X138785600Y-132946600D03*
D11*
X128578600Y-146408600D03*
X128578600Y-144908600D03*
X133578600Y-146408600D03*
X133578600Y-144908600D03*
D12*
X123805600Y-138026600D03*
X137255600Y-135486600D03*
D13*
X127355600Y-138026600D03*
D14*
X131165600Y-140566600D03*
D13*
X133705600Y-135486600D03*
D15*
X126085600Y-140566600D03*
D16*
X125665600Y-140566600D03*
D15*
X136245600Y-140566600D03*
D16*
X136665600Y-140566600D03*
%TD*%
%TO.C,SW8*%
G36*
X220246966Y-127760022D02*
G01*
X219445744Y-127249587D01*
X220144234Y-126153178D01*
X220945456Y-126663613D01*
X220246966Y-127760022D01*
G37*
G36*
X222154380Y-124765982D02*
G01*
X221353158Y-124255547D01*
X222051648Y-123159138D01*
X222852870Y-123669573D01*
X222154380Y-124765982D01*
G37*
D10*
X230733600Y-129136600D03*
X231876600Y-126088600D03*
X231876600Y-123929600D03*
X232257600Y-118849600D03*
X219811600Y-124564600D03*
X231368600Y-113896600D03*
X218795600Y-113896600D03*
X234035600Y-113896600D03*
D11*
X223828600Y-127358600D03*
X223828600Y-125858600D03*
X228828600Y-127358600D03*
X228828600Y-125858600D03*
D12*
X219055600Y-118976600D03*
X232505600Y-116436600D03*
D13*
X222605600Y-118976600D03*
D14*
X226415600Y-121516600D03*
D13*
X228955600Y-116436600D03*
D15*
X221335600Y-121516600D03*
D16*
X220915600Y-121516600D03*
D15*
X231495600Y-121516600D03*
D16*
X231915600Y-121516600D03*
%TD*%
%TO.C,SW8*%
G36*
X201196966Y-127760022D02*
G01*
X200395744Y-127249587D01*
X201094234Y-126153178D01*
X201895456Y-126663613D01*
X201196966Y-127760022D01*
G37*
G36*
X203104380Y-124765982D02*
G01*
X202303158Y-124255547D01*
X203001648Y-123159138D01*
X203802870Y-123669573D01*
X203104380Y-124765982D01*
G37*
D10*
X211683600Y-129136600D03*
X212826600Y-126088600D03*
X212826600Y-123929600D03*
X213207600Y-118849600D03*
X200761600Y-124564600D03*
X212318600Y-113896600D03*
X199745600Y-113896600D03*
X214985600Y-113896600D03*
D11*
X204778600Y-127358600D03*
X204778600Y-125858600D03*
X209778600Y-127358600D03*
X209778600Y-125858600D03*
D12*
X200005600Y-118976600D03*
X213455600Y-116436600D03*
D13*
X203555600Y-118976600D03*
D14*
X207365600Y-121516600D03*
D13*
X209905600Y-116436600D03*
D15*
X202285600Y-121516600D03*
D16*
X201865600Y-121516600D03*
D15*
X212445600Y-121516600D03*
D16*
X212865600Y-121516600D03*
%TD*%
%TO.C,SW8*%
G36*
X182146966Y-127760022D02*
G01*
X181345744Y-127249587D01*
X182044234Y-126153178D01*
X182845456Y-126663613D01*
X182146966Y-127760022D01*
G37*
G36*
X184054380Y-124765982D02*
G01*
X183253158Y-124255547D01*
X183951648Y-123159138D01*
X184752870Y-123669573D01*
X184054380Y-124765982D01*
G37*
D10*
X192633600Y-129136600D03*
X193776600Y-126088600D03*
X193776600Y-123929600D03*
X194157600Y-118849600D03*
X181711600Y-124564600D03*
X193268600Y-113896600D03*
X180695600Y-113896600D03*
X195935600Y-113896600D03*
D11*
X185728600Y-127358600D03*
X185728600Y-125858600D03*
X190728600Y-127358600D03*
X190728600Y-125858600D03*
D12*
X180955600Y-118976600D03*
X194405600Y-116436600D03*
D13*
X184505600Y-118976600D03*
D14*
X188315600Y-121516600D03*
D13*
X190855600Y-116436600D03*
D15*
X183235600Y-121516600D03*
D16*
X182815600Y-121516600D03*
D15*
X193395600Y-121516600D03*
D16*
X193815600Y-121516600D03*
%TD*%
%TO.C,SW8*%
G36*
X163096966Y-127760022D02*
G01*
X162295744Y-127249587D01*
X162994234Y-126153178D01*
X163795456Y-126663613D01*
X163096966Y-127760022D01*
G37*
G36*
X165004380Y-124765982D02*
G01*
X164203158Y-124255547D01*
X164901648Y-123159138D01*
X165702870Y-123669573D01*
X165004380Y-124765982D01*
G37*
D10*
X173583600Y-129136600D03*
X174726600Y-126088600D03*
X174726600Y-123929600D03*
X175107600Y-118849600D03*
X162661600Y-124564600D03*
X174218600Y-113896600D03*
X161645600Y-113896600D03*
X176885600Y-113896600D03*
D11*
X166678600Y-127358600D03*
X166678600Y-125858600D03*
X171678600Y-127358600D03*
X171678600Y-125858600D03*
D12*
X161905600Y-118976600D03*
X175355600Y-116436600D03*
D13*
X165455600Y-118976600D03*
D14*
X169265600Y-121516600D03*
D13*
X171805600Y-116436600D03*
D15*
X164185600Y-121516600D03*
D16*
X163765600Y-121516600D03*
D15*
X174345600Y-121516600D03*
D16*
X174765600Y-121516600D03*
%TD*%
%TO.C,SW8*%
G36*
X144046966Y-127760022D02*
G01*
X143245744Y-127249587D01*
X143944234Y-126153178D01*
X144745456Y-126663613D01*
X144046966Y-127760022D01*
G37*
G36*
X145954380Y-124765982D02*
G01*
X145153158Y-124255547D01*
X145851648Y-123159138D01*
X146652870Y-123669573D01*
X145954380Y-124765982D01*
G37*
D10*
X154533600Y-129136600D03*
X155676600Y-126088600D03*
X155676600Y-123929600D03*
X156057600Y-118849600D03*
X143611600Y-124564600D03*
X155168600Y-113896600D03*
X142595600Y-113896600D03*
X157835600Y-113896600D03*
D11*
X147628600Y-127358600D03*
X147628600Y-125858600D03*
X152628600Y-127358600D03*
X152628600Y-125858600D03*
D12*
X142855600Y-118976600D03*
X156305600Y-116436600D03*
D13*
X146405600Y-118976600D03*
D14*
X150215600Y-121516600D03*
D13*
X152755600Y-116436600D03*
D15*
X145135600Y-121516600D03*
D16*
X144715600Y-121516600D03*
D15*
X155295600Y-121516600D03*
D16*
X155715600Y-121516600D03*
%TD*%
%TO.C,SW8*%
G36*
X124996966Y-127760022D02*
G01*
X124195744Y-127249587D01*
X124894234Y-126153178D01*
X125695456Y-126663613D01*
X124996966Y-127760022D01*
G37*
G36*
X126904380Y-124765982D02*
G01*
X126103158Y-124255547D01*
X126801648Y-123159138D01*
X127602870Y-123669573D01*
X126904380Y-124765982D01*
G37*
D10*
X135483600Y-129136600D03*
X136626600Y-126088600D03*
X136626600Y-123929600D03*
X137007600Y-118849600D03*
X124561600Y-124564600D03*
X136118600Y-113896600D03*
X123545600Y-113896600D03*
X138785600Y-113896600D03*
D11*
X128578600Y-127358600D03*
X128578600Y-125858600D03*
X133578600Y-127358600D03*
X133578600Y-125858600D03*
D12*
X123805600Y-118976600D03*
X137255600Y-116436600D03*
D13*
X127355600Y-118976600D03*
D14*
X131165600Y-121516600D03*
D13*
X133705600Y-116436600D03*
D15*
X126085600Y-121516600D03*
D16*
X125665600Y-121516600D03*
D15*
X136245600Y-121516600D03*
D16*
X136665600Y-121516600D03*
%TD*%
%TO.C,SW8*%
G36*
X220246966Y-108710022D02*
G01*
X219445744Y-108199587D01*
X220144234Y-107103178D01*
X220945456Y-107613613D01*
X220246966Y-108710022D01*
G37*
G36*
X222154380Y-105715982D02*
G01*
X221353158Y-105205547D01*
X222051648Y-104109138D01*
X222852870Y-104619573D01*
X222154380Y-105715982D01*
G37*
D10*
X230733600Y-110086600D03*
X231876600Y-107038600D03*
X231876600Y-104879600D03*
X232257600Y-99799600D03*
X219811600Y-105514600D03*
X231368600Y-94846600D03*
X218795600Y-94846600D03*
X234035600Y-94846600D03*
D11*
X223828600Y-108308600D03*
X223828600Y-106808600D03*
X228828600Y-108308600D03*
X228828600Y-106808600D03*
D12*
X219055600Y-99926600D03*
X232505600Y-97386600D03*
D13*
X222605600Y-99926600D03*
D14*
X226415600Y-102466600D03*
D13*
X228955600Y-97386600D03*
D15*
X221335600Y-102466600D03*
D16*
X220915600Y-102466600D03*
D15*
X231495600Y-102466600D03*
D16*
X231915600Y-102466600D03*
%TD*%
%TO.C,SW8*%
G36*
X201196966Y-108710022D02*
G01*
X200395744Y-108199587D01*
X201094234Y-107103178D01*
X201895456Y-107613613D01*
X201196966Y-108710022D01*
G37*
G36*
X203104380Y-105715982D02*
G01*
X202303158Y-105205547D01*
X203001648Y-104109138D01*
X203802870Y-104619573D01*
X203104380Y-105715982D01*
G37*
D10*
X211683600Y-110086600D03*
X212826600Y-107038600D03*
X212826600Y-104879600D03*
X213207600Y-99799600D03*
X200761600Y-105514600D03*
X212318600Y-94846600D03*
X199745600Y-94846600D03*
X214985600Y-94846600D03*
D11*
X204778600Y-108308600D03*
X204778600Y-106808600D03*
X209778600Y-108308600D03*
X209778600Y-106808600D03*
D12*
X200005600Y-99926600D03*
X213455600Y-97386600D03*
D13*
X203555600Y-99926600D03*
D14*
X207365600Y-102466600D03*
D13*
X209905600Y-97386600D03*
D15*
X202285600Y-102466600D03*
D16*
X201865600Y-102466600D03*
D15*
X212445600Y-102466600D03*
D16*
X212865600Y-102466600D03*
%TD*%
%TO.C,SW8*%
G36*
X182146966Y-108710022D02*
G01*
X181345744Y-108199587D01*
X182044234Y-107103178D01*
X182845456Y-107613613D01*
X182146966Y-108710022D01*
G37*
G36*
X184054380Y-105715982D02*
G01*
X183253158Y-105205547D01*
X183951648Y-104109138D01*
X184752870Y-104619573D01*
X184054380Y-105715982D01*
G37*
D10*
X192633600Y-110086600D03*
X193776600Y-107038600D03*
X193776600Y-104879600D03*
X194157600Y-99799600D03*
X181711600Y-105514600D03*
X193268600Y-94846600D03*
X180695600Y-94846600D03*
X195935600Y-94846600D03*
D11*
X185728600Y-108308600D03*
X185728600Y-106808600D03*
X190728600Y-108308600D03*
X190728600Y-106808600D03*
D12*
X180955600Y-99926600D03*
X194405600Y-97386600D03*
D13*
X184505600Y-99926600D03*
D14*
X188315600Y-102466600D03*
D13*
X190855600Y-97386600D03*
D15*
X183235600Y-102466600D03*
D16*
X182815600Y-102466600D03*
D15*
X193395600Y-102466600D03*
D16*
X193815600Y-102466600D03*
%TD*%
%TO.C,SW8*%
G36*
X163096966Y-108710022D02*
G01*
X162295744Y-108199587D01*
X162994234Y-107103178D01*
X163795456Y-107613613D01*
X163096966Y-108710022D01*
G37*
G36*
X165004380Y-105715982D02*
G01*
X164203158Y-105205547D01*
X164901648Y-104109138D01*
X165702870Y-104619573D01*
X165004380Y-105715982D01*
G37*
D10*
X173583600Y-110086600D03*
X174726600Y-107038600D03*
X174726600Y-104879600D03*
X175107600Y-99799600D03*
X162661600Y-105514600D03*
X174218600Y-94846600D03*
X161645600Y-94846600D03*
X176885600Y-94846600D03*
D11*
X166678600Y-108308600D03*
X166678600Y-106808600D03*
X171678600Y-108308600D03*
X171678600Y-106808600D03*
D12*
X161905600Y-99926600D03*
X175355600Y-97386600D03*
D13*
X165455600Y-99926600D03*
D14*
X169265600Y-102466600D03*
D13*
X171805600Y-97386600D03*
D15*
X164185600Y-102466600D03*
D16*
X163765600Y-102466600D03*
D15*
X174345600Y-102466600D03*
D16*
X174765600Y-102466600D03*
%TD*%
%TO.C,SW8*%
G36*
X144046966Y-108710022D02*
G01*
X143245744Y-108199587D01*
X143944234Y-107103178D01*
X144745456Y-107613613D01*
X144046966Y-108710022D01*
G37*
G36*
X145954380Y-105715982D02*
G01*
X145153158Y-105205547D01*
X145851648Y-104109138D01*
X146652870Y-104619573D01*
X145954380Y-105715982D01*
G37*
D10*
X154533600Y-110086600D03*
X155676600Y-107038600D03*
X155676600Y-104879600D03*
X156057600Y-99799600D03*
X143611600Y-105514600D03*
X155168600Y-94846600D03*
X142595600Y-94846600D03*
X157835600Y-94846600D03*
D11*
X147628600Y-108308600D03*
X147628600Y-106808600D03*
X152628600Y-108308600D03*
X152628600Y-106808600D03*
D12*
X142855600Y-99926600D03*
X156305600Y-97386600D03*
D13*
X146405600Y-99926600D03*
D14*
X150215600Y-102466600D03*
D13*
X152755600Y-97386600D03*
D15*
X145135600Y-102466600D03*
D16*
X144715600Y-102466600D03*
D15*
X155295600Y-102466600D03*
D16*
X155715600Y-102466600D03*
%TD*%
%TO.C,SW8*%
G36*
X124996966Y-108710022D02*
G01*
X124195744Y-108199587D01*
X124894234Y-107103178D01*
X125695456Y-107613613D01*
X124996966Y-108710022D01*
G37*
G36*
X126904380Y-105715982D02*
G01*
X126103158Y-105205547D01*
X126801648Y-104109138D01*
X127602870Y-104619573D01*
X126904380Y-105715982D01*
G37*
D10*
X135483600Y-110086600D03*
X136626600Y-107038600D03*
X136626600Y-104879600D03*
X137007600Y-99799600D03*
X124561600Y-105514600D03*
X136118600Y-94846600D03*
X123545600Y-94846600D03*
X138785600Y-94846600D03*
D11*
X128578600Y-108308600D03*
X128578600Y-106808600D03*
X133578600Y-108308600D03*
X133578600Y-106808600D03*
D12*
X123805600Y-99926600D03*
X137255600Y-97386600D03*
D13*
X127355600Y-99926600D03*
D14*
X131165600Y-102466600D03*
D13*
X133705600Y-97386600D03*
D15*
X126085600Y-102466600D03*
D16*
X125665600Y-102466600D03*
D15*
X136245600Y-102466600D03*
D16*
X136665600Y-102466600D03*
%TD*%
%TO.C,SW8*%
G36*
X220246966Y-89660022D02*
G01*
X219445744Y-89149587D01*
X220144234Y-88053178D01*
X220945456Y-88563613D01*
X220246966Y-89660022D01*
G37*
G36*
X222154380Y-86665982D02*
G01*
X221353158Y-86155547D01*
X222051648Y-85059138D01*
X222852870Y-85569573D01*
X222154380Y-86665982D01*
G37*
D10*
X230733600Y-91036600D03*
X231876600Y-87988600D03*
X231876600Y-85829600D03*
X232257600Y-80749600D03*
X219811600Y-86464600D03*
X231368600Y-75796600D03*
X218795600Y-75796600D03*
X234035600Y-75796600D03*
D11*
X223828600Y-89258600D03*
X223828600Y-87758600D03*
X228828600Y-89258600D03*
X228828600Y-87758600D03*
D12*
X219055600Y-80876600D03*
X232505600Y-78336600D03*
D13*
X222605600Y-80876600D03*
D14*
X226415600Y-83416600D03*
D13*
X228955600Y-78336600D03*
D15*
X221335600Y-83416600D03*
D16*
X220915600Y-83416600D03*
D15*
X231495600Y-83416600D03*
D16*
X231915600Y-83416600D03*
%TD*%
%TO.C,SW8*%
G36*
X201196966Y-89660022D02*
G01*
X200395744Y-89149587D01*
X201094234Y-88053178D01*
X201895456Y-88563613D01*
X201196966Y-89660022D01*
G37*
G36*
X203104380Y-86665982D02*
G01*
X202303158Y-86155547D01*
X203001648Y-85059138D01*
X203802870Y-85569573D01*
X203104380Y-86665982D01*
G37*
D10*
X211683600Y-91036600D03*
X212826600Y-87988600D03*
X212826600Y-85829600D03*
X213207600Y-80749600D03*
X200761600Y-86464600D03*
X212318600Y-75796600D03*
X199745600Y-75796600D03*
X214985600Y-75796600D03*
D11*
X204778600Y-89258600D03*
X204778600Y-87758600D03*
X209778600Y-89258600D03*
X209778600Y-87758600D03*
D12*
X200005600Y-80876600D03*
X213455600Y-78336600D03*
D13*
X203555600Y-80876600D03*
D14*
X207365600Y-83416600D03*
D13*
X209905600Y-78336600D03*
D15*
X202285600Y-83416600D03*
D16*
X201865600Y-83416600D03*
D15*
X212445600Y-83416600D03*
D16*
X212865600Y-83416600D03*
%TD*%
%TO.C,SW8*%
G36*
X182146966Y-89660022D02*
G01*
X181345744Y-89149587D01*
X182044234Y-88053178D01*
X182845456Y-88563613D01*
X182146966Y-89660022D01*
G37*
G36*
X184054380Y-86665982D02*
G01*
X183253158Y-86155547D01*
X183951648Y-85059138D01*
X184752870Y-85569573D01*
X184054380Y-86665982D01*
G37*
D10*
X192633600Y-91036600D03*
X193776600Y-87988600D03*
X193776600Y-85829600D03*
X194157600Y-80749600D03*
X181711600Y-86464600D03*
X193268600Y-75796600D03*
X180695600Y-75796600D03*
X195935600Y-75796600D03*
D11*
X185728600Y-89258600D03*
X185728600Y-87758600D03*
X190728600Y-89258600D03*
X190728600Y-87758600D03*
D12*
X180955600Y-80876600D03*
X194405600Y-78336600D03*
D13*
X184505600Y-80876600D03*
D14*
X188315600Y-83416600D03*
D13*
X190855600Y-78336600D03*
D15*
X183235600Y-83416600D03*
D16*
X182815600Y-83416600D03*
D15*
X193395600Y-83416600D03*
D16*
X193815600Y-83416600D03*
%TD*%
%TO.C,SW8*%
G36*
X163096966Y-89660022D02*
G01*
X162295744Y-89149587D01*
X162994234Y-88053178D01*
X163795456Y-88563613D01*
X163096966Y-89660022D01*
G37*
G36*
X165004380Y-86665982D02*
G01*
X164203158Y-86155547D01*
X164901648Y-85059138D01*
X165702870Y-85569573D01*
X165004380Y-86665982D01*
G37*
D10*
X173583600Y-91036600D03*
X174726600Y-87988600D03*
X174726600Y-85829600D03*
X175107600Y-80749600D03*
X162661600Y-86464600D03*
X174218600Y-75796600D03*
X161645600Y-75796600D03*
X176885600Y-75796600D03*
D11*
X166678600Y-89258600D03*
X166678600Y-87758600D03*
X171678600Y-89258600D03*
X171678600Y-87758600D03*
D12*
X161905600Y-80876600D03*
X175355600Y-78336600D03*
D13*
X165455600Y-80876600D03*
D14*
X169265600Y-83416600D03*
D13*
X171805600Y-78336600D03*
D15*
X164185600Y-83416600D03*
D16*
X163765600Y-83416600D03*
D15*
X174345600Y-83416600D03*
D16*
X174765600Y-83416600D03*
%TD*%
%TO.C,SW8*%
G36*
X144046966Y-89660022D02*
G01*
X143245744Y-89149587D01*
X143944234Y-88053178D01*
X144745456Y-88563613D01*
X144046966Y-89660022D01*
G37*
G36*
X145954380Y-86665982D02*
G01*
X145153158Y-86155547D01*
X145851648Y-85059138D01*
X146652870Y-85569573D01*
X145954380Y-86665982D01*
G37*
D10*
X154533600Y-91036600D03*
X155676600Y-87988600D03*
X155676600Y-85829600D03*
X156057600Y-80749600D03*
X143611600Y-86464600D03*
X155168600Y-75796600D03*
X142595600Y-75796600D03*
X157835600Y-75796600D03*
D11*
X147628600Y-89258600D03*
X147628600Y-87758600D03*
X152628600Y-89258600D03*
X152628600Y-87758600D03*
D12*
X142855600Y-80876600D03*
X156305600Y-78336600D03*
D13*
X146405600Y-80876600D03*
D14*
X150215600Y-83416600D03*
D13*
X152755600Y-78336600D03*
D15*
X145135600Y-83416600D03*
D16*
X144715600Y-83416600D03*
D15*
X155295600Y-83416600D03*
D16*
X155715600Y-83416600D03*
%TD*%
%TO.C,SW8*%
G36*
X124996966Y-89660022D02*
G01*
X124195744Y-89149587D01*
X124894234Y-88053178D01*
X125695456Y-88563613D01*
X124996966Y-89660022D01*
G37*
G36*
X126904380Y-86665982D02*
G01*
X126103158Y-86155547D01*
X126801648Y-85059138D01*
X127602870Y-85569573D01*
X126904380Y-86665982D01*
G37*
D10*
X135483600Y-91036600D03*
X136626600Y-87988600D03*
X136626600Y-85829600D03*
X137007600Y-80749600D03*
X124561600Y-86464600D03*
X136118600Y-75796600D03*
X123545600Y-75796600D03*
X138785600Y-75796600D03*
D11*
X128578600Y-89258600D03*
X128578600Y-87758600D03*
X133578600Y-89258600D03*
X133578600Y-87758600D03*
D12*
X123805600Y-80876600D03*
X137255600Y-78336600D03*
D13*
X127355600Y-80876600D03*
D14*
X131165600Y-83416600D03*
D13*
X133705600Y-78336600D03*
D15*
X126085600Y-83416600D03*
D16*
X125665600Y-83416600D03*
D15*
X136245600Y-83416600D03*
D16*
X136665600Y-83416600D03*
%TD*%
%TO.C,SW8*%
G36*
X220246966Y-70610022D02*
G01*
X219445744Y-70099587D01*
X220144234Y-69003178D01*
X220945456Y-69513613D01*
X220246966Y-70610022D01*
G37*
G36*
X222154380Y-67615982D02*
G01*
X221353158Y-67105547D01*
X222051648Y-66009138D01*
X222852870Y-66519573D01*
X222154380Y-67615982D01*
G37*
D10*
X230733600Y-71986600D03*
X231876600Y-68938600D03*
X231876600Y-66779600D03*
X232257600Y-61699600D03*
X219811600Y-67414600D03*
X231368600Y-56746600D03*
X218795600Y-56746600D03*
X234035600Y-56746600D03*
D11*
X223828600Y-70208600D03*
X223828600Y-68708600D03*
X228828600Y-70208600D03*
X228828600Y-68708600D03*
D12*
X219055600Y-61826600D03*
X232505600Y-59286600D03*
D13*
X222605600Y-61826600D03*
D14*
X226415600Y-64366600D03*
D13*
X228955600Y-59286600D03*
D15*
X221335600Y-64366600D03*
D16*
X220915600Y-64366600D03*
D15*
X231495600Y-64366600D03*
D16*
X231915600Y-64366600D03*
%TD*%
%TO.C,SW8*%
G36*
X201196966Y-70610022D02*
G01*
X200395744Y-70099587D01*
X201094234Y-69003178D01*
X201895456Y-69513613D01*
X201196966Y-70610022D01*
G37*
G36*
X203104380Y-67615982D02*
G01*
X202303158Y-67105547D01*
X203001648Y-66009138D01*
X203802870Y-66519573D01*
X203104380Y-67615982D01*
G37*
D10*
X211683600Y-71986600D03*
X212826600Y-68938600D03*
X212826600Y-66779600D03*
X213207600Y-61699600D03*
X200761600Y-67414600D03*
X212318600Y-56746600D03*
X199745600Y-56746600D03*
X214985600Y-56746600D03*
D11*
X204778600Y-70208600D03*
X204778600Y-68708600D03*
X209778600Y-70208600D03*
X209778600Y-68708600D03*
D12*
X200005600Y-61826600D03*
X213455600Y-59286600D03*
D13*
X203555600Y-61826600D03*
D14*
X207365600Y-64366600D03*
D13*
X209905600Y-59286600D03*
D15*
X202285600Y-64366600D03*
D16*
X201865600Y-64366600D03*
D15*
X212445600Y-64366600D03*
D16*
X212865600Y-64366600D03*
%TD*%
%TO.C,SW8*%
G36*
X182146966Y-70610022D02*
G01*
X181345744Y-70099587D01*
X182044234Y-69003178D01*
X182845456Y-69513613D01*
X182146966Y-70610022D01*
G37*
G36*
X184054380Y-67615982D02*
G01*
X183253158Y-67105547D01*
X183951648Y-66009138D01*
X184752870Y-66519573D01*
X184054380Y-67615982D01*
G37*
D10*
X192633600Y-71986600D03*
X193776600Y-68938600D03*
X193776600Y-66779600D03*
X194157600Y-61699600D03*
X181711600Y-67414600D03*
X193268600Y-56746600D03*
X180695600Y-56746600D03*
X195935600Y-56746600D03*
D11*
X185728600Y-70208600D03*
X185728600Y-68708600D03*
X190728600Y-70208600D03*
X190728600Y-68708600D03*
D12*
X180955600Y-61826600D03*
X194405600Y-59286600D03*
D13*
X184505600Y-61826600D03*
D14*
X188315600Y-64366600D03*
D13*
X190855600Y-59286600D03*
D15*
X183235600Y-64366600D03*
D16*
X182815600Y-64366600D03*
D15*
X193395600Y-64366600D03*
D16*
X193815600Y-64366600D03*
%TD*%
%TO.C,SW8*%
G36*
X163096966Y-70610022D02*
G01*
X162295744Y-70099587D01*
X162994234Y-69003178D01*
X163795456Y-69513613D01*
X163096966Y-70610022D01*
G37*
G36*
X165004380Y-67615982D02*
G01*
X164203158Y-67105547D01*
X164901648Y-66009138D01*
X165702870Y-66519573D01*
X165004380Y-67615982D01*
G37*
D10*
X173583600Y-71986600D03*
X174726600Y-68938600D03*
X174726600Y-66779600D03*
X175107600Y-61699600D03*
X162661600Y-67414600D03*
X174218600Y-56746600D03*
X161645600Y-56746600D03*
X176885600Y-56746600D03*
D11*
X166678600Y-70208600D03*
X166678600Y-68708600D03*
X171678600Y-70208600D03*
X171678600Y-68708600D03*
D12*
X161905600Y-61826600D03*
X175355600Y-59286600D03*
D13*
X165455600Y-61826600D03*
D14*
X169265600Y-64366600D03*
D13*
X171805600Y-59286600D03*
D15*
X164185600Y-64366600D03*
D16*
X163765600Y-64366600D03*
D15*
X174345600Y-64366600D03*
D16*
X174765600Y-64366600D03*
%TD*%
%TO.C,SW8*%
G36*
X144046966Y-70610022D02*
G01*
X143245744Y-70099587D01*
X143944234Y-69003178D01*
X144745456Y-69513613D01*
X144046966Y-70610022D01*
G37*
G36*
X145954380Y-67615982D02*
G01*
X145153158Y-67105547D01*
X145851648Y-66009138D01*
X146652870Y-66519573D01*
X145954380Y-67615982D01*
G37*
D10*
X154533600Y-71986600D03*
X155676600Y-68938600D03*
X155676600Y-66779600D03*
X156057600Y-61699600D03*
X143611600Y-67414600D03*
X155168600Y-56746600D03*
X142595600Y-56746600D03*
X157835600Y-56746600D03*
D11*
X147628600Y-70208600D03*
X147628600Y-68708600D03*
X152628600Y-70208600D03*
X152628600Y-68708600D03*
D12*
X142855600Y-61826600D03*
X156305600Y-59286600D03*
D13*
X146405600Y-61826600D03*
D14*
X150215600Y-64366600D03*
D13*
X152755600Y-59286600D03*
D15*
X145135600Y-64366600D03*
D16*
X144715600Y-64366600D03*
D15*
X155295600Y-64366600D03*
D16*
X155715600Y-64366600D03*
%TD*%
%TO.C,SW8*%
G36*
X124996966Y-70610022D02*
G01*
X124195744Y-70099587D01*
X124894234Y-69003178D01*
X125695456Y-69513613D01*
X124996966Y-70610022D01*
G37*
G36*
X126904380Y-67615982D02*
G01*
X126103158Y-67105547D01*
X126801648Y-66009138D01*
X127602870Y-66519573D01*
X126904380Y-67615982D01*
G37*
D10*
X135483600Y-71986600D03*
X136626600Y-68938600D03*
X136626600Y-66779600D03*
X137007600Y-61699600D03*
X124561600Y-67414600D03*
X136118600Y-56746600D03*
X123545600Y-56746600D03*
X138785600Y-56746600D03*
D11*
X128578600Y-70208600D03*
X128578600Y-68708600D03*
X133578600Y-70208600D03*
X133578600Y-68708600D03*
D12*
X123805600Y-61826600D03*
X137255600Y-59286600D03*
D13*
X127355600Y-61826600D03*
D14*
X131165600Y-64366600D03*
D13*
X133705600Y-59286600D03*
D15*
X126085600Y-64366600D03*
D16*
X125665600Y-64366600D03*
D15*
X136245600Y-64366600D03*
D16*
X136665600Y-64366600D03*
%TD*%
%TO.C,SW8*%
G36*
X220246966Y-51560022D02*
G01*
X219445744Y-51049587D01*
X220144234Y-49953178D01*
X220945456Y-50463613D01*
X220246966Y-51560022D01*
G37*
G36*
X222154380Y-48565982D02*
G01*
X221353158Y-48055547D01*
X222051648Y-46959138D01*
X222852870Y-47469573D01*
X222154380Y-48565982D01*
G37*
D10*
X230733600Y-52936600D03*
X231876600Y-49888600D03*
X231876600Y-47729600D03*
X232257600Y-42649600D03*
X219811600Y-48364600D03*
X231368600Y-37696600D03*
X218795600Y-37696600D03*
X234035600Y-37696600D03*
D11*
X223828600Y-51158600D03*
X223828600Y-49658600D03*
X228828600Y-51158600D03*
X228828600Y-49658600D03*
D12*
X219055600Y-42776600D03*
X232505600Y-40236600D03*
D13*
X222605600Y-42776600D03*
D14*
X226415600Y-45316600D03*
D13*
X228955600Y-40236600D03*
D15*
X221335600Y-45316600D03*
D16*
X220915600Y-45316600D03*
D15*
X231495600Y-45316600D03*
D16*
X231915600Y-45316600D03*
%TD*%
%TO.C,SW8*%
G36*
X201196966Y-51560022D02*
G01*
X200395744Y-51049587D01*
X201094234Y-49953178D01*
X201895456Y-50463613D01*
X201196966Y-51560022D01*
G37*
G36*
X203104380Y-48565982D02*
G01*
X202303158Y-48055547D01*
X203001648Y-46959138D01*
X203802870Y-47469573D01*
X203104380Y-48565982D01*
G37*
D10*
X211683600Y-52936600D03*
X212826600Y-49888600D03*
X212826600Y-47729600D03*
X213207600Y-42649600D03*
X200761600Y-48364600D03*
X212318600Y-37696600D03*
X199745600Y-37696600D03*
X214985600Y-37696600D03*
D11*
X204778600Y-51158600D03*
X204778600Y-49658600D03*
X209778600Y-51158600D03*
X209778600Y-49658600D03*
D12*
X200005600Y-42776600D03*
X213455600Y-40236600D03*
D13*
X203555600Y-42776600D03*
D14*
X207365600Y-45316600D03*
D13*
X209905600Y-40236600D03*
D15*
X202285600Y-45316600D03*
D16*
X201865600Y-45316600D03*
D15*
X212445600Y-45316600D03*
D16*
X212865600Y-45316600D03*
%TD*%
%TO.C,SW8*%
G36*
X182146966Y-51560022D02*
G01*
X181345744Y-51049587D01*
X182044234Y-49953178D01*
X182845456Y-50463613D01*
X182146966Y-51560022D01*
G37*
G36*
X184054380Y-48565982D02*
G01*
X183253158Y-48055547D01*
X183951648Y-46959138D01*
X184752870Y-47469573D01*
X184054380Y-48565982D01*
G37*
D10*
X192633600Y-52936600D03*
X193776600Y-49888600D03*
X193776600Y-47729600D03*
X194157600Y-42649600D03*
X181711600Y-48364600D03*
X193268600Y-37696600D03*
X180695600Y-37696600D03*
X195935600Y-37696600D03*
D11*
X185728600Y-51158600D03*
X185728600Y-49658600D03*
X190728600Y-51158600D03*
X190728600Y-49658600D03*
D12*
X180955600Y-42776600D03*
X194405600Y-40236600D03*
D13*
X184505600Y-42776600D03*
D14*
X188315600Y-45316600D03*
D13*
X190855600Y-40236600D03*
D15*
X183235600Y-45316600D03*
D16*
X182815600Y-45316600D03*
D15*
X193395600Y-45316600D03*
D16*
X193815600Y-45316600D03*
%TD*%
%TO.C,SW8*%
G36*
X163096966Y-51560022D02*
G01*
X162295744Y-51049587D01*
X162994234Y-49953178D01*
X163795456Y-50463613D01*
X163096966Y-51560022D01*
G37*
G36*
X165004380Y-48565982D02*
G01*
X164203158Y-48055547D01*
X164901648Y-46959138D01*
X165702870Y-47469573D01*
X165004380Y-48565982D01*
G37*
D10*
X173583600Y-52936600D03*
X174726600Y-49888600D03*
X174726600Y-47729600D03*
X175107600Y-42649600D03*
X162661600Y-48364600D03*
X174218600Y-37696600D03*
X161645600Y-37696600D03*
X176885600Y-37696600D03*
D11*
X166678600Y-51158600D03*
X166678600Y-49658600D03*
X171678600Y-51158600D03*
X171678600Y-49658600D03*
D12*
X161905600Y-42776600D03*
X175355600Y-40236600D03*
D13*
X165455600Y-42776600D03*
D14*
X169265600Y-45316600D03*
D13*
X171805600Y-40236600D03*
D15*
X164185600Y-45316600D03*
D16*
X163765600Y-45316600D03*
D15*
X174345600Y-45316600D03*
D16*
X174765600Y-45316600D03*
%TD*%
%TO.C,SW8*%
G36*
X144046966Y-51560022D02*
G01*
X143245744Y-51049587D01*
X143944234Y-49953178D01*
X144745456Y-50463613D01*
X144046966Y-51560022D01*
G37*
G36*
X145954380Y-48565982D02*
G01*
X145153158Y-48055547D01*
X145851648Y-46959138D01*
X146652870Y-47469573D01*
X145954380Y-48565982D01*
G37*
D10*
X154533600Y-52936600D03*
X155676600Y-49888600D03*
X155676600Y-47729600D03*
X156057600Y-42649600D03*
X143611600Y-48364600D03*
X155168600Y-37696600D03*
X142595600Y-37696600D03*
X157835600Y-37696600D03*
D11*
X147628600Y-51158600D03*
X147628600Y-49658600D03*
X152628600Y-51158600D03*
X152628600Y-49658600D03*
D12*
X142855600Y-42776600D03*
X156305600Y-40236600D03*
D13*
X146405600Y-42776600D03*
D14*
X150215600Y-45316600D03*
D13*
X152755600Y-40236600D03*
D15*
X145135600Y-45316600D03*
D16*
X144715600Y-45316600D03*
D15*
X155295600Y-45316600D03*
D16*
X155715600Y-45316600D03*
%TD*%
%TO.C,SW8*%
X136665600Y-45316600D03*
D15*
X136245600Y-45316600D03*
D16*
X125665600Y-45316600D03*
D15*
X126085600Y-45316600D03*
D13*
X133705600Y-40236600D03*
D14*
X131165600Y-45316600D03*
D13*
X127355600Y-42776600D03*
D12*
X137255600Y-40236600D03*
X123805600Y-42776600D03*
D11*
X133578600Y-49658600D03*
X133578600Y-51158600D03*
X128578600Y-49658600D03*
X128578600Y-51158600D03*
D10*
X138785600Y-37696600D03*
X123545600Y-37696600D03*
X136118600Y-37696600D03*
X124561600Y-48364600D03*
X137007600Y-42649600D03*
X136626600Y-47729600D03*
X136626600Y-49888600D03*
X135483600Y-52936600D03*
G36*
X126904380Y-48565982D02*
G01*
X126103158Y-48055547D01*
X126801648Y-46959138D01*
X127602870Y-47469573D01*
X126904380Y-48565982D01*
G37*
G36*
X124996966Y-51560022D02*
G01*
X124195744Y-51049587D01*
X124894234Y-49953178D01*
X125695456Y-50463613D01*
X124996966Y-51560022D01*
G37*
%TD*%
M02*
