M48
; DRILL file {KiCad (5.99.0-2043-g129c16cf7)} date 07/21/20 11:43:28
; FORMAT={-:-/ absolute / metric / decimal}
; #@! TF.CreationDate,2020-07-21T11:43:28+02:00
; #@! TF.GenerationSoftware,Kicad,Pcbnew,(5.99.0-2043-g129c16cf7)
; #@! TF.FileFunction,NonPlated,1,2,NPTH
FMAT,2
METRIC
T1C1.702
T2C2.000
T3C3.000
T4C4.000
%
G90
G05
T1
X201.866Y-121.517
X201.866Y-140.567
X212.866Y-140.567
X125.666Y-102.467
X201.866Y-64.367
X220.916Y-45.317
X212.866Y-64.367
X163.766Y-102.467
X174.766Y-102.467
X136.666Y-102.467
X125.666Y-121.517
X136.666Y-121.517
X231.916Y-45.317
X155.716Y-140.567
X125.666Y-83.417
X136.666Y-83.417
X182.816Y-64.367
X182.816Y-102.467
X212.866Y-121.517
X201.866Y-83.417
X212.866Y-83.417
X144.716Y-64.367
X155.716Y-64.367
X193.816Y-64.367
X144.716Y-83.417
X155.716Y-83.417
X163.766Y-140.567
X174.766Y-140.567
X182.816Y-121.517
X193.816Y-121.517
X163.766Y-83.417
X174.766Y-83.417
X182.816Y-45.317
X220.916Y-140.567
X144.716Y-121.517
X155.716Y-121.517
X231.916Y-140.567
X182.816Y-83.417
X193.816Y-83.417
X144.716Y-45.317
X155.716Y-45.317
X144.716Y-102.467
X155.716Y-102.467
X182.816Y-140.567
X193.816Y-140.567
X201.866Y-45.317
X212.866Y-45.317
X220.916Y-83.417
X231.916Y-83.417
X163.766Y-121.517
X174.766Y-121.517
X144.716Y-140.567
X220.916Y-102.467
X125.666Y-64.367
X231.916Y-64.367
X193.816Y-102.467
X163.766Y-64.367
X174.766Y-64.367
X193.816Y-45.317
X163.766Y-45.317
X220.916Y-64.367
X220.916Y-121.517
X231.916Y-121.517
X125.666Y-45.317
X136.666Y-45.317
X136.666Y-64.367
X136.666Y-140.567
X174.766Y-45.317
X231.916Y-102.467
X125.666Y-140.567
X201.866Y-102.467
X212.866Y-102.467
T2
X164.186Y-102.467
X202.286Y-140.567
X212.446Y-140.567
X145.136Y-83.417
X155.296Y-83.417
X126.086Y-102.467
X136.246Y-102.467
X174.346Y-102.467
X145.136Y-140.567
X155.296Y-140.567
X174.346Y-140.567
X183.236Y-121.517
X193.396Y-121.517
X174.346Y-83.417
X221.336Y-45.317
X221.336Y-102.467
X231.496Y-102.467
X126.086Y-45.317
X136.246Y-45.317
X126.086Y-64.367
X136.246Y-64.367
X164.186Y-45.317
X164.186Y-140.567
X126.086Y-140.567
X136.246Y-140.567
X174.346Y-45.317
X221.336Y-64.367
X164.186Y-83.417
X202.286Y-64.367
X212.446Y-64.367
X221.336Y-83.417
X174.346Y-121.517
X183.236Y-140.567
X193.396Y-140.567
X212.446Y-83.417
X231.496Y-83.417
X202.286Y-83.417
X145.136Y-102.467
X155.296Y-102.467
X202.286Y-45.317
X212.446Y-45.317
X164.186Y-121.517
X231.496Y-64.367
X155.296Y-64.367
X221.336Y-140.567
X231.496Y-140.567
X145.136Y-64.367
X183.236Y-102.467
X193.396Y-102.467
X164.186Y-64.367
X126.086Y-83.417
X136.246Y-83.417
X183.236Y-64.367
X193.396Y-64.367
X202.286Y-102.467
X212.446Y-102.467
X145.136Y-121.517
X155.296Y-121.517
X202.286Y-121.517
X212.446Y-121.517
X126.086Y-121.517
X136.246Y-121.517
X231.496Y-45.317
X145.136Y-45.317
X155.296Y-45.317
X174.346Y-64.367
X183.236Y-45.317
X193.396Y-45.317
X183.236Y-83.417
X193.396Y-83.417
X221.336Y-121.517
X231.496Y-121.517
T3
X146.406Y-118.977
X152.756Y-116.437
X184.506Y-99.927
X190.856Y-97.387
X209.906Y-116.437
X184.506Y-138.027
X190.856Y-135.487
X146.406Y-138.027
X152.756Y-135.487
X184.506Y-42.777
X222.606Y-118.977
X203.556Y-118.977
X165.456Y-61.827
X171.806Y-59.287
X190.856Y-40.237
X222.606Y-138.027
X228.956Y-135.487
X184.506Y-80.877
X190.856Y-78.337
X228.956Y-116.437
X146.406Y-99.927
X152.756Y-97.387
X203.556Y-42.777
X209.906Y-40.237
X222.606Y-80.877
X184.506Y-61.827
X190.856Y-59.287
X165.456Y-99.927
X171.806Y-97.387
X228.956Y-78.337
X165.456Y-118.977
X171.806Y-116.437
X127.356Y-118.977
X133.706Y-116.437
X146.406Y-61.827
X152.756Y-59.287
X127.356Y-42.777
X133.706Y-40.237
X127.356Y-61.827
X133.706Y-59.287
X203.556Y-80.877
X209.906Y-78.337
X165.456Y-42.777
X171.806Y-40.237
X222.606Y-61.827
X228.956Y-59.287
X127.356Y-138.027
X203.556Y-99.927
X209.906Y-97.387
X203.556Y-138.027
X209.906Y-135.487
X146.406Y-80.877
X152.756Y-78.337
X222.606Y-99.927
X228.956Y-97.387
X127.356Y-99.927
X133.706Y-135.487
X133.706Y-97.387
X165.456Y-80.877
X127.356Y-80.877
X165.456Y-138.027
X171.806Y-135.487
X133.706Y-78.337
X190.856Y-116.437
X171.806Y-78.337
X209.906Y-59.287
X222.606Y-42.777
X228.956Y-40.237
X152.756Y-40.237
X184.506Y-118.977
X146.406Y-42.777
X203.556Y-61.827
T4
X188.316Y-140.567
X207.366Y-83.417
X169.266Y-45.317
X207.366Y-140.567
X150.216Y-83.417
X131.166Y-102.467
X169.266Y-140.567
X150.216Y-45.317
X188.316Y-121.517
X169.266Y-83.417
X207.366Y-64.367
X226.416Y-64.367
X150.216Y-64.367
X169.266Y-64.367
X226.416Y-102.467
X226.416Y-140.567
X131.166Y-83.417
X188.316Y-64.367
X131.166Y-45.317
X131.166Y-64.367
X131.166Y-140.567
X150.216Y-121.517
X226.416Y-45.317
X188.316Y-102.467
X188.316Y-45.317
X150.216Y-140.567
X150.216Y-102.467
X207.366Y-102.467
X169.266Y-102.467
X131.166Y-121.517
X188.316Y-83.417
X226.416Y-121.517
X207.366Y-121.517
X207.366Y-45.317
X226.416Y-83.417
X169.266Y-121.517
T0
M30
