%TF.GenerationSoftware,KiCad,Pcbnew,(5.99.0-2043-g129c16cf7)*%
%TF.CreationDate,2020-07-21T11:43:29+02:00*%
%TF.ProjectId,plate_6x6,706c6174-655f-4367-9836-2e6b69636164,rev?*%
%TF.SameCoordinates,Original*%
%TF.FileFunction,Copper,L2,Bot*%
%TF.FilePolarity,Positive*%
%FSLAX46Y46*%
G04 Gerber Fmt 4.6, Leading zero omitted, Abs format (unit mm)*
G04 Created by KiCad (PCBNEW (5.99.0-2043-g129c16cf7)) date 2020-07-21 11:43:29*
%MOMM*%
%LPD*%
G01*
G04 APERTURE LIST*
%TA.AperFunction,ComponentPad*%
%ADD10C,1.600000*%
%TD*%
%TA.AperFunction,SMDPad,CuDef*%
%ADD11R,1.800000X0.820000*%
%TD*%
%TA.AperFunction,SMDPad,CuDef*%
%ADD12R,2.550000X2.500000*%
%TD*%
%TA.AperFunction,ViaPad*%
%ADD13C,0.800000*%
%TD*%
%TA.AperFunction,Conductor*%
%ADD14C,0.250000*%
%TD*%
G04 APERTURE END LIST*
%TA.AperFunction,SMDPad,CuDef*%
%TO.P,SW8,25,25*%
%TO.N,Net-(SW14-Pad14)*%
G36*
X220246966Y-146810022D02*
G01*
X219445744Y-146299587D01*
X220144234Y-145203178D01*
X220945456Y-145713613D01*
X220246966Y-146810022D01*
G37*
%TD.AperFunction*%
%TA.AperFunction,SMDPad,CuDef*%
%TO.P,SW8,24,24*%
%TO.N,Net-(SW8-Pad1)*%
G36*
X222154380Y-143815982D02*
G01*
X221353158Y-143305547D01*
X222051648Y-142209138D01*
X222852870Y-142719573D01*
X222154380Y-143815982D01*
G37*
%TD.AperFunction*%
D10*
%TO.P,SW8,26,26*%
%TO.N,Net-(SW14-Pad14)*%
X230733600Y-148186600D03*
%TO.P,SW8,21,gnd*%
%TO.N,Net-(SW1-Pad11)*%
X231876600Y-145138600D03*
%TO.P,SW8,20,din*%
%TO.N,Net-(SW7-Pad10)*%
X231876600Y-142979600D03*
%TO.P,SW8,19,vcc*%
%TO.N,Net-(SW1-Pad16)*%
X232257600Y-137899600D03*
%TO.P,SW8,17,dout*%
%TO.N,Net-(SW8-Pad10)*%
X219811600Y-143614600D03*
%TO.P,SW8,14,14*%
%TO.N,Net-(SW14-Pad14)*%
X231368600Y-132946600D03*
%TO.P,SW8,13,13*%
%TO.N,Net-(SW10-Pad13)*%
X218795600Y-132946600D03*
%TO.P,SW8,15,15*%
X234035600Y-132946600D03*
D11*
%TO.P,SW8,10,Dout*%
%TO.N,Net-(SW8-Pad10)*%
X223828600Y-146408600D03*
%TO.P,SW8,9,Vdd*%
%TO.N,Net-(SW1-Pad16)*%
X223828600Y-144908600D03*
%TO.P,SW8,11,VSS*%
%TO.N,Net-(SW1-Pad11)*%
X228828600Y-146408600D03*
%TO.P,SW8,12,Din*%
%TO.N,Net-(SW7-Pad10)*%
X228828600Y-144908600D03*
D12*
%TO.P,SW8,1,1*%
%TO.N,Net-(SW8-Pad1)*%
X219055600Y-138026600D03*
%TO.P,SW8,2,2*%
%TO.N,Net-(SW10-Pad13)*%
X232505600Y-135486600D03*
%TD*%
%TA.AperFunction,SMDPad,CuDef*%
%TO.P,SW8,25,25*%
%TO.N,Net-(SW14-Pad14)*%
G36*
X201196966Y-146810022D02*
G01*
X200395744Y-146299587D01*
X201094234Y-145203178D01*
X201895456Y-145713613D01*
X201196966Y-146810022D01*
G37*
%TD.AperFunction*%
%TA.AperFunction,SMDPad,CuDef*%
%TO.P,SW8,24,24*%
%TO.N,Net-(SW8-Pad1)*%
G36*
X203104380Y-143815982D02*
G01*
X202303158Y-143305547D01*
X203001648Y-142209138D01*
X203802870Y-142719573D01*
X203104380Y-143815982D01*
G37*
%TD.AperFunction*%
D10*
%TO.P,SW8,26,26*%
%TO.N,Net-(SW14-Pad14)*%
X211683600Y-148186600D03*
%TO.P,SW8,21,gnd*%
%TO.N,Net-(SW1-Pad11)*%
X212826600Y-145138600D03*
%TO.P,SW8,20,din*%
%TO.N,Net-(SW7-Pad10)*%
X212826600Y-142979600D03*
%TO.P,SW8,19,vcc*%
%TO.N,Net-(SW1-Pad16)*%
X213207600Y-137899600D03*
%TO.P,SW8,17,dout*%
%TO.N,Net-(SW8-Pad10)*%
X200761600Y-143614600D03*
%TO.P,SW8,14,14*%
%TO.N,Net-(SW14-Pad14)*%
X212318600Y-132946600D03*
%TO.P,SW8,13,13*%
%TO.N,Net-(SW10-Pad13)*%
X199745600Y-132946600D03*
%TO.P,SW8,15,15*%
X214985600Y-132946600D03*
D11*
%TO.P,SW8,10,Dout*%
%TO.N,Net-(SW8-Pad10)*%
X204778600Y-146408600D03*
%TO.P,SW8,9,Vdd*%
%TO.N,Net-(SW1-Pad16)*%
X204778600Y-144908600D03*
%TO.P,SW8,11,VSS*%
%TO.N,Net-(SW1-Pad11)*%
X209778600Y-146408600D03*
%TO.P,SW8,12,Din*%
%TO.N,Net-(SW7-Pad10)*%
X209778600Y-144908600D03*
D12*
%TO.P,SW8,1,1*%
%TO.N,Net-(SW8-Pad1)*%
X200005600Y-138026600D03*
%TO.P,SW8,2,2*%
%TO.N,Net-(SW10-Pad13)*%
X213455600Y-135486600D03*
%TD*%
%TA.AperFunction,SMDPad,CuDef*%
%TO.P,SW8,25,25*%
%TO.N,Net-(SW14-Pad14)*%
G36*
X182146966Y-146810022D02*
G01*
X181345744Y-146299587D01*
X182044234Y-145203178D01*
X182845456Y-145713613D01*
X182146966Y-146810022D01*
G37*
%TD.AperFunction*%
%TA.AperFunction,SMDPad,CuDef*%
%TO.P,SW8,24,24*%
%TO.N,Net-(SW8-Pad1)*%
G36*
X184054380Y-143815982D02*
G01*
X183253158Y-143305547D01*
X183951648Y-142209138D01*
X184752870Y-142719573D01*
X184054380Y-143815982D01*
G37*
%TD.AperFunction*%
D10*
%TO.P,SW8,26,26*%
%TO.N,Net-(SW14-Pad14)*%
X192633600Y-148186600D03*
%TO.P,SW8,21,gnd*%
%TO.N,Net-(SW1-Pad11)*%
X193776600Y-145138600D03*
%TO.P,SW8,20,din*%
%TO.N,Net-(SW7-Pad10)*%
X193776600Y-142979600D03*
%TO.P,SW8,19,vcc*%
%TO.N,Net-(SW1-Pad16)*%
X194157600Y-137899600D03*
%TO.P,SW8,17,dout*%
%TO.N,Net-(SW8-Pad10)*%
X181711600Y-143614600D03*
%TO.P,SW8,14,14*%
%TO.N,Net-(SW14-Pad14)*%
X193268600Y-132946600D03*
%TO.P,SW8,13,13*%
%TO.N,Net-(SW10-Pad13)*%
X180695600Y-132946600D03*
%TO.P,SW8,15,15*%
X195935600Y-132946600D03*
D11*
%TO.P,SW8,10,Dout*%
%TO.N,Net-(SW8-Pad10)*%
X185728600Y-146408600D03*
%TO.P,SW8,9,Vdd*%
%TO.N,Net-(SW1-Pad16)*%
X185728600Y-144908600D03*
%TO.P,SW8,11,VSS*%
%TO.N,Net-(SW1-Pad11)*%
X190728600Y-146408600D03*
%TO.P,SW8,12,Din*%
%TO.N,Net-(SW7-Pad10)*%
X190728600Y-144908600D03*
D12*
%TO.P,SW8,1,1*%
%TO.N,Net-(SW8-Pad1)*%
X180955600Y-138026600D03*
%TO.P,SW8,2,2*%
%TO.N,Net-(SW10-Pad13)*%
X194405600Y-135486600D03*
%TD*%
%TA.AperFunction,SMDPad,CuDef*%
%TO.P,SW8,25,25*%
%TO.N,Net-(SW14-Pad14)*%
G36*
X163096966Y-146810022D02*
G01*
X162295744Y-146299587D01*
X162994234Y-145203178D01*
X163795456Y-145713613D01*
X163096966Y-146810022D01*
G37*
%TD.AperFunction*%
%TA.AperFunction,SMDPad,CuDef*%
%TO.P,SW8,24,24*%
%TO.N,Net-(SW8-Pad1)*%
G36*
X165004380Y-143815982D02*
G01*
X164203158Y-143305547D01*
X164901648Y-142209138D01*
X165702870Y-142719573D01*
X165004380Y-143815982D01*
G37*
%TD.AperFunction*%
D10*
%TO.P,SW8,26,26*%
%TO.N,Net-(SW14-Pad14)*%
X173583600Y-148186600D03*
%TO.P,SW8,21,gnd*%
%TO.N,Net-(SW1-Pad11)*%
X174726600Y-145138600D03*
%TO.P,SW8,20,din*%
%TO.N,Net-(SW7-Pad10)*%
X174726600Y-142979600D03*
%TO.P,SW8,19,vcc*%
%TO.N,Net-(SW1-Pad16)*%
X175107600Y-137899600D03*
%TO.P,SW8,17,dout*%
%TO.N,Net-(SW8-Pad10)*%
X162661600Y-143614600D03*
%TO.P,SW8,14,14*%
%TO.N,Net-(SW14-Pad14)*%
X174218600Y-132946600D03*
%TO.P,SW8,13,13*%
%TO.N,Net-(SW10-Pad13)*%
X161645600Y-132946600D03*
%TO.P,SW8,15,15*%
X176885600Y-132946600D03*
D11*
%TO.P,SW8,10,Dout*%
%TO.N,Net-(SW8-Pad10)*%
X166678600Y-146408600D03*
%TO.P,SW8,9,Vdd*%
%TO.N,Net-(SW1-Pad16)*%
X166678600Y-144908600D03*
%TO.P,SW8,11,VSS*%
%TO.N,Net-(SW1-Pad11)*%
X171678600Y-146408600D03*
%TO.P,SW8,12,Din*%
%TO.N,Net-(SW7-Pad10)*%
X171678600Y-144908600D03*
D12*
%TO.P,SW8,1,1*%
%TO.N,Net-(SW8-Pad1)*%
X161905600Y-138026600D03*
%TO.P,SW8,2,2*%
%TO.N,Net-(SW10-Pad13)*%
X175355600Y-135486600D03*
%TD*%
%TA.AperFunction,SMDPad,CuDef*%
%TO.P,SW8,25,25*%
%TO.N,Net-(SW14-Pad14)*%
G36*
X144046966Y-146810022D02*
G01*
X143245744Y-146299587D01*
X143944234Y-145203178D01*
X144745456Y-145713613D01*
X144046966Y-146810022D01*
G37*
%TD.AperFunction*%
%TA.AperFunction,SMDPad,CuDef*%
%TO.P,SW8,24,24*%
%TO.N,Net-(SW8-Pad1)*%
G36*
X145954380Y-143815982D02*
G01*
X145153158Y-143305547D01*
X145851648Y-142209138D01*
X146652870Y-142719573D01*
X145954380Y-143815982D01*
G37*
%TD.AperFunction*%
D10*
%TO.P,SW8,26,26*%
%TO.N,Net-(SW14-Pad14)*%
X154533600Y-148186600D03*
%TO.P,SW8,21,gnd*%
%TO.N,Net-(SW1-Pad11)*%
X155676600Y-145138600D03*
%TO.P,SW8,20,din*%
%TO.N,Net-(SW7-Pad10)*%
X155676600Y-142979600D03*
%TO.P,SW8,19,vcc*%
%TO.N,Net-(SW1-Pad16)*%
X156057600Y-137899600D03*
%TO.P,SW8,17,dout*%
%TO.N,Net-(SW8-Pad10)*%
X143611600Y-143614600D03*
%TO.P,SW8,14,14*%
%TO.N,Net-(SW14-Pad14)*%
X155168600Y-132946600D03*
%TO.P,SW8,13,13*%
%TO.N,Net-(SW10-Pad13)*%
X142595600Y-132946600D03*
%TO.P,SW8,15,15*%
X157835600Y-132946600D03*
D11*
%TO.P,SW8,10,Dout*%
%TO.N,Net-(SW8-Pad10)*%
X147628600Y-146408600D03*
%TO.P,SW8,9,Vdd*%
%TO.N,Net-(SW1-Pad16)*%
X147628600Y-144908600D03*
%TO.P,SW8,11,VSS*%
%TO.N,Net-(SW1-Pad11)*%
X152628600Y-146408600D03*
%TO.P,SW8,12,Din*%
%TO.N,Net-(SW7-Pad10)*%
X152628600Y-144908600D03*
D12*
%TO.P,SW8,1,1*%
%TO.N,Net-(SW8-Pad1)*%
X142855600Y-138026600D03*
%TO.P,SW8,2,2*%
%TO.N,Net-(SW10-Pad13)*%
X156305600Y-135486600D03*
%TD*%
%TA.AperFunction,SMDPad,CuDef*%
%TO.P,SW8,25,25*%
%TO.N,Net-(SW14-Pad14)*%
G36*
X124996966Y-146810022D02*
G01*
X124195744Y-146299587D01*
X124894234Y-145203178D01*
X125695456Y-145713613D01*
X124996966Y-146810022D01*
G37*
%TD.AperFunction*%
%TA.AperFunction,SMDPad,CuDef*%
%TO.P,SW8,24,24*%
%TO.N,Net-(SW8-Pad1)*%
G36*
X126904380Y-143815982D02*
G01*
X126103158Y-143305547D01*
X126801648Y-142209138D01*
X127602870Y-142719573D01*
X126904380Y-143815982D01*
G37*
%TD.AperFunction*%
D10*
%TO.P,SW8,26,26*%
%TO.N,Net-(SW14-Pad14)*%
X135483600Y-148186600D03*
%TO.P,SW8,21,gnd*%
%TO.N,Net-(SW1-Pad11)*%
X136626600Y-145138600D03*
%TO.P,SW8,20,din*%
%TO.N,Net-(SW7-Pad10)*%
X136626600Y-142979600D03*
%TO.P,SW8,19,vcc*%
%TO.N,Net-(SW1-Pad16)*%
X137007600Y-137899600D03*
%TO.P,SW8,17,dout*%
%TO.N,Net-(SW8-Pad10)*%
X124561600Y-143614600D03*
%TO.P,SW8,14,14*%
%TO.N,Net-(SW14-Pad14)*%
X136118600Y-132946600D03*
%TO.P,SW8,13,13*%
%TO.N,Net-(SW10-Pad13)*%
X123545600Y-132946600D03*
%TO.P,SW8,15,15*%
X138785600Y-132946600D03*
D11*
%TO.P,SW8,10,Dout*%
%TO.N,Net-(SW8-Pad10)*%
X128578600Y-146408600D03*
%TO.P,SW8,9,Vdd*%
%TO.N,Net-(SW1-Pad16)*%
X128578600Y-144908600D03*
%TO.P,SW8,11,VSS*%
%TO.N,Net-(SW1-Pad11)*%
X133578600Y-146408600D03*
%TO.P,SW8,12,Din*%
%TO.N,Net-(SW7-Pad10)*%
X133578600Y-144908600D03*
D12*
%TO.P,SW8,1,1*%
%TO.N,Net-(SW8-Pad1)*%
X123805600Y-138026600D03*
%TO.P,SW8,2,2*%
%TO.N,Net-(SW10-Pad13)*%
X137255600Y-135486600D03*
%TD*%
%TA.AperFunction,SMDPad,CuDef*%
%TO.P,SW8,25,25*%
%TO.N,Net-(SW14-Pad14)*%
G36*
X220246966Y-127760022D02*
G01*
X219445744Y-127249587D01*
X220144234Y-126153178D01*
X220945456Y-126663613D01*
X220246966Y-127760022D01*
G37*
%TD.AperFunction*%
%TA.AperFunction,SMDPad,CuDef*%
%TO.P,SW8,24,24*%
%TO.N,Net-(SW8-Pad1)*%
G36*
X222154380Y-124765982D02*
G01*
X221353158Y-124255547D01*
X222051648Y-123159138D01*
X222852870Y-123669573D01*
X222154380Y-124765982D01*
G37*
%TD.AperFunction*%
D10*
%TO.P,SW8,26,26*%
%TO.N,Net-(SW14-Pad14)*%
X230733600Y-129136600D03*
%TO.P,SW8,21,gnd*%
%TO.N,Net-(SW1-Pad11)*%
X231876600Y-126088600D03*
%TO.P,SW8,20,din*%
%TO.N,Net-(SW7-Pad10)*%
X231876600Y-123929600D03*
%TO.P,SW8,19,vcc*%
%TO.N,Net-(SW1-Pad16)*%
X232257600Y-118849600D03*
%TO.P,SW8,17,dout*%
%TO.N,Net-(SW8-Pad10)*%
X219811600Y-124564600D03*
%TO.P,SW8,14,14*%
%TO.N,Net-(SW14-Pad14)*%
X231368600Y-113896600D03*
%TO.P,SW8,13,13*%
%TO.N,Net-(SW10-Pad13)*%
X218795600Y-113896600D03*
%TO.P,SW8,15,15*%
X234035600Y-113896600D03*
D11*
%TO.P,SW8,10,Dout*%
%TO.N,Net-(SW8-Pad10)*%
X223828600Y-127358600D03*
%TO.P,SW8,9,Vdd*%
%TO.N,Net-(SW1-Pad16)*%
X223828600Y-125858600D03*
%TO.P,SW8,11,VSS*%
%TO.N,Net-(SW1-Pad11)*%
X228828600Y-127358600D03*
%TO.P,SW8,12,Din*%
%TO.N,Net-(SW7-Pad10)*%
X228828600Y-125858600D03*
D12*
%TO.P,SW8,1,1*%
%TO.N,Net-(SW8-Pad1)*%
X219055600Y-118976600D03*
%TO.P,SW8,2,2*%
%TO.N,Net-(SW10-Pad13)*%
X232505600Y-116436600D03*
%TD*%
%TA.AperFunction,SMDPad,CuDef*%
%TO.P,SW8,25,25*%
%TO.N,Net-(SW14-Pad14)*%
G36*
X201196966Y-127760022D02*
G01*
X200395744Y-127249587D01*
X201094234Y-126153178D01*
X201895456Y-126663613D01*
X201196966Y-127760022D01*
G37*
%TD.AperFunction*%
%TA.AperFunction,SMDPad,CuDef*%
%TO.P,SW8,24,24*%
%TO.N,Net-(SW8-Pad1)*%
G36*
X203104380Y-124765982D02*
G01*
X202303158Y-124255547D01*
X203001648Y-123159138D01*
X203802870Y-123669573D01*
X203104380Y-124765982D01*
G37*
%TD.AperFunction*%
D10*
%TO.P,SW8,26,26*%
%TO.N,Net-(SW14-Pad14)*%
X211683600Y-129136600D03*
%TO.P,SW8,21,gnd*%
%TO.N,Net-(SW1-Pad11)*%
X212826600Y-126088600D03*
%TO.P,SW8,20,din*%
%TO.N,Net-(SW7-Pad10)*%
X212826600Y-123929600D03*
%TO.P,SW8,19,vcc*%
%TO.N,Net-(SW1-Pad16)*%
X213207600Y-118849600D03*
%TO.P,SW8,17,dout*%
%TO.N,Net-(SW8-Pad10)*%
X200761600Y-124564600D03*
%TO.P,SW8,14,14*%
%TO.N,Net-(SW14-Pad14)*%
X212318600Y-113896600D03*
%TO.P,SW8,13,13*%
%TO.N,Net-(SW10-Pad13)*%
X199745600Y-113896600D03*
%TO.P,SW8,15,15*%
X214985600Y-113896600D03*
D11*
%TO.P,SW8,10,Dout*%
%TO.N,Net-(SW8-Pad10)*%
X204778600Y-127358600D03*
%TO.P,SW8,9,Vdd*%
%TO.N,Net-(SW1-Pad16)*%
X204778600Y-125858600D03*
%TO.P,SW8,11,VSS*%
%TO.N,Net-(SW1-Pad11)*%
X209778600Y-127358600D03*
%TO.P,SW8,12,Din*%
%TO.N,Net-(SW7-Pad10)*%
X209778600Y-125858600D03*
D12*
%TO.P,SW8,1,1*%
%TO.N,Net-(SW8-Pad1)*%
X200005600Y-118976600D03*
%TO.P,SW8,2,2*%
%TO.N,Net-(SW10-Pad13)*%
X213455600Y-116436600D03*
%TD*%
%TA.AperFunction,SMDPad,CuDef*%
%TO.P,SW8,25,25*%
%TO.N,Net-(SW14-Pad14)*%
G36*
X182146966Y-127760022D02*
G01*
X181345744Y-127249587D01*
X182044234Y-126153178D01*
X182845456Y-126663613D01*
X182146966Y-127760022D01*
G37*
%TD.AperFunction*%
%TA.AperFunction,SMDPad,CuDef*%
%TO.P,SW8,24,24*%
%TO.N,Net-(SW8-Pad1)*%
G36*
X184054380Y-124765982D02*
G01*
X183253158Y-124255547D01*
X183951648Y-123159138D01*
X184752870Y-123669573D01*
X184054380Y-124765982D01*
G37*
%TD.AperFunction*%
D10*
%TO.P,SW8,26,26*%
%TO.N,Net-(SW14-Pad14)*%
X192633600Y-129136600D03*
%TO.P,SW8,21,gnd*%
%TO.N,Net-(SW1-Pad11)*%
X193776600Y-126088600D03*
%TO.P,SW8,20,din*%
%TO.N,Net-(SW7-Pad10)*%
X193776600Y-123929600D03*
%TO.P,SW8,19,vcc*%
%TO.N,Net-(SW1-Pad16)*%
X194157600Y-118849600D03*
%TO.P,SW8,17,dout*%
%TO.N,Net-(SW8-Pad10)*%
X181711600Y-124564600D03*
%TO.P,SW8,14,14*%
%TO.N,Net-(SW14-Pad14)*%
X193268600Y-113896600D03*
%TO.P,SW8,13,13*%
%TO.N,Net-(SW10-Pad13)*%
X180695600Y-113896600D03*
%TO.P,SW8,15,15*%
X195935600Y-113896600D03*
D11*
%TO.P,SW8,10,Dout*%
%TO.N,Net-(SW8-Pad10)*%
X185728600Y-127358600D03*
%TO.P,SW8,9,Vdd*%
%TO.N,Net-(SW1-Pad16)*%
X185728600Y-125858600D03*
%TO.P,SW8,11,VSS*%
%TO.N,Net-(SW1-Pad11)*%
X190728600Y-127358600D03*
%TO.P,SW8,12,Din*%
%TO.N,Net-(SW7-Pad10)*%
X190728600Y-125858600D03*
D12*
%TO.P,SW8,1,1*%
%TO.N,Net-(SW8-Pad1)*%
X180955600Y-118976600D03*
%TO.P,SW8,2,2*%
%TO.N,Net-(SW10-Pad13)*%
X194405600Y-116436600D03*
%TD*%
%TA.AperFunction,SMDPad,CuDef*%
%TO.P,SW8,25,25*%
%TO.N,Net-(SW14-Pad14)*%
G36*
X163096966Y-127760022D02*
G01*
X162295744Y-127249587D01*
X162994234Y-126153178D01*
X163795456Y-126663613D01*
X163096966Y-127760022D01*
G37*
%TD.AperFunction*%
%TA.AperFunction,SMDPad,CuDef*%
%TO.P,SW8,24,24*%
%TO.N,Net-(SW8-Pad1)*%
G36*
X165004380Y-124765982D02*
G01*
X164203158Y-124255547D01*
X164901648Y-123159138D01*
X165702870Y-123669573D01*
X165004380Y-124765982D01*
G37*
%TD.AperFunction*%
D10*
%TO.P,SW8,26,26*%
%TO.N,Net-(SW14-Pad14)*%
X173583600Y-129136600D03*
%TO.P,SW8,21,gnd*%
%TO.N,Net-(SW1-Pad11)*%
X174726600Y-126088600D03*
%TO.P,SW8,20,din*%
%TO.N,Net-(SW7-Pad10)*%
X174726600Y-123929600D03*
%TO.P,SW8,19,vcc*%
%TO.N,Net-(SW1-Pad16)*%
X175107600Y-118849600D03*
%TO.P,SW8,17,dout*%
%TO.N,Net-(SW8-Pad10)*%
X162661600Y-124564600D03*
%TO.P,SW8,14,14*%
%TO.N,Net-(SW14-Pad14)*%
X174218600Y-113896600D03*
%TO.P,SW8,13,13*%
%TO.N,Net-(SW10-Pad13)*%
X161645600Y-113896600D03*
%TO.P,SW8,15,15*%
X176885600Y-113896600D03*
D11*
%TO.P,SW8,10,Dout*%
%TO.N,Net-(SW8-Pad10)*%
X166678600Y-127358600D03*
%TO.P,SW8,9,Vdd*%
%TO.N,Net-(SW1-Pad16)*%
X166678600Y-125858600D03*
%TO.P,SW8,11,VSS*%
%TO.N,Net-(SW1-Pad11)*%
X171678600Y-127358600D03*
%TO.P,SW8,12,Din*%
%TO.N,Net-(SW7-Pad10)*%
X171678600Y-125858600D03*
D12*
%TO.P,SW8,1,1*%
%TO.N,Net-(SW8-Pad1)*%
X161905600Y-118976600D03*
%TO.P,SW8,2,2*%
%TO.N,Net-(SW10-Pad13)*%
X175355600Y-116436600D03*
%TD*%
%TA.AperFunction,SMDPad,CuDef*%
%TO.P,SW8,25,25*%
%TO.N,Net-(SW14-Pad14)*%
G36*
X144046966Y-127760022D02*
G01*
X143245744Y-127249587D01*
X143944234Y-126153178D01*
X144745456Y-126663613D01*
X144046966Y-127760022D01*
G37*
%TD.AperFunction*%
%TA.AperFunction,SMDPad,CuDef*%
%TO.P,SW8,24,24*%
%TO.N,Net-(SW8-Pad1)*%
G36*
X145954380Y-124765982D02*
G01*
X145153158Y-124255547D01*
X145851648Y-123159138D01*
X146652870Y-123669573D01*
X145954380Y-124765982D01*
G37*
%TD.AperFunction*%
D10*
%TO.P,SW8,26,26*%
%TO.N,Net-(SW14-Pad14)*%
X154533600Y-129136600D03*
%TO.P,SW8,21,gnd*%
%TO.N,Net-(SW1-Pad11)*%
X155676600Y-126088600D03*
%TO.P,SW8,20,din*%
%TO.N,Net-(SW7-Pad10)*%
X155676600Y-123929600D03*
%TO.P,SW8,19,vcc*%
%TO.N,Net-(SW1-Pad16)*%
X156057600Y-118849600D03*
%TO.P,SW8,17,dout*%
%TO.N,Net-(SW8-Pad10)*%
X143611600Y-124564600D03*
%TO.P,SW8,14,14*%
%TO.N,Net-(SW14-Pad14)*%
X155168600Y-113896600D03*
%TO.P,SW8,13,13*%
%TO.N,Net-(SW10-Pad13)*%
X142595600Y-113896600D03*
%TO.P,SW8,15,15*%
X157835600Y-113896600D03*
D11*
%TO.P,SW8,10,Dout*%
%TO.N,Net-(SW8-Pad10)*%
X147628600Y-127358600D03*
%TO.P,SW8,9,Vdd*%
%TO.N,Net-(SW1-Pad16)*%
X147628600Y-125858600D03*
%TO.P,SW8,11,VSS*%
%TO.N,Net-(SW1-Pad11)*%
X152628600Y-127358600D03*
%TO.P,SW8,12,Din*%
%TO.N,Net-(SW7-Pad10)*%
X152628600Y-125858600D03*
D12*
%TO.P,SW8,1,1*%
%TO.N,Net-(SW8-Pad1)*%
X142855600Y-118976600D03*
%TO.P,SW8,2,2*%
%TO.N,Net-(SW10-Pad13)*%
X156305600Y-116436600D03*
%TD*%
%TA.AperFunction,SMDPad,CuDef*%
%TO.P,SW8,25,25*%
%TO.N,Net-(SW14-Pad14)*%
G36*
X124996966Y-127760022D02*
G01*
X124195744Y-127249587D01*
X124894234Y-126153178D01*
X125695456Y-126663613D01*
X124996966Y-127760022D01*
G37*
%TD.AperFunction*%
%TA.AperFunction,SMDPad,CuDef*%
%TO.P,SW8,24,24*%
%TO.N,Net-(SW8-Pad1)*%
G36*
X126904380Y-124765982D02*
G01*
X126103158Y-124255547D01*
X126801648Y-123159138D01*
X127602870Y-123669573D01*
X126904380Y-124765982D01*
G37*
%TD.AperFunction*%
D10*
%TO.P,SW8,26,26*%
%TO.N,Net-(SW14-Pad14)*%
X135483600Y-129136600D03*
%TO.P,SW8,21,gnd*%
%TO.N,Net-(SW1-Pad11)*%
X136626600Y-126088600D03*
%TO.P,SW8,20,din*%
%TO.N,Net-(SW7-Pad10)*%
X136626600Y-123929600D03*
%TO.P,SW8,19,vcc*%
%TO.N,Net-(SW1-Pad16)*%
X137007600Y-118849600D03*
%TO.P,SW8,17,dout*%
%TO.N,Net-(SW8-Pad10)*%
X124561600Y-124564600D03*
%TO.P,SW8,14,14*%
%TO.N,Net-(SW14-Pad14)*%
X136118600Y-113896600D03*
%TO.P,SW8,13,13*%
%TO.N,Net-(SW10-Pad13)*%
X123545600Y-113896600D03*
%TO.P,SW8,15,15*%
X138785600Y-113896600D03*
D11*
%TO.P,SW8,10,Dout*%
%TO.N,Net-(SW8-Pad10)*%
X128578600Y-127358600D03*
%TO.P,SW8,9,Vdd*%
%TO.N,Net-(SW1-Pad16)*%
X128578600Y-125858600D03*
%TO.P,SW8,11,VSS*%
%TO.N,Net-(SW1-Pad11)*%
X133578600Y-127358600D03*
%TO.P,SW8,12,Din*%
%TO.N,Net-(SW7-Pad10)*%
X133578600Y-125858600D03*
D12*
%TO.P,SW8,1,1*%
%TO.N,Net-(SW8-Pad1)*%
X123805600Y-118976600D03*
%TO.P,SW8,2,2*%
%TO.N,Net-(SW10-Pad13)*%
X137255600Y-116436600D03*
%TD*%
%TA.AperFunction,SMDPad,CuDef*%
%TO.P,SW8,25,25*%
%TO.N,Net-(SW14-Pad14)*%
G36*
X220246966Y-108710022D02*
G01*
X219445744Y-108199587D01*
X220144234Y-107103178D01*
X220945456Y-107613613D01*
X220246966Y-108710022D01*
G37*
%TD.AperFunction*%
%TA.AperFunction,SMDPad,CuDef*%
%TO.P,SW8,24,24*%
%TO.N,Net-(SW8-Pad1)*%
G36*
X222154380Y-105715982D02*
G01*
X221353158Y-105205547D01*
X222051648Y-104109138D01*
X222852870Y-104619573D01*
X222154380Y-105715982D01*
G37*
%TD.AperFunction*%
D10*
%TO.P,SW8,26,26*%
%TO.N,Net-(SW14-Pad14)*%
X230733600Y-110086600D03*
%TO.P,SW8,21,gnd*%
%TO.N,Net-(SW1-Pad11)*%
X231876600Y-107038600D03*
%TO.P,SW8,20,din*%
%TO.N,Net-(SW7-Pad10)*%
X231876600Y-104879600D03*
%TO.P,SW8,19,vcc*%
%TO.N,Net-(SW1-Pad16)*%
X232257600Y-99799600D03*
%TO.P,SW8,17,dout*%
%TO.N,Net-(SW8-Pad10)*%
X219811600Y-105514600D03*
%TO.P,SW8,14,14*%
%TO.N,Net-(SW14-Pad14)*%
X231368600Y-94846600D03*
%TO.P,SW8,13,13*%
%TO.N,Net-(SW10-Pad13)*%
X218795600Y-94846600D03*
%TO.P,SW8,15,15*%
X234035600Y-94846600D03*
D11*
%TO.P,SW8,10,Dout*%
%TO.N,Net-(SW8-Pad10)*%
X223828600Y-108308600D03*
%TO.P,SW8,9,Vdd*%
%TO.N,Net-(SW1-Pad16)*%
X223828600Y-106808600D03*
%TO.P,SW8,11,VSS*%
%TO.N,Net-(SW1-Pad11)*%
X228828600Y-108308600D03*
%TO.P,SW8,12,Din*%
%TO.N,Net-(SW7-Pad10)*%
X228828600Y-106808600D03*
D12*
%TO.P,SW8,1,1*%
%TO.N,Net-(SW8-Pad1)*%
X219055600Y-99926600D03*
%TO.P,SW8,2,2*%
%TO.N,Net-(SW10-Pad13)*%
X232505600Y-97386600D03*
%TD*%
%TA.AperFunction,SMDPad,CuDef*%
%TO.P,SW8,25,25*%
%TO.N,Net-(SW14-Pad14)*%
G36*
X201196966Y-108710022D02*
G01*
X200395744Y-108199587D01*
X201094234Y-107103178D01*
X201895456Y-107613613D01*
X201196966Y-108710022D01*
G37*
%TD.AperFunction*%
%TA.AperFunction,SMDPad,CuDef*%
%TO.P,SW8,24,24*%
%TO.N,Net-(SW8-Pad1)*%
G36*
X203104380Y-105715982D02*
G01*
X202303158Y-105205547D01*
X203001648Y-104109138D01*
X203802870Y-104619573D01*
X203104380Y-105715982D01*
G37*
%TD.AperFunction*%
D10*
%TO.P,SW8,26,26*%
%TO.N,Net-(SW14-Pad14)*%
X211683600Y-110086600D03*
%TO.P,SW8,21,gnd*%
%TO.N,Net-(SW1-Pad11)*%
X212826600Y-107038600D03*
%TO.P,SW8,20,din*%
%TO.N,Net-(SW7-Pad10)*%
X212826600Y-104879600D03*
%TO.P,SW8,19,vcc*%
%TO.N,Net-(SW1-Pad16)*%
X213207600Y-99799600D03*
%TO.P,SW8,17,dout*%
%TO.N,Net-(SW8-Pad10)*%
X200761600Y-105514600D03*
%TO.P,SW8,14,14*%
%TO.N,Net-(SW14-Pad14)*%
X212318600Y-94846600D03*
%TO.P,SW8,13,13*%
%TO.N,Net-(SW10-Pad13)*%
X199745600Y-94846600D03*
%TO.P,SW8,15,15*%
X214985600Y-94846600D03*
D11*
%TO.P,SW8,10,Dout*%
%TO.N,Net-(SW8-Pad10)*%
X204778600Y-108308600D03*
%TO.P,SW8,9,Vdd*%
%TO.N,Net-(SW1-Pad16)*%
X204778600Y-106808600D03*
%TO.P,SW8,11,VSS*%
%TO.N,Net-(SW1-Pad11)*%
X209778600Y-108308600D03*
%TO.P,SW8,12,Din*%
%TO.N,Net-(SW7-Pad10)*%
X209778600Y-106808600D03*
D12*
%TO.P,SW8,1,1*%
%TO.N,Net-(SW8-Pad1)*%
X200005600Y-99926600D03*
%TO.P,SW8,2,2*%
%TO.N,Net-(SW10-Pad13)*%
X213455600Y-97386600D03*
%TD*%
%TA.AperFunction,SMDPad,CuDef*%
%TO.P,SW8,25,25*%
%TO.N,Net-(SW14-Pad14)*%
G36*
X182146966Y-108710022D02*
G01*
X181345744Y-108199587D01*
X182044234Y-107103178D01*
X182845456Y-107613613D01*
X182146966Y-108710022D01*
G37*
%TD.AperFunction*%
%TA.AperFunction,SMDPad,CuDef*%
%TO.P,SW8,24,24*%
%TO.N,Net-(SW8-Pad1)*%
G36*
X184054380Y-105715982D02*
G01*
X183253158Y-105205547D01*
X183951648Y-104109138D01*
X184752870Y-104619573D01*
X184054380Y-105715982D01*
G37*
%TD.AperFunction*%
D10*
%TO.P,SW8,26,26*%
%TO.N,Net-(SW14-Pad14)*%
X192633600Y-110086600D03*
%TO.P,SW8,21,gnd*%
%TO.N,Net-(SW1-Pad11)*%
X193776600Y-107038600D03*
%TO.P,SW8,20,din*%
%TO.N,Net-(SW7-Pad10)*%
X193776600Y-104879600D03*
%TO.P,SW8,19,vcc*%
%TO.N,Net-(SW1-Pad16)*%
X194157600Y-99799600D03*
%TO.P,SW8,17,dout*%
%TO.N,Net-(SW8-Pad10)*%
X181711600Y-105514600D03*
%TO.P,SW8,14,14*%
%TO.N,Net-(SW14-Pad14)*%
X193268600Y-94846600D03*
%TO.P,SW8,13,13*%
%TO.N,Net-(SW10-Pad13)*%
X180695600Y-94846600D03*
%TO.P,SW8,15,15*%
X195935600Y-94846600D03*
D11*
%TO.P,SW8,10,Dout*%
%TO.N,Net-(SW8-Pad10)*%
X185728600Y-108308600D03*
%TO.P,SW8,9,Vdd*%
%TO.N,Net-(SW1-Pad16)*%
X185728600Y-106808600D03*
%TO.P,SW8,11,VSS*%
%TO.N,Net-(SW1-Pad11)*%
X190728600Y-108308600D03*
%TO.P,SW8,12,Din*%
%TO.N,Net-(SW7-Pad10)*%
X190728600Y-106808600D03*
D12*
%TO.P,SW8,1,1*%
%TO.N,Net-(SW8-Pad1)*%
X180955600Y-99926600D03*
%TO.P,SW8,2,2*%
%TO.N,Net-(SW10-Pad13)*%
X194405600Y-97386600D03*
%TD*%
%TA.AperFunction,SMDPad,CuDef*%
%TO.P,SW8,25,25*%
%TO.N,Net-(SW14-Pad14)*%
G36*
X163096966Y-108710022D02*
G01*
X162295744Y-108199587D01*
X162994234Y-107103178D01*
X163795456Y-107613613D01*
X163096966Y-108710022D01*
G37*
%TD.AperFunction*%
%TA.AperFunction,SMDPad,CuDef*%
%TO.P,SW8,24,24*%
%TO.N,Net-(SW8-Pad1)*%
G36*
X165004380Y-105715982D02*
G01*
X164203158Y-105205547D01*
X164901648Y-104109138D01*
X165702870Y-104619573D01*
X165004380Y-105715982D01*
G37*
%TD.AperFunction*%
D10*
%TO.P,SW8,26,26*%
%TO.N,Net-(SW14-Pad14)*%
X173583600Y-110086600D03*
%TO.P,SW8,21,gnd*%
%TO.N,Net-(SW1-Pad11)*%
X174726600Y-107038600D03*
%TO.P,SW8,20,din*%
%TO.N,Net-(SW7-Pad10)*%
X174726600Y-104879600D03*
%TO.P,SW8,19,vcc*%
%TO.N,Net-(SW1-Pad16)*%
X175107600Y-99799600D03*
%TO.P,SW8,17,dout*%
%TO.N,Net-(SW8-Pad10)*%
X162661600Y-105514600D03*
%TO.P,SW8,14,14*%
%TO.N,Net-(SW14-Pad14)*%
X174218600Y-94846600D03*
%TO.P,SW8,13,13*%
%TO.N,Net-(SW10-Pad13)*%
X161645600Y-94846600D03*
%TO.P,SW8,15,15*%
X176885600Y-94846600D03*
D11*
%TO.P,SW8,10,Dout*%
%TO.N,Net-(SW8-Pad10)*%
X166678600Y-108308600D03*
%TO.P,SW8,9,Vdd*%
%TO.N,Net-(SW1-Pad16)*%
X166678600Y-106808600D03*
%TO.P,SW8,11,VSS*%
%TO.N,Net-(SW1-Pad11)*%
X171678600Y-108308600D03*
%TO.P,SW8,12,Din*%
%TO.N,Net-(SW7-Pad10)*%
X171678600Y-106808600D03*
D12*
%TO.P,SW8,1,1*%
%TO.N,Net-(SW8-Pad1)*%
X161905600Y-99926600D03*
%TO.P,SW8,2,2*%
%TO.N,Net-(SW10-Pad13)*%
X175355600Y-97386600D03*
%TD*%
%TA.AperFunction,SMDPad,CuDef*%
%TO.P,SW8,25,25*%
%TO.N,Net-(SW14-Pad14)*%
G36*
X144046966Y-108710022D02*
G01*
X143245744Y-108199587D01*
X143944234Y-107103178D01*
X144745456Y-107613613D01*
X144046966Y-108710022D01*
G37*
%TD.AperFunction*%
%TA.AperFunction,SMDPad,CuDef*%
%TO.P,SW8,24,24*%
%TO.N,Net-(SW8-Pad1)*%
G36*
X145954380Y-105715982D02*
G01*
X145153158Y-105205547D01*
X145851648Y-104109138D01*
X146652870Y-104619573D01*
X145954380Y-105715982D01*
G37*
%TD.AperFunction*%
D10*
%TO.P,SW8,26,26*%
%TO.N,Net-(SW14-Pad14)*%
X154533600Y-110086600D03*
%TO.P,SW8,21,gnd*%
%TO.N,Net-(SW1-Pad11)*%
X155676600Y-107038600D03*
%TO.P,SW8,20,din*%
%TO.N,Net-(SW7-Pad10)*%
X155676600Y-104879600D03*
%TO.P,SW8,19,vcc*%
%TO.N,Net-(SW1-Pad16)*%
X156057600Y-99799600D03*
%TO.P,SW8,17,dout*%
%TO.N,Net-(SW8-Pad10)*%
X143611600Y-105514600D03*
%TO.P,SW8,14,14*%
%TO.N,Net-(SW14-Pad14)*%
X155168600Y-94846600D03*
%TO.P,SW8,13,13*%
%TO.N,Net-(SW10-Pad13)*%
X142595600Y-94846600D03*
%TO.P,SW8,15,15*%
X157835600Y-94846600D03*
D11*
%TO.P,SW8,10,Dout*%
%TO.N,Net-(SW8-Pad10)*%
X147628600Y-108308600D03*
%TO.P,SW8,9,Vdd*%
%TO.N,Net-(SW1-Pad16)*%
X147628600Y-106808600D03*
%TO.P,SW8,11,VSS*%
%TO.N,Net-(SW1-Pad11)*%
X152628600Y-108308600D03*
%TO.P,SW8,12,Din*%
%TO.N,Net-(SW7-Pad10)*%
X152628600Y-106808600D03*
D12*
%TO.P,SW8,1,1*%
%TO.N,Net-(SW8-Pad1)*%
X142855600Y-99926600D03*
%TO.P,SW8,2,2*%
%TO.N,Net-(SW10-Pad13)*%
X156305600Y-97386600D03*
%TD*%
%TA.AperFunction,SMDPad,CuDef*%
%TO.P,SW8,25,25*%
%TO.N,Net-(SW14-Pad14)*%
G36*
X124996966Y-108710022D02*
G01*
X124195744Y-108199587D01*
X124894234Y-107103178D01*
X125695456Y-107613613D01*
X124996966Y-108710022D01*
G37*
%TD.AperFunction*%
%TA.AperFunction,SMDPad,CuDef*%
%TO.P,SW8,24,24*%
%TO.N,Net-(SW8-Pad1)*%
G36*
X126904380Y-105715982D02*
G01*
X126103158Y-105205547D01*
X126801648Y-104109138D01*
X127602870Y-104619573D01*
X126904380Y-105715982D01*
G37*
%TD.AperFunction*%
D10*
%TO.P,SW8,26,26*%
%TO.N,Net-(SW14-Pad14)*%
X135483600Y-110086600D03*
%TO.P,SW8,21,gnd*%
%TO.N,Net-(SW1-Pad11)*%
X136626600Y-107038600D03*
%TO.P,SW8,20,din*%
%TO.N,Net-(SW7-Pad10)*%
X136626600Y-104879600D03*
%TO.P,SW8,19,vcc*%
%TO.N,Net-(SW1-Pad16)*%
X137007600Y-99799600D03*
%TO.P,SW8,17,dout*%
%TO.N,Net-(SW8-Pad10)*%
X124561600Y-105514600D03*
%TO.P,SW8,14,14*%
%TO.N,Net-(SW14-Pad14)*%
X136118600Y-94846600D03*
%TO.P,SW8,13,13*%
%TO.N,Net-(SW10-Pad13)*%
X123545600Y-94846600D03*
%TO.P,SW8,15,15*%
X138785600Y-94846600D03*
D11*
%TO.P,SW8,10,Dout*%
%TO.N,Net-(SW8-Pad10)*%
X128578600Y-108308600D03*
%TO.P,SW8,9,Vdd*%
%TO.N,Net-(SW1-Pad16)*%
X128578600Y-106808600D03*
%TO.P,SW8,11,VSS*%
%TO.N,Net-(SW1-Pad11)*%
X133578600Y-108308600D03*
%TO.P,SW8,12,Din*%
%TO.N,Net-(SW7-Pad10)*%
X133578600Y-106808600D03*
D12*
%TO.P,SW8,1,1*%
%TO.N,Net-(SW8-Pad1)*%
X123805600Y-99926600D03*
%TO.P,SW8,2,2*%
%TO.N,Net-(SW10-Pad13)*%
X137255600Y-97386600D03*
%TD*%
%TA.AperFunction,SMDPad,CuDef*%
%TO.P,SW8,25,25*%
%TO.N,Net-(SW14-Pad14)*%
G36*
X220246966Y-89660022D02*
G01*
X219445744Y-89149587D01*
X220144234Y-88053178D01*
X220945456Y-88563613D01*
X220246966Y-89660022D01*
G37*
%TD.AperFunction*%
%TA.AperFunction,SMDPad,CuDef*%
%TO.P,SW8,24,24*%
%TO.N,Net-(SW8-Pad1)*%
G36*
X222154380Y-86665982D02*
G01*
X221353158Y-86155547D01*
X222051648Y-85059138D01*
X222852870Y-85569573D01*
X222154380Y-86665982D01*
G37*
%TD.AperFunction*%
D10*
%TO.P,SW8,26,26*%
%TO.N,Net-(SW14-Pad14)*%
X230733600Y-91036600D03*
%TO.P,SW8,21,gnd*%
%TO.N,Net-(SW1-Pad11)*%
X231876600Y-87988600D03*
%TO.P,SW8,20,din*%
%TO.N,Net-(SW7-Pad10)*%
X231876600Y-85829600D03*
%TO.P,SW8,19,vcc*%
%TO.N,Net-(SW1-Pad16)*%
X232257600Y-80749600D03*
%TO.P,SW8,17,dout*%
%TO.N,Net-(SW8-Pad10)*%
X219811600Y-86464600D03*
%TO.P,SW8,14,14*%
%TO.N,Net-(SW14-Pad14)*%
X231368600Y-75796600D03*
%TO.P,SW8,13,13*%
%TO.N,Net-(SW10-Pad13)*%
X218795600Y-75796600D03*
%TO.P,SW8,15,15*%
X234035600Y-75796600D03*
D11*
%TO.P,SW8,10,Dout*%
%TO.N,Net-(SW8-Pad10)*%
X223828600Y-89258600D03*
%TO.P,SW8,9,Vdd*%
%TO.N,Net-(SW1-Pad16)*%
X223828600Y-87758600D03*
%TO.P,SW8,11,VSS*%
%TO.N,Net-(SW1-Pad11)*%
X228828600Y-89258600D03*
%TO.P,SW8,12,Din*%
%TO.N,Net-(SW7-Pad10)*%
X228828600Y-87758600D03*
D12*
%TO.P,SW8,1,1*%
%TO.N,Net-(SW8-Pad1)*%
X219055600Y-80876600D03*
%TO.P,SW8,2,2*%
%TO.N,Net-(SW10-Pad13)*%
X232505600Y-78336600D03*
%TD*%
%TA.AperFunction,SMDPad,CuDef*%
%TO.P,SW8,25,25*%
%TO.N,Net-(SW14-Pad14)*%
G36*
X201196966Y-89660022D02*
G01*
X200395744Y-89149587D01*
X201094234Y-88053178D01*
X201895456Y-88563613D01*
X201196966Y-89660022D01*
G37*
%TD.AperFunction*%
%TA.AperFunction,SMDPad,CuDef*%
%TO.P,SW8,24,24*%
%TO.N,Net-(SW8-Pad1)*%
G36*
X203104380Y-86665982D02*
G01*
X202303158Y-86155547D01*
X203001648Y-85059138D01*
X203802870Y-85569573D01*
X203104380Y-86665982D01*
G37*
%TD.AperFunction*%
D10*
%TO.P,SW8,26,26*%
%TO.N,Net-(SW14-Pad14)*%
X211683600Y-91036600D03*
%TO.P,SW8,21,gnd*%
%TO.N,Net-(SW1-Pad11)*%
X212826600Y-87988600D03*
%TO.P,SW8,20,din*%
%TO.N,Net-(SW7-Pad10)*%
X212826600Y-85829600D03*
%TO.P,SW8,19,vcc*%
%TO.N,Net-(SW1-Pad16)*%
X213207600Y-80749600D03*
%TO.P,SW8,17,dout*%
%TO.N,Net-(SW8-Pad10)*%
X200761600Y-86464600D03*
%TO.P,SW8,14,14*%
%TO.N,Net-(SW14-Pad14)*%
X212318600Y-75796600D03*
%TO.P,SW8,13,13*%
%TO.N,Net-(SW10-Pad13)*%
X199745600Y-75796600D03*
%TO.P,SW8,15,15*%
X214985600Y-75796600D03*
D11*
%TO.P,SW8,10,Dout*%
%TO.N,Net-(SW8-Pad10)*%
X204778600Y-89258600D03*
%TO.P,SW8,9,Vdd*%
%TO.N,Net-(SW1-Pad16)*%
X204778600Y-87758600D03*
%TO.P,SW8,11,VSS*%
%TO.N,Net-(SW1-Pad11)*%
X209778600Y-89258600D03*
%TO.P,SW8,12,Din*%
%TO.N,Net-(SW7-Pad10)*%
X209778600Y-87758600D03*
D12*
%TO.P,SW8,1,1*%
%TO.N,Net-(SW8-Pad1)*%
X200005600Y-80876600D03*
%TO.P,SW8,2,2*%
%TO.N,Net-(SW10-Pad13)*%
X213455600Y-78336600D03*
%TD*%
%TA.AperFunction,SMDPad,CuDef*%
%TO.P,SW8,25,25*%
%TO.N,Net-(SW14-Pad14)*%
G36*
X182146966Y-89660022D02*
G01*
X181345744Y-89149587D01*
X182044234Y-88053178D01*
X182845456Y-88563613D01*
X182146966Y-89660022D01*
G37*
%TD.AperFunction*%
%TA.AperFunction,SMDPad,CuDef*%
%TO.P,SW8,24,24*%
%TO.N,Net-(SW8-Pad1)*%
G36*
X184054380Y-86665982D02*
G01*
X183253158Y-86155547D01*
X183951648Y-85059138D01*
X184752870Y-85569573D01*
X184054380Y-86665982D01*
G37*
%TD.AperFunction*%
D10*
%TO.P,SW8,26,26*%
%TO.N,Net-(SW14-Pad14)*%
X192633600Y-91036600D03*
%TO.P,SW8,21,gnd*%
%TO.N,Net-(SW1-Pad11)*%
X193776600Y-87988600D03*
%TO.P,SW8,20,din*%
%TO.N,Net-(SW7-Pad10)*%
X193776600Y-85829600D03*
%TO.P,SW8,19,vcc*%
%TO.N,Net-(SW1-Pad16)*%
X194157600Y-80749600D03*
%TO.P,SW8,17,dout*%
%TO.N,Net-(SW8-Pad10)*%
X181711600Y-86464600D03*
%TO.P,SW8,14,14*%
%TO.N,Net-(SW14-Pad14)*%
X193268600Y-75796600D03*
%TO.P,SW8,13,13*%
%TO.N,Net-(SW10-Pad13)*%
X180695600Y-75796600D03*
%TO.P,SW8,15,15*%
X195935600Y-75796600D03*
D11*
%TO.P,SW8,10,Dout*%
%TO.N,Net-(SW8-Pad10)*%
X185728600Y-89258600D03*
%TO.P,SW8,9,Vdd*%
%TO.N,Net-(SW1-Pad16)*%
X185728600Y-87758600D03*
%TO.P,SW8,11,VSS*%
%TO.N,Net-(SW1-Pad11)*%
X190728600Y-89258600D03*
%TO.P,SW8,12,Din*%
%TO.N,Net-(SW7-Pad10)*%
X190728600Y-87758600D03*
D12*
%TO.P,SW8,1,1*%
%TO.N,Net-(SW8-Pad1)*%
X180955600Y-80876600D03*
%TO.P,SW8,2,2*%
%TO.N,Net-(SW10-Pad13)*%
X194405600Y-78336600D03*
%TD*%
%TA.AperFunction,SMDPad,CuDef*%
%TO.P,SW8,25,25*%
%TO.N,Net-(SW14-Pad14)*%
G36*
X163096966Y-89660022D02*
G01*
X162295744Y-89149587D01*
X162994234Y-88053178D01*
X163795456Y-88563613D01*
X163096966Y-89660022D01*
G37*
%TD.AperFunction*%
%TA.AperFunction,SMDPad,CuDef*%
%TO.P,SW8,24,24*%
%TO.N,Net-(SW8-Pad1)*%
G36*
X165004380Y-86665982D02*
G01*
X164203158Y-86155547D01*
X164901648Y-85059138D01*
X165702870Y-85569573D01*
X165004380Y-86665982D01*
G37*
%TD.AperFunction*%
D10*
%TO.P,SW8,26,26*%
%TO.N,Net-(SW14-Pad14)*%
X173583600Y-91036600D03*
%TO.P,SW8,21,gnd*%
%TO.N,Net-(SW1-Pad11)*%
X174726600Y-87988600D03*
%TO.P,SW8,20,din*%
%TO.N,Net-(SW7-Pad10)*%
X174726600Y-85829600D03*
%TO.P,SW8,19,vcc*%
%TO.N,Net-(SW1-Pad16)*%
X175107600Y-80749600D03*
%TO.P,SW8,17,dout*%
%TO.N,Net-(SW8-Pad10)*%
X162661600Y-86464600D03*
%TO.P,SW8,14,14*%
%TO.N,Net-(SW14-Pad14)*%
X174218600Y-75796600D03*
%TO.P,SW8,13,13*%
%TO.N,Net-(SW10-Pad13)*%
X161645600Y-75796600D03*
%TO.P,SW8,15,15*%
X176885600Y-75796600D03*
D11*
%TO.P,SW8,10,Dout*%
%TO.N,Net-(SW8-Pad10)*%
X166678600Y-89258600D03*
%TO.P,SW8,9,Vdd*%
%TO.N,Net-(SW1-Pad16)*%
X166678600Y-87758600D03*
%TO.P,SW8,11,VSS*%
%TO.N,Net-(SW1-Pad11)*%
X171678600Y-89258600D03*
%TO.P,SW8,12,Din*%
%TO.N,Net-(SW7-Pad10)*%
X171678600Y-87758600D03*
D12*
%TO.P,SW8,1,1*%
%TO.N,Net-(SW8-Pad1)*%
X161905600Y-80876600D03*
%TO.P,SW8,2,2*%
%TO.N,Net-(SW10-Pad13)*%
X175355600Y-78336600D03*
%TD*%
%TA.AperFunction,SMDPad,CuDef*%
%TO.P,SW8,25,25*%
%TO.N,Net-(SW14-Pad14)*%
G36*
X144046966Y-89660022D02*
G01*
X143245744Y-89149587D01*
X143944234Y-88053178D01*
X144745456Y-88563613D01*
X144046966Y-89660022D01*
G37*
%TD.AperFunction*%
%TA.AperFunction,SMDPad,CuDef*%
%TO.P,SW8,24,24*%
%TO.N,Net-(SW8-Pad1)*%
G36*
X145954380Y-86665982D02*
G01*
X145153158Y-86155547D01*
X145851648Y-85059138D01*
X146652870Y-85569573D01*
X145954380Y-86665982D01*
G37*
%TD.AperFunction*%
D10*
%TO.P,SW8,26,26*%
%TO.N,Net-(SW14-Pad14)*%
X154533600Y-91036600D03*
%TO.P,SW8,21,gnd*%
%TO.N,Net-(SW1-Pad11)*%
X155676600Y-87988600D03*
%TO.P,SW8,20,din*%
%TO.N,Net-(SW7-Pad10)*%
X155676600Y-85829600D03*
%TO.P,SW8,19,vcc*%
%TO.N,Net-(SW1-Pad16)*%
X156057600Y-80749600D03*
%TO.P,SW8,17,dout*%
%TO.N,Net-(SW8-Pad10)*%
X143611600Y-86464600D03*
%TO.P,SW8,14,14*%
%TO.N,Net-(SW14-Pad14)*%
X155168600Y-75796600D03*
%TO.P,SW8,13,13*%
%TO.N,Net-(SW10-Pad13)*%
X142595600Y-75796600D03*
%TO.P,SW8,15,15*%
X157835600Y-75796600D03*
D11*
%TO.P,SW8,10,Dout*%
%TO.N,Net-(SW8-Pad10)*%
X147628600Y-89258600D03*
%TO.P,SW8,9,Vdd*%
%TO.N,Net-(SW1-Pad16)*%
X147628600Y-87758600D03*
%TO.P,SW8,11,VSS*%
%TO.N,Net-(SW1-Pad11)*%
X152628600Y-89258600D03*
%TO.P,SW8,12,Din*%
%TO.N,Net-(SW7-Pad10)*%
X152628600Y-87758600D03*
D12*
%TO.P,SW8,1,1*%
%TO.N,Net-(SW8-Pad1)*%
X142855600Y-80876600D03*
%TO.P,SW8,2,2*%
%TO.N,Net-(SW10-Pad13)*%
X156305600Y-78336600D03*
%TD*%
%TA.AperFunction,SMDPad,CuDef*%
%TO.P,SW8,25,25*%
%TO.N,Net-(SW14-Pad14)*%
G36*
X124996966Y-89660022D02*
G01*
X124195744Y-89149587D01*
X124894234Y-88053178D01*
X125695456Y-88563613D01*
X124996966Y-89660022D01*
G37*
%TD.AperFunction*%
%TA.AperFunction,SMDPad,CuDef*%
%TO.P,SW8,24,24*%
%TO.N,Net-(SW8-Pad1)*%
G36*
X126904380Y-86665982D02*
G01*
X126103158Y-86155547D01*
X126801648Y-85059138D01*
X127602870Y-85569573D01*
X126904380Y-86665982D01*
G37*
%TD.AperFunction*%
D10*
%TO.P,SW8,26,26*%
%TO.N,Net-(SW14-Pad14)*%
X135483600Y-91036600D03*
%TO.P,SW8,21,gnd*%
%TO.N,Net-(SW1-Pad11)*%
X136626600Y-87988600D03*
%TO.P,SW8,20,din*%
%TO.N,Net-(SW7-Pad10)*%
X136626600Y-85829600D03*
%TO.P,SW8,19,vcc*%
%TO.N,Net-(SW1-Pad16)*%
X137007600Y-80749600D03*
%TO.P,SW8,17,dout*%
%TO.N,Net-(SW8-Pad10)*%
X124561600Y-86464600D03*
%TO.P,SW8,14,14*%
%TO.N,Net-(SW14-Pad14)*%
X136118600Y-75796600D03*
%TO.P,SW8,13,13*%
%TO.N,Net-(SW10-Pad13)*%
X123545600Y-75796600D03*
%TO.P,SW8,15,15*%
X138785600Y-75796600D03*
D11*
%TO.P,SW8,10,Dout*%
%TO.N,Net-(SW8-Pad10)*%
X128578600Y-89258600D03*
%TO.P,SW8,9,Vdd*%
%TO.N,Net-(SW1-Pad16)*%
X128578600Y-87758600D03*
%TO.P,SW8,11,VSS*%
%TO.N,Net-(SW1-Pad11)*%
X133578600Y-89258600D03*
%TO.P,SW8,12,Din*%
%TO.N,Net-(SW7-Pad10)*%
X133578600Y-87758600D03*
D12*
%TO.P,SW8,1,1*%
%TO.N,Net-(SW8-Pad1)*%
X123805600Y-80876600D03*
%TO.P,SW8,2,2*%
%TO.N,Net-(SW10-Pad13)*%
X137255600Y-78336600D03*
%TD*%
%TA.AperFunction,SMDPad,CuDef*%
%TO.P,SW8,25,25*%
%TO.N,Net-(SW14-Pad14)*%
G36*
X220246966Y-70610022D02*
G01*
X219445744Y-70099587D01*
X220144234Y-69003178D01*
X220945456Y-69513613D01*
X220246966Y-70610022D01*
G37*
%TD.AperFunction*%
%TA.AperFunction,SMDPad,CuDef*%
%TO.P,SW8,24,24*%
%TO.N,Net-(SW8-Pad1)*%
G36*
X222154380Y-67615982D02*
G01*
X221353158Y-67105547D01*
X222051648Y-66009138D01*
X222852870Y-66519573D01*
X222154380Y-67615982D01*
G37*
%TD.AperFunction*%
D10*
%TO.P,SW8,26,26*%
%TO.N,Net-(SW14-Pad14)*%
X230733600Y-71986600D03*
%TO.P,SW8,21,gnd*%
%TO.N,Net-(SW1-Pad11)*%
X231876600Y-68938600D03*
%TO.P,SW8,20,din*%
%TO.N,Net-(SW7-Pad10)*%
X231876600Y-66779600D03*
%TO.P,SW8,19,vcc*%
%TO.N,Net-(SW1-Pad16)*%
X232257600Y-61699600D03*
%TO.P,SW8,17,dout*%
%TO.N,Net-(SW8-Pad10)*%
X219811600Y-67414600D03*
%TO.P,SW8,14,14*%
%TO.N,Net-(SW14-Pad14)*%
X231368600Y-56746600D03*
%TO.P,SW8,13,13*%
%TO.N,Net-(SW10-Pad13)*%
X218795600Y-56746600D03*
%TO.P,SW8,15,15*%
X234035600Y-56746600D03*
D11*
%TO.P,SW8,10,Dout*%
%TO.N,Net-(SW8-Pad10)*%
X223828600Y-70208600D03*
%TO.P,SW8,9,Vdd*%
%TO.N,Net-(SW1-Pad16)*%
X223828600Y-68708600D03*
%TO.P,SW8,11,VSS*%
%TO.N,Net-(SW1-Pad11)*%
X228828600Y-70208600D03*
%TO.P,SW8,12,Din*%
%TO.N,Net-(SW7-Pad10)*%
X228828600Y-68708600D03*
D12*
%TO.P,SW8,1,1*%
%TO.N,Net-(SW8-Pad1)*%
X219055600Y-61826600D03*
%TO.P,SW8,2,2*%
%TO.N,Net-(SW10-Pad13)*%
X232505600Y-59286600D03*
%TD*%
%TA.AperFunction,SMDPad,CuDef*%
%TO.P,SW8,25,25*%
%TO.N,Net-(SW14-Pad14)*%
G36*
X201196966Y-70610022D02*
G01*
X200395744Y-70099587D01*
X201094234Y-69003178D01*
X201895456Y-69513613D01*
X201196966Y-70610022D01*
G37*
%TD.AperFunction*%
%TA.AperFunction,SMDPad,CuDef*%
%TO.P,SW8,24,24*%
%TO.N,Net-(SW8-Pad1)*%
G36*
X203104380Y-67615982D02*
G01*
X202303158Y-67105547D01*
X203001648Y-66009138D01*
X203802870Y-66519573D01*
X203104380Y-67615982D01*
G37*
%TD.AperFunction*%
D10*
%TO.P,SW8,26,26*%
%TO.N,Net-(SW14-Pad14)*%
X211683600Y-71986600D03*
%TO.P,SW8,21,gnd*%
%TO.N,Net-(SW1-Pad11)*%
X212826600Y-68938600D03*
%TO.P,SW8,20,din*%
%TO.N,Net-(SW7-Pad10)*%
X212826600Y-66779600D03*
%TO.P,SW8,19,vcc*%
%TO.N,Net-(SW1-Pad16)*%
X213207600Y-61699600D03*
%TO.P,SW8,17,dout*%
%TO.N,Net-(SW8-Pad10)*%
X200761600Y-67414600D03*
%TO.P,SW8,14,14*%
%TO.N,Net-(SW14-Pad14)*%
X212318600Y-56746600D03*
%TO.P,SW8,13,13*%
%TO.N,Net-(SW10-Pad13)*%
X199745600Y-56746600D03*
%TO.P,SW8,15,15*%
X214985600Y-56746600D03*
D11*
%TO.P,SW8,10,Dout*%
%TO.N,Net-(SW8-Pad10)*%
X204778600Y-70208600D03*
%TO.P,SW8,9,Vdd*%
%TO.N,Net-(SW1-Pad16)*%
X204778600Y-68708600D03*
%TO.P,SW8,11,VSS*%
%TO.N,Net-(SW1-Pad11)*%
X209778600Y-70208600D03*
%TO.P,SW8,12,Din*%
%TO.N,Net-(SW7-Pad10)*%
X209778600Y-68708600D03*
D12*
%TO.P,SW8,1,1*%
%TO.N,Net-(SW8-Pad1)*%
X200005600Y-61826600D03*
%TO.P,SW8,2,2*%
%TO.N,Net-(SW10-Pad13)*%
X213455600Y-59286600D03*
%TD*%
%TA.AperFunction,SMDPad,CuDef*%
%TO.P,SW8,25,25*%
%TO.N,Net-(SW14-Pad14)*%
G36*
X182146966Y-70610022D02*
G01*
X181345744Y-70099587D01*
X182044234Y-69003178D01*
X182845456Y-69513613D01*
X182146966Y-70610022D01*
G37*
%TD.AperFunction*%
%TA.AperFunction,SMDPad,CuDef*%
%TO.P,SW8,24,24*%
%TO.N,Net-(SW8-Pad1)*%
G36*
X184054380Y-67615982D02*
G01*
X183253158Y-67105547D01*
X183951648Y-66009138D01*
X184752870Y-66519573D01*
X184054380Y-67615982D01*
G37*
%TD.AperFunction*%
D10*
%TO.P,SW8,26,26*%
%TO.N,Net-(SW14-Pad14)*%
X192633600Y-71986600D03*
%TO.P,SW8,21,gnd*%
%TO.N,Net-(SW1-Pad11)*%
X193776600Y-68938600D03*
%TO.P,SW8,20,din*%
%TO.N,Net-(SW7-Pad10)*%
X193776600Y-66779600D03*
%TO.P,SW8,19,vcc*%
%TO.N,Net-(SW1-Pad16)*%
X194157600Y-61699600D03*
%TO.P,SW8,17,dout*%
%TO.N,Net-(SW8-Pad10)*%
X181711600Y-67414600D03*
%TO.P,SW8,14,14*%
%TO.N,Net-(SW14-Pad14)*%
X193268600Y-56746600D03*
%TO.P,SW8,13,13*%
%TO.N,Net-(SW10-Pad13)*%
X180695600Y-56746600D03*
%TO.P,SW8,15,15*%
X195935600Y-56746600D03*
D11*
%TO.P,SW8,10,Dout*%
%TO.N,Net-(SW8-Pad10)*%
X185728600Y-70208600D03*
%TO.P,SW8,9,Vdd*%
%TO.N,Net-(SW1-Pad16)*%
X185728600Y-68708600D03*
%TO.P,SW8,11,VSS*%
%TO.N,Net-(SW1-Pad11)*%
X190728600Y-70208600D03*
%TO.P,SW8,12,Din*%
%TO.N,Net-(SW7-Pad10)*%
X190728600Y-68708600D03*
D12*
%TO.P,SW8,1,1*%
%TO.N,Net-(SW8-Pad1)*%
X180955600Y-61826600D03*
%TO.P,SW8,2,2*%
%TO.N,Net-(SW10-Pad13)*%
X194405600Y-59286600D03*
%TD*%
%TA.AperFunction,SMDPad,CuDef*%
%TO.P,SW8,25,25*%
%TO.N,Net-(SW14-Pad14)*%
G36*
X163096966Y-70610022D02*
G01*
X162295744Y-70099587D01*
X162994234Y-69003178D01*
X163795456Y-69513613D01*
X163096966Y-70610022D01*
G37*
%TD.AperFunction*%
%TA.AperFunction,SMDPad,CuDef*%
%TO.P,SW8,24,24*%
%TO.N,Net-(SW8-Pad1)*%
G36*
X165004380Y-67615982D02*
G01*
X164203158Y-67105547D01*
X164901648Y-66009138D01*
X165702870Y-66519573D01*
X165004380Y-67615982D01*
G37*
%TD.AperFunction*%
D10*
%TO.P,SW8,26,26*%
%TO.N,Net-(SW14-Pad14)*%
X173583600Y-71986600D03*
%TO.P,SW8,21,gnd*%
%TO.N,Net-(SW1-Pad11)*%
X174726600Y-68938600D03*
%TO.P,SW8,20,din*%
%TO.N,Net-(SW7-Pad10)*%
X174726600Y-66779600D03*
%TO.P,SW8,19,vcc*%
%TO.N,Net-(SW1-Pad16)*%
X175107600Y-61699600D03*
%TO.P,SW8,17,dout*%
%TO.N,Net-(SW8-Pad10)*%
X162661600Y-67414600D03*
%TO.P,SW8,14,14*%
%TO.N,Net-(SW14-Pad14)*%
X174218600Y-56746600D03*
%TO.P,SW8,13,13*%
%TO.N,Net-(SW10-Pad13)*%
X161645600Y-56746600D03*
%TO.P,SW8,15,15*%
X176885600Y-56746600D03*
D11*
%TO.P,SW8,10,Dout*%
%TO.N,Net-(SW8-Pad10)*%
X166678600Y-70208600D03*
%TO.P,SW8,9,Vdd*%
%TO.N,Net-(SW1-Pad16)*%
X166678600Y-68708600D03*
%TO.P,SW8,11,VSS*%
%TO.N,Net-(SW1-Pad11)*%
X171678600Y-70208600D03*
%TO.P,SW8,12,Din*%
%TO.N,Net-(SW7-Pad10)*%
X171678600Y-68708600D03*
D12*
%TO.P,SW8,1,1*%
%TO.N,Net-(SW8-Pad1)*%
X161905600Y-61826600D03*
%TO.P,SW8,2,2*%
%TO.N,Net-(SW10-Pad13)*%
X175355600Y-59286600D03*
%TD*%
%TA.AperFunction,SMDPad,CuDef*%
%TO.P,SW8,25,25*%
%TO.N,Net-(SW14-Pad14)*%
G36*
X144046966Y-70610022D02*
G01*
X143245744Y-70099587D01*
X143944234Y-69003178D01*
X144745456Y-69513613D01*
X144046966Y-70610022D01*
G37*
%TD.AperFunction*%
%TA.AperFunction,SMDPad,CuDef*%
%TO.P,SW8,24,24*%
%TO.N,Net-(SW8-Pad1)*%
G36*
X145954380Y-67615982D02*
G01*
X145153158Y-67105547D01*
X145851648Y-66009138D01*
X146652870Y-66519573D01*
X145954380Y-67615982D01*
G37*
%TD.AperFunction*%
D10*
%TO.P,SW8,26,26*%
%TO.N,Net-(SW14-Pad14)*%
X154533600Y-71986600D03*
%TO.P,SW8,21,gnd*%
%TO.N,Net-(SW1-Pad11)*%
X155676600Y-68938600D03*
%TO.P,SW8,20,din*%
%TO.N,Net-(SW7-Pad10)*%
X155676600Y-66779600D03*
%TO.P,SW8,19,vcc*%
%TO.N,Net-(SW1-Pad16)*%
X156057600Y-61699600D03*
%TO.P,SW8,17,dout*%
%TO.N,Net-(SW8-Pad10)*%
X143611600Y-67414600D03*
%TO.P,SW8,14,14*%
%TO.N,Net-(SW14-Pad14)*%
X155168600Y-56746600D03*
%TO.P,SW8,13,13*%
%TO.N,Net-(SW10-Pad13)*%
X142595600Y-56746600D03*
%TO.P,SW8,15,15*%
X157835600Y-56746600D03*
D11*
%TO.P,SW8,10,Dout*%
%TO.N,Net-(SW8-Pad10)*%
X147628600Y-70208600D03*
%TO.P,SW8,9,Vdd*%
%TO.N,Net-(SW1-Pad16)*%
X147628600Y-68708600D03*
%TO.P,SW8,11,VSS*%
%TO.N,Net-(SW1-Pad11)*%
X152628600Y-70208600D03*
%TO.P,SW8,12,Din*%
%TO.N,Net-(SW7-Pad10)*%
X152628600Y-68708600D03*
D12*
%TO.P,SW8,1,1*%
%TO.N,Net-(SW8-Pad1)*%
X142855600Y-61826600D03*
%TO.P,SW8,2,2*%
%TO.N,Net-(SW10-Pad13)*%
X156305600Y-59286600D03*
%TD*%
%TA.AperFunction,SMDPad,CuDef*%
%TO.P,SW8,25,25*%
%TO.N,Net-(SW14-Pad14)*%
G36*
X124996966Y-70610022D02*
G01*
X124195744Y-70099587D01*
X124894234Y-69003178D01*
X125695456Y-69513613D01*
X124996966Y-70610022D01*
G37*
%TD.AperFunction*%
%TA.AperFunction,SMDPad,CuDef*%
%TO.P,SW8,24,24*%
%TO.N,Net-(SW8-Pad1)*%
G36*
X126904380Y-67615982D02*
G01*
X126103158Y-67105547D01*
X126801648Y-66009138D01*
X127602870Y-66519573D01*
X126904380Y-67615982D01*
G37*
%TD.AperFunction*%
D10*
%TO.P,SW8,26,26*%
%TO.N,Net-(SW14-Pad14)*%
X135483600Y-71986600D03*
%TO.P,SW8,21,gnd*%
%TO.N,Net-(SW1-Pad11)*%
X136626600Y-68938600D03*
%TO.P,SW8,20,din*%
%TO.N,Net-(SW7-Pad10)*%
X136626600Y-66779600D03*
%TO.P,SW8,19,vcc*%
%TO.N,Net-(SW1-Pad16)*%
X137007600Y-61699600D03*
%TO.P,SW8,17,dout*%
%TO.N,Net-(SW8-Pad10)*%
X124561600Y-67414600D03*
%TO.P,SW8,14,14*%
%TO.N,Net-(SW14-Pad14)*%
X136118600Y-56746600D03*
%TO.P,SW8,13,13*%
%TO.N,Net-(SW10-Pad13)*%
X123545600Y-56746600D03*
%TO.P,SW8,15,15*%
X138785600Y-56746600D03*
D11*
%TO.P,SW8,10,Dout*%
%TO.N,Net-(SW8-Pad10)*%
X128578600Y-70208600D03*
%TO.P,SW8,9,Vdd*%
%TO.N,Net-(SW1-Pad16)*%
X128578600Y-68708600D03*
%TO.P,SW8,11,VSS*%
%TO.N,Net-(SW1-Pad11)*%
X133578600Y-70208600D03*
%TO.P,SW8,12,Din*%
%TO.N,Net-(SW7-Pad10)*%
X133578600Y-68708600D03*
D12*
%TO.P,SW8,1,1*%
%TO.N,Net-(SW8-Pad1)*%
X123805600Y-61826600D03*
%TO.P,SW8,2,2*%
%TO.N,Net-(SW10-Pad13)*%
X137255600Y-59286600D03*
%TD*%
%TA.AperFunction,SMDPad,CuDef*%
%TO.P,SW8,25,25*%
%TO.N,Net-(SW14-Pad14)*%
G36*
X220246966Y-51560022D02*
G01*
X219445744Y-51049587D01*
X220144234Y-49953178D01*
X220945456Y-50463613D01*
X220246966Y-51560022D01*
G37*
%TD.AperFunction*%
%TA.AperFunction,SMDPad,CuDef*%
%TO.P,SW8,24,24*%
%TO.N,Net-(SW8-Pad1)*%
G36*
X222154380Y-48565982D02*
G01*
X221353158Y-48055547D01*
X222051648Y-46959138D01*
X222852870Y-47469573D01*
X222154380Y-48565982D01*
G37*
%TD.AperFunction*%
D10*
%TO.P,SW8,26,26*%
%TO.N,Net-(SW14-Pad14)*%
X230733600Y-52936600D03*
%TO.P,SW8,21,gnd*%
%TO.N,Net-(SW1-Pad11)*%
X231876600Y-49888600D03*
%TO.P,SW8,20,din*%
%TO.N,Net-(SW7-Pad10)*%
X231876600Y-47729600D03*
%TO.P,SW8,19,vcc*%
%TO.N,Net-(SW1-Pad16)*%
X232257600Y-42649600D03*
%TO.P,SW8,17,dout*%
%TO.N,Net-(SW8-Pad10)*%
X219811600Y-48364600D03*
%TO.P,SW8,14,14*%
%TO.N,Net-(SW14-Pad14)*%
X231368600Y-37696600D03*
%TO.P,SW8,13,13*%
%TO.N,Net-(SW10-Pad13)*%
X218795600Y-37696600D03*
%TO.P,SW8,15,15*%
X234035600Y-37696600D03*
D11*
%TO.P,SW8,10,Dout*%
%TO.N,Net-(SW8-Pad10)*%
X223828600Y-51158600D03*
%TO.P,SW8,9,Vdd*%
%TO.N,Net-(SW1-Pad16)*%
X223828600Y-49658600D03*
%TO.P,SW8,11,VSS*%
%TO.N,Net-(SW1-Pad11)*%
X228828600Y-51158600D03*
%TO.P,SW8,12,Din*%
%TO.N,Net-(SW7-Pad10)*%
X228828600Y-49658600D03*
D12*
%TO.P,SW8,1,1*%
%TO.N,Net-(SW8-Pad1)*%
X219055600Y-42776600D03*
%TO.P,SW8,2,2*%
%TO.N,Net-(SW10-Pad13)*%
X232505600Y-40236600D03*
%TD*%
%TA.AperFunction,SMDPad,CuDef*%
%TO.P,SW8,25,25*%
%TO.N,Net-(SW14-Pad14)*%
G36*
X201196966Y-51560022D02*
G01*
X200395744Y-51049587D01*
X201094234Y-49953178D01*
X201895456Y-50463613D01*
X201196966Y-51560022D01*
G37*
%TD.AperFunction*%
%TA.AperFunction,SMDPad,CuDef*%
%TO.P,SW8,24,24*%
%TO.N,Net-(SW8-Pad1)*%
G36*
X203104380Y-48565982D02*
G01*
X202303158Y-48055547D01*
X203001648Y-46959138D01*
X203802870Y-47469573D01*
X203104380Y-48565982D01*
G37*
%TD.AperFunction*%
D10*
%TO.P,SW8,26,26*%
%TO.N,Net-(SW14-Pad14)*%
X211683600Y-52936600D03*
%TO.P,SW8,21,gnd*%
%TO.N,Net-(SW1-Pad11)*%
X212826600Y-49888600D03*
%TO.P,SW8,20,din*%
%TO.N,Net-(SW7-Pad10)*%
X212826600Y-47729600D03*
%TO.P,SW8,19,vcc*%
%TO.N,Net-(SW1-Pad16)*%
X213207600Y-42649600D03*
%TO.P,SW8,17,dout*%
%TO.N,Net-(SW8-Pad10)*%
X200761600Y-48364600D03*
%TO.P,SW8,14,14*%
%TO.N,Net-(SW14-Pad14)*%
X212318600Y-37696600D03*
%TO.P,SW8,13,13*%
%TO.N,Net-(SW10-Pad13)*%
X199745600Y-37696600D03*
%TO.P,SW8,15,15*%
X214985600Y-37696600D03*
D11*
%TO.P,SW8,10,Dout*%
%TO.N,Net-(SW8-Pad10)*%
X204778600Y-51158600D03*
%TO.P,SW8,9,Vdd*%
%TO.N,Net-(SW1-Pad16)*%
X204778600Y-49658600D03*
%TO.P,SW8,11,VSS*%
%TO.N,Net-(SW1-Pad11)*%
X209778600Y-51158600D03*
%TO.P,SW8,12,Din*%
%TO.N,Net-(SW7-Pad10)*%
X209778600Y-49658600D03*
D12*
%TO.P,SW8,1,1*%
%TO.N,Net-(SW8-Pad1)*%
X200005600Y-42776600D03*
%TO.P,SW8,2,2*%
%TO.N,Net-(SW10-Pad13)*%
X213455600Y-40236600D03*
%TD*%
%TA.AperFunction,SMDPad,CuDef*%
%TO.P,SW8,25,25*%
%TO.N,Net-(SW14-Pad14)*%
G36*
X182146966Y-51560022D02*
G01*
X181345744Y-51049587D01*
X182044234Y-49953178D01*
X182845456Y-50463613D01*
X182146966Y-51560022D01*
G37*
%TD.AperFunction*%
%TA.AperFunction,SMDPad,CuDef*%
%TO.P,SW8,24,24*%
%TO.N,Net-(SW8-Pad1)*%
G36*
X184054380Y-48565982D02*
G01*
X183253158Y-48055547D01*
X183951648Y-46959138D01*
X184752870Y-47469573D01*
X184054380Y-48565982D01*
G37*
%TD.AperFunction*%
D10*
%TO.P,SW8,26,26*%
%TO.N,Net-(SW14-Pad14)*%
X192633600Y-52936600D03*
%TO.P,SW8,21,gnd*%
%TO.N,Net-(SW1-Pad11)*%
X193776600Y-49888600D03*
%TO.P,SW8,20,din*%
%TO.N,Net-(SW7-Pad10)*%
X193776600Y-47729600D03*
%TO.P,SW8,19,vcc*%
%TO.N,Net-(SW1-Pad16)*%
X194157600Y-42649600D03*
%TO.P,SW8,17,dout*%
%TO.N,Net-(SW8-Pad10)*%
X181711600Y-48364600D03*
%TO.P,SW8,14,14*%
%TO.N,Net-(SW14-Pad14)*%
X193268600Y-37696600D03*
%TO.P,SW8,13,13*%
%TO.N,Net-(SW10-Pad13)*%
X180695600Y-37696600D03*
%TO.P,SW8,15,15*%
X195935600Y-37696600D03*
D11*
%TO.P,SW8,10,Dout*%
%TO.N,Net-(SW8-Pad10)*%
X185728600Y-51158600D03*
%TO.P,SW8,9,Vdd*%
%TO.N,Net-(SW1-Pad16)*%
X185728600Y-49658600D03*
%TO.P,SW8,11,VSS*%
%TO.N,Net-(SW1-Pad11)*%
X190728600Y-51158600D03*
%TO.P,SW8,12,Din*%
%TO.N,Net-(SW7-Pad10)*%
X190728600Y-49658600D03*
D12*
%TO.P,SW8,1,1*%
%TO.N,Net-(SW8-Pad1)*%
X180955600Y-42776600D03*
%TO.P,SW8,2,2*%
%TO.N,Net-(SW10-Pad13)*%
X194405600Y-40236600D03*
%TD*%
%TA.AperFunction,SMDPad,CuDef*%
%TO.P,SW8,25,25*%
%TO.N,Net-(SW14-Pad14)*%
G36*
X163096966Y-51560022D02*
G01*
X162295744Y-51049587D01*
X162994234Y-49953178D01*
X163795456Y-50463613D01*
X163096966Y-51560022D01*
G37*
%TD.AperFunction*%
%TA.AperFunction,SMDPad,CuDef*%
%TO.P,SW8,24,24*%
%TO.N,Net-(SW8-Pad1)*%
G36*
X165004380Y-48565982D02*
G01*
X164203158Y-48055547D01*
X164901648Y-46959138D01*
X165702870Y-47469573D01*
X165004380Y-48565982D01*
G37*
%TD.AperFunction*%
D10*
%TO.P,SW8,26,26*%
%TO.N,Net-(SW14-Pad14)*%
X173583600Y-52936600D03*
%TO.P,SW8,21,gnd*%
%TO.N,Net-(SW1-Pad11)*%
X174726600Y-49888600D03*
%TO.P,SW8,20,din*%
%TO.N,Net-(SW7-Pad10)*%
X174726600Y-47729600D03*
%TO.P,SW8,19,vcc*%
%TO.N,Net-(SW1-Pad16)*%
X175107600Y-42649600D03*
%TO.P,SW8,17,dout*%
%TO.N,Net-(SW8-Pad10)*%
X162661600Y-48364600D03*
%TO.P,SW8,14,14*%
%TO.N,Net-(SW14-Pad14)*%
X174218600Y-37696600D03*
%TO.P,SW8,13,13*%
%TO.N,Net-(SW10-Pad13)*%
X161645600Y-37696600D03*
%TO.P,SW8,15,15*%
X176885600Y-37696600D03*
D11*
%TO.P,SW8,10,Dout*%
%TO.N,Net-(SW8-Pad10)*%
X166678600Y-51158600D03*
%TO.P,SW8,9,Vdd*%
%TO.N,Net-(SW1-Pad16)*%
X166678600Y-49658600D03*
%TO.P,SW8,11,VSS*%
%TO.N,Net-(SW1-Pad11)*%
X171678600Y-51158600D03*
%TO.P,SW8,12,Din*%
%TO.N,Net-(SW7-Pad10)*%
X171678600Y-49658600D03*
D12*
%TO.P,SW8,1,1*%
%TO.N,Net-(SW8-Pad1)*%
X161905600Y-42776600D03*
%TO.P,SW8,2,2*%
%TO.N,Net-(SW10-Pad13)*%
X175355600Y-40236600D03*
%TD*%
%TA.AperFunction,SMDPad,CuDef*%
%TO.P,SW8,25,25*%
%TO.N,Net-(SW14-Pad14)*%
G36*
X144046966Y-51560022D02*
G01*
X143245744Y-51049587D01*
X143944234Y-49953178D01*
X144745456Y-50463613D01*
X144046966Y-51560022D01*
G37*
%TD.AperFunction*%
%TA.AperFunction,SMDPad,CuDef*%
%TO.P,SW8,24,24*%
%TO.N,Net-(SW8-Pad1)*%
G36*
X145954380Y-48565982D02*
G01*
X145153158Y-48055547D01*
X145851648Y-46959138D01*
X146652870Y-47469573D01*
X145954380Y-48565982D01*
G37*
%TD.AperFunction*%
D10*
%TO.P,SW8,26,26*%
%TO.N,Net-(SW14-Pad14)*%
X154533600Y-52936600D03*
%TO.P,SW8,21,gnd*%
%TO.N,Net-(SW1-Pad11)*%
X155676600Y-49888600D03*
%TO.P,SW8,20,din*%
%TO.N,Net-(SW7-Pad10)*%
X155676600Y-47729600D03*
%TO.P,SW8,19,vcc*%
%TO.N,Net-(SW1-Pad16)*%
X156057600Y-42649600D03*
%TO.P,SW8,17,dout*%
%TO.N,Net-(SW8-Pad10)*%
X143611600Y-48364600D03*
%TO.P,SW8,14,14*%
%TO.N,Net-(SW14-Pad14)*%
X155168600Y-37696600D03*
%TO.P,SW8,13,13*%
%TO.N,Net-(SW10-Pad13)*%
X142595600Y-37696600D03*
%TO.P,SW8,15,15*%
X157835600Y-37696600D03*
D11*
%TO.P,SW8,10,Dout*%
%TO.N,Net-(SW8-Pad10)*%
X147628600Y-51158600D03*
%TO.P,SW8,9,Vdd*%
%TO.N,Net-(SW1-Pad16)*%
X147628600Y-49658600D03*
%TO.P,SW8,11,VSS*%
%TO.N,Net-(SW1-Pad11)*%
X152628600Y-51158600D03*
%TO.P,SW8,12,Din*%
%TO.N,Net-(SW7-Pad10)*%
X152628600Y-49658600D03*
D12*
%TO.P,SW8,1,1*%
%TO.N,Net-(SW8-Pad1)*%
X142855600Y-42776600D03*
%TO.P,SW8,2,2*%
%TO.N,Net-(SW10-Pad13)*%
X156305600Y-40236600D03*
%TD*%
%TO.P,SW8,2,2*%
%TO.N,Net-(SW10-Pad13)*%
X137255600Y-40236600D03*
%TO.P,SW8,1,1*%
%TO.N,Net-(SW8-Pad1)*%
X123805600Y-42776600D03*
D11*
%TO.P,SW8,12,Din*%
%TO.N,Net-(SW7-Pad10)*%
X133578600Y-49658600D03*
%TO.P,SW8,11,VSS*%
%TO.N,Net-(SW1-Pad11)*%
X133578600Y-51158600D03*
%TO.P,SW8,9,Vdd*%
%TO.N,Net-(SW1-Pad16)*%
X128578600Y-49658600D03*
%TO.P,SW8,10,Dout*%
%TO.N,Net-(SW8-Pad10)*%
X128578600Y-51158600D03*
D10*
%TO.P,SW8,15,15*%
%TO.N,Net-(SW10-Pad13)*%
X138785600Y-37696600D03*
%TO.P,SW8,13,13*%
X123545600Y-37696600D03*
%TO.P,SW8,14,14*%
%TO.N,Net-(SW14-Pad14)*%
X136118600Y-37696600D03*
%TO.P,SW8,17,dout*%
%TO.N,Net-(SW8-Pad10)*%
X124561600Y-48364600D03*
%TO.P,SW8,19,vcc*%
%TO.N,Net-(SW1-Pad16)*%
X137007600Y-42649600D03*
%TO.P,SW8,20,din*%
%TO.N,Net-(SW7-Pad10)*%
X136626600Y-47729600D03*
%TO.P,SW8,21,gnd*%
%TO.N,Net-(SW1-Pad11)*%
X136626600Y-49888600D03*
%TO.P,SW8,26,26*%
%TO.N,Net-(SW14-Pad14)*%
X135483600Y-52936600D03*
%TA.AperFunction,SMDPad,CuDef*%
%TO.P,SW8,24,24*%
%TO.N,Net-(SW8-Pad1)*%
G36*
X126904380Y-48565982D02*
G01*
X126103158Y-48055547D01*
X126801648Y-46959138D01*
X127602870Y-47469573D01*
X126904380Y-48565982D01*
G37*
%TD.AperFunction*%
%TA.AperFunction,SMDPad,CuDef*%
%TO.P,SW8,25,25*%
%TO.N,Net-(SW14-Pad14)*%
G36*
X124996966Y-51560022D02*
G01*
X124195744Y-51049587D01*
X124894234Y-49953178D01*
X125695456Y-50463613D01*
X124996966Y-51560022D01*
G37*
%TD.AperFunction*%
%TD*%
D13*
%TO.N,Net-(SW1-Pad11)*%
X229082600Y-147421600D03*
X210032600Y-147421600D03*
X190982600Y-147421600D03*
X171932600Y-147421600D03*
X152882600Y-147421600D03*
X133832600Y-147421600D03*
X229082600Y-128371600D03*
X210032600Y-128371600D03*
X190982600Y-128371600D03*
X171932600Y-128371600D03*
X152882600Y-128371600D03*
X133832600Y-128371600D03*
X229082600Y-109321600D03*
X210032600Y-109321600D03*
X190982600Y-109321600D03*
X171932600Y-109321600D03*
X152882600Y-109321600D03*
X133832600Y-109321600D03*
X229082600Y-90271600D03*
X210032600Y-90271600D03*
X190982600Y-90271600D03*
X171932600Y-90271600D03*
X152882600Y-90271600D03*
X133832600Y-90271600D03*
X229082600Y-71221600D03*
X210032600Y-71221600D03*
X190982600Y-71221600D03*
X171932600Y-71221600D03*
X152882600Y-71221600D03*
X133832600Y-71221600D03*
X229082600Y-52171600D03*
X210032600Y-52171600D03*
X190982600Y-52171600D03*
X171932600Y-52171600D03*
X152882600Y-52171600D03*
%TO.N,Net-(SW1-Pad16)*%
X224434938Y-143052262D03*
X205384938Y-143052262D03*
X186334938Y-143052262D03*
X167284938Y-143052262D03*
X148234938Y-143052262D03*
X129184938Y-143052262D03*
X224434938Y-124002262D03*
X205384938Y-124002262D03*
X186334938Y-124002262D03*
X167284938Y-124002262D03*
X148234938Y-124002262D03*
X129184938Y-124002262D03*
X224434938Y-104952262D03*
X205384938Y-104952262D03*
X186334938Y-104952262D03*
X167284938Y-104952262D03*
X148234938Y-104952262D03*
X129184938Y-104952262D03*
X224434938Y-85902262D03*
X205384938Y-85902262D03*
X186334938Y-85902262D03*
X167284938Y-85902262D03*
X148234938Y-85902262D03*
X129184938Y-85902262D03*
X224434938Y-66852262D03*
X205384938Y-66852262D03*
X186334938Y-66852262D03*
X167284938Y-66852262D03*
X148234938Y-66852262D03*
X129184938Y-66852262D03*
X224434938Y-47802262D03*
X205384938Y-47802262D03*
X186334938Y-47802262D03*
X167284938Y-47802262D03*
X148234938Y-47802262D03*
%TO.N,Net-(SW1-Pad11)*%
X222859600Y-141833600D03*
X203809600Y-141833600D03*
X184759600Y-141833600D03*
X165709600Y-141833600D03*
X146659600Y-141833600D03*
X127609600Y-141833600D03*
X222859600Y-122783600D03*
X203809600Y-122783600D03*
X184759600Y-122783600D03*
X165709600Y-122783600D03*
X146659600Y-122783600D03*
X127609600Y-122783600D03*
X222859600Y-103733600D03*
X203809600Y-103733600D03*
X184759600Y-103733600D03*
X165709600Y-103733600D03*
X146659600Y-103733600D03*
X127609600Y-103733600D03*
X222859600Y-84683600D03*
X203809600Y-84683600D03*
X184759600Y-84683600D03*
X165709600Y-84683600D03*
X146659600Y-84683600D03*
X127609600Y-84683600D03*
X222859600Y-65633600D03*
X203809600Y-65633600D03*
X184759600Y-65633600D03*
X165709600Y-65633600D03*
X146659600Y-65633600D03*
X127609600Y-65633600D03*
X222859600Y-46583600D03*
X203809600Y-46583600D03*
X184759600Y-46583600D03*
X165709600Y-46583600D03*
X146659600Y-46583600D03*
X228701600Y-138785600D03*
X209651600Y-138785600D03*
X190601600Y-138785600D03*
X171551600Y-138785600D03*
X152501600Y-138785600D03*
X133451600Y-138785600D03*
X228701600Y-119735600D03*
X209651600Y-119735600D03*
X190601600Y-119735600D03*
X171551600Y-119735600D03*
X152501600Y-119735600D03*
X133451600Y-119735600D03*
X228701600Y-100685600D03*
X209651600Y-100685600D03*
X190601600Y-100685600D03*
X171551600Y-100685600D03*
X152501600Y-100685600D03*
X133451600Y-100685600D03*
X228701600Y-81635600D03*
X209651600Y-81635600D03*
X190601600Y-81635600D03*
X171551600Y-81635600D03*
X152501600Y-81635600D03*
X133451600Y-81635600D03*
X228701600Y-62585600D03*
X209651600Y-62585600D03*
X190601600Y-62585600D03*
X171551600Y-62585600D03*
X152501600Y-62585600D03*
X133451600Y-62585600D03*
X228701600Y-43535600D03*
X209651600Y-43535600D03*
X190601600Y-43535600D03*
X171551600Y-43535600D03*
X152501600Y-43535600D03*
%TO.N,Net-(SW1-Pad16)*%
X225526600Y-137978601D03*
X206476600Y-137978601D03*
X187426600Y-137978601D03*
X168376600Y-137978601D03*
X149326600Y-137978601D03*
X130276600Y-137978601D03*
X225526600Y-118928601D03*
X206476600Y-118928601D03*
X187426600Y-118928601D03*
X168376600Y-118928601D03*
X149326600Y-118928601D03*
X130276600Y-118928601D03*
X225526600Y-99878601D03*
X206476600Y-99878601D03*
X187426600Y-99878601D03*
X168376600Y-99878601D03*
X149326600Y-99878601D03*
X130276600Y-99878601D03*
X225526600Y-80828601D03*
X206476600Y-80828601D03*
X187426600Y-80828601D03*
X168376600Y-80828601D03*
X149326600Y-80828601D03*
X130276600Y-80828601D03*
X225526600Y-61778601D03*
X206476600Y-61778601D03*
X187426600Y-61778601D03*
X168376600Y-61778601D03*
X149326600Y-61778601D03*
X130276600Y-61778601D03*
X225526600Y-42728601D03*
X206476600Y-42728601D03*
X187426600Y-42728601D03*
X168376600Y-42728601D03*
X149326600Y-42728601D03*
%TO.N,Net-(SW10-Pad13)*%
X218795600Y-135864600D03*
X199745600Y-135864600D03*
X180695600Y-135864600D03*
X161645600Y-135864600D03*
X142595600Y-135864600D03*
X123545600Y-135864600D03*
X218795600Y-116814600D03*
X199745600Y-116814600D03*
X180695600Y-116814600D03*
X161645600Y-116814600D03*
X142595600Y-116814600D03*
X123545600Y-116814600D03*
X218795600Y-97764600D03*
X199745600Y-97764600D03*
X180695600Y-97764600D03*
X161645600Y-97764600D03*
X142595600Y-97764600D03*
X123545600Y-97764600D03*
X218795600Y-78714600D03*
X199745600Y-78714600D03*
X180695600Y-78714600D03*
X161645600Y-78714600D03*
X142595600Y-78714600D03*
X123545600Y-78714600D03*
X218795600Y-59664600D03*
X199745600Y-59664600D03*
X180695600Y-59664600D03*
X161645600Y-59664600D03*
X142595600Y-59664600D03*
X123545600Y-59664600D03*
X218795600Y-40614600D03*
X199745600Y-40614600D03*
X180695600Y-40614600D03*
X161645600Y-40614600D03*
X142595600Y-40614600D03*
%TO.N,Net-(SW1-Pad11)*%
X230606600Y-142214600D03*
X211556600Y-142214600D03*
X192506600Y-142214600D03*
X173456600Y-142214600D03*
X154406600Y-142214600D03*
X135356600Y-142214600D03*
X230606600Y-123164600D03*
X211556600Y-123164600D03*
X192506600Y-123164600D03*
X173456600Y-123164600D03*
X154406600Y-123164600D03*
X135356600Y-123164600D03*
X230606600Y-104114600D03*
X211556600Y-104114600D03*
X192506600Y-104114600D03*
X173456600Y-104114600D03*
X154406600Y-104114600D03*
X135356600Y-104114600D03*
X230606600Y-85064600D03*
X211556600Y-85064600D03*
X192506600Y-85064600D03*
X173456600Y-85064600D03*
X154406600Y-85064600D03*
X135356600Y-85064600D03*
X230606600Y-66014600D03*
X211556600Y-66014600D03*
X192506600Y-66014600D03*
X173456600Y-66014600D03*
X154406600Y-66014600D03*
X135356600Y-66014600D03*
X230606600Y-46964600D03*
X211556600Y-46964600D03*
X192506600Y-46964600D03*
X173456600Y-46964600D03*
X154406600Y-46964600D03*
X219176600Y-145262600D03*
X200126600Y-145262600D03*
X181076600Y-145262600D03*
X162026600Y-145262600D03*
X142976600Y-145262600D03*
X123926600Y-145262600D03*
X219176600Y-126212600D03*
X200126600Y-126212600D03*
X181076600Y-126212600D03*
X162026600Y-126212600D03*
X142976600Y-126212600D03*
X123926600Y-126212600D03*
X219176600Y-107162600D03*
X200126600Y-107162600D03*
X181076600Y-107162600D03*
X162026600Y-107162600D03*
X142976600Y-107162600D03*
X123926600Y-107162600D03*
X219176600Y-88112600D03*
X200126600Y-88112600D03*
X181076600Y-88112600D03*
X162026600Y-88112600D03*
X142976600Y-88112600D03*
X123926600Y-88112600D03*
X219176600Y-69062600D03*
X200126600Y-69062600D03*
X181076600Y-69062600D03*
X162026600Y-69062600D03*
X142976600Y-69062600D03*
X123926600Y-69062600D03*
X219176600Y-50012600D03*
X200126600Y-50012600D03*
X181076600Y-50012600D03*
X162026600Y-50012600D03*
X142976600Y-50012600D03*
%TO.N,Net-(SW1-Pad16)*%
X129184938Y-47802262D03*
%TO.N,Net-(SW1-Pad11)*%
X133832600Y-52171600D03*
X123926600Y-50012600D03*
X133451600Y-43535600D03*
%TO.N,Net-(SW1-Pad16)*%
X130276600Y-42728601D03*
%TO.N,Net-(SW1-Pad11)*%
X127609600Y-46583600D03*
X135356600Y-46964600D03*
%TO.N,Net-(SW10-Pad13)*%
X123545600Y-40614600D03*
%TD*%
D14*
%TO.N,Net-(SW8-Pad10)*%
X223828600Y-146408600D02*
X222737010Y-146408600D01*
X204778600Y-146408600D02*
X203687010Y-146408600D01*
X185728600Y-146408600D02*
X184637010Y-146408600D01*
X166678600Y-146408600D02*
X165587010Y-146408600D01*
X147628600Y-146408600D02*
X146537010Y-146408600D01*
X128578600Y-146408600D02*
X127487010Y-146408600D01*
X223828600Y-127358600D02*
X222737010Y-127358600D01*
X204778600Y-127358600D02*
X203687010Y-127358600D01*
X185728600Y-127358600D02*
X184637010Y-127358600D01*
X166678600Y-127358600D02*
X165587010Y-127358600D01*
X147628600Y-127358600D02*
X146537010Y-127358600D01*
X128578600Y-127358600D02*
X127487010Y-127358600D01*
X223828600Y-108308600D02*
X222737010Y-108308600D01*
X204778600Y-108308600D02*
X203687010Y-108308600D01*
X185728600Y-108308600D02*
X184637010Y-108308600D01*
X166678600Y-108308600D02*
X165587010Y-108308600D01*
X147628600Y-108308600D02*
X146537010Y-108308600D01*
X128578600Y-108308600D02*
X127487010Y-108308600D01*
X223828600Y-89258600D02*
X222737010Y-89258600D01*
X204778600Y-89258600D02*
X203687010Y-89258600D01*
X185728600Y-89258600D02*
X184637010Y-89258600D01*
X166678600Y-89258600D02*
X165587010Y-89258600D01*
X147628600Y-89258600D02*
X146537010Y-89258600D01*
X128578600Y-89258600D02*
X127487010Y-89258600D01*
X223828600Y-70208600D02*
X222737010Y-70208600D01*
X204778600Y-70208600D02*
X203687010Y-70208600D01*
X185728600Y-70208600D02*
X184637010Y-70208600D01*
X166678600Y-70208600D02*
X165587010Y-70208600D01*
X147628600Y-70208600D02*
X146537010Y-70208600D01*
X128578600Y-70208600D02*
X127487010Y-70208600D01*
X223828600Y-51158600D02*
X222737010Y-51158600D01*
X204778600Y-51158600D02*
X203687010Y-51158600D01*
X185728600Y-51158600D02*
X184637010Y-51158600D01*
X166678600Y-51158600D02*
X165587010Y-51158600D01*
X147628600Y-51158600D02*
X146537010Y-51158600D01*
X219943010Y-143614600D02*
X219811600Y-143614600D01*
X200893010Y-143614600D02*
X200761600Y-143614600D01*
X181843010Y-143614600D02*
X181711600Y-143614600D01*
X162793010Y-143614600D02*
X162661600Y-143614600D01*
X143743010Y-143614600D02*
X143611600Y-143614600D01*
X124693010Y-143614600D02*
X124561600Y-143614600D01*
X219943010Y-124564600D02*
X219811600Y-124564600D01*
X200893010Y-124564600D02*
X200761600Y-124564600D01*
X181843010Y-124564600D02*
X181711600Y-124564600D01*
X162793010Y-124564600D02*
X162661600Y-124564600D01*
X143743010Y-124564600D02*
X143611600Y-124564600D01*
X124693010Y-124564600D02*
X124561600Y-124564600D01*
X219943010Y-105514600D02*
X219811600Y-105514600D01*
X200893010Y-105514600D02*
X200761600Y-105514600D01*
X181843010Y-105514600D02*
X181711600Y-105514600D01*
X162793010Y-105514600D02*
X162661600Y-105514600D01*
X143743010Y-105514600D02*
X143611600Y-105514600D01*
X124693010Y-105514600D02*
X124561600Y-105514600D01*
X219943010Y-86464600D02*
X219811600Y-86464600D01*
X200893010Y-86464600D02*
X200761600Y-86464600D01*
X181843010Y-86464600D02*
X181711600Y-86464600D01*
X162793010Y-86464600D02*
X162661600Y-86464600D01*
X143743010Y-86464600D02*
X143611600Y-86464600D01*
X124693010Y-86464600D02*
X124561600Y-86464600D01*
X219943010Y-67414600D02*
X219811600Y-67414600D01*
X200893010Y-67414600D02*
X200761600Y-67414600D01*
X181843010Y-67414600D02*
X181711600Y-67414600D01*
X162793010Y-67414600D02*
X162661600Y-67414600D01*
X143743010Y-67414600D02*
X143611600Y-67414600D01*
X124693010Y-67414600D02*
X124561600Y-67414600D01*
X219943010Y-48364600D02*
X219811600Y-48364600D01*
X200893010Y-48364600D02*
X200761600Y-48364600D01*
X181843010Y-48364600D02*
X181711600Y-48364600D01*
X162793010Y-48364600D02*
X162661600Y-48364600D01*
X143743010Y-48364600D02*
X143611600Y-48364600D01*
X222737010Y-146408600D02*
X219943010Y-143614600D01*
X203687010Y-146408600D02*
X200893010Y-143614600D01*
X184637010Y-146408600D02*
X181843010Y-143614600D01*
X165587010Y-146408600D02*
X162793010Y-143614600D01*
X146537010Y-146408600D02*
X143743010Y-143614600D01*
X127487010Y-146408600D02*
X124693010Y-143614600D01*
X222737010Y-127358600D02*
X219943010Y-124564600D01*
X203687010Y-127358600D02*
X200893010Y-124564600D01*
X184637010Y-127358600D02*
X181843010Y-124564600D01*
X165587010Y-127358600D02*
X162793010Y-124564600D01*
X146537010Y-127358600D02*
X143743010Y-124564600D01*
X127487010Y-127358600D02*
X124693010Y-124564600D01*
X222737010Y-108308600D02*
X219943010Y-105514600D01*
X203687010Y-108308600D02*
X200893010Y-105514600D01*
X184637010Y-108308600D02*
X181843010Y-105514600D01*
X165587010Y-108308600D02*
X162793010Y-105514600D01*
X146537010Y-108308600D02*
X143743010Y-105514600D01*
X127487010Y-108308600D02*
X124693010Y-105514600D01*
X222737010Y-89258600D02*
X219943010Y-86464600D01*
X203687010Y-89258600D02*
X200893010Y-86464600D01*
X184637010Y-89258600D02*
X181843010Y-86464600D01*
X165587010Y-89258600D02*
X162793010Y-86464600D01*
X146537010Y-89258600D02*
X143743010Y-86464600D01*
X127487010Y-89258600D02*
X124693010Y-86464600D01*
X222737010Y-70208600D02*
X219943010Y-67414600D01*
X203687010Y-70208600D02*
X200893010Y-67414600D01*
X184637010Y-70208600D02*
X181843010Y-67414600D01*
X165587010Y-70208600D02*
X162793010Y-67414600D01*
X146537010Y-70208600D02*
X143743010Y-67414600D01*
X127487010Y-70208600D02*
X124693010Y-67414600D01*
X222737010Y-51158600D02*
X219943010Y-48364600D01*
X203687010Y-51158600D02*
X200893010Y-48364600D01*
X184637010Y-51158600D02*
X181843010Y-48364600D01*
X165587010Y-51158600D02*
X162793010Y-48364600D01*
X146537010Y-51158600D02*
X143743010Y-48364600D01*
%TO.N,Net-(SW1-Pad11)*%
X230606600Y-146408600D02*
X231876600Y-145138600D01*
X211556600Y-146408600D02*
X212826600Y-145138600D01*
X192506600Y-146408600D02*
X193776600Y-145138600D01*
X173456600Y-146408600D02*
X174726600Y-145138600D01*
X154406600Y-146408600D02*
X155676600Y-145138600D01*
X135356600Y-146408600D02*
X136626600Y-145138600D01*
X230606600Y-127358600D02*
X231876600Y-126088600D01*
X211556600Y-127358600D02*
X212826600Y-126088600D01*
X192506600Y-127358600D02*
X193776600Y-126088600D01*
X173456600Y-127358600D02*
X174726600Y-126088600D01*
X154406600Y-127358600D02*
X155676600Y-126088600D01*
X135356600Y-127358600D02*
X136626600Y-126088600D01*
X230606600Y-108308600D02*
X231876600Y-107038600D01*
X211556600Y-108308600D02*
X212826600Y-107038600D01*
X192506600Y-108308600D02*
X193776600Y-107038600D01*
X173456600Y-108308600D02*
X174726600Y-107038600D01*
X154406600Y-108308600D02*
X155676600Y-107038600D01*
X135356600Y-108308600D02*
X136626600Y-107038600D01*
X230606600Y-89258600D02*
X231876600Y-87988600D01*
X211556600Y-89258600D02*
X212826600Y-87988600D01*
X192506600Y-89258600D02*
X193776600Y-87988600D01*
X173456600Y-89258600D02*
X174726600Y-87988600D01*
X154406600Y-89258600D02*
X155676600Y-87988600D01*
X135356600Y-89258600D02*
X136626600Y-87988600D01*
X230606600Y-70208600D02*
X231876600Y-68938600D01*
X211556600Y-70208600D02*
X212826600Y-68938600D01*
X192506600Y-70208600D02*
X193776600Y-68938600D01*
X173456600Y-70208600D02*
X174726600Y-68938600D01*
X154406600Y-70208600D02*
X155676600Y-68938600D01*
X135356600Y-70208600D02*
X136626600Y-68938600D01*
X230606600Y-51158600D02*
X231876600Y-49888600D01*
X211556600Y-51158600D02*
X212826600Y-49888600D01*
X192506600Y-51158600D02*
X193776600Y-49888600D01*
X173456600Y-51158600D02*
X174726600Y-49888600D01*
X154406600Y-51158600D02*
X155676600Y-49888600D01*
%TO.N,Net-(SW10-Pad13)*%
X232505600Y-135486600D02*
X232505600Y-134476600D01*
X213455600Y-135486600D02*
X213455600Y-134476600D01*
X194405600Y-135486600D02*
X194405600Y-134476600D01*
X175355600Y-135486600D02*
X175355600Y-134476600D01*
X156305600Y-135486600D02*
X156305600Y-134476600D01*
X137255600Y-135486600D02*
X137255600Y-134476600D01*
X232505600Y-116436600D02*
X232505600Y-115426600D01*
X213455600Y-116436600D02*
X213455600Y-115426600D01*
X194405600Y-116436600D02*
X194405600Y-115426600D01*
X175355600Y-116436600D02*
X175355600Y-115426600D01*
X156305600Y-116436600D02*
X156305600Y-115426600D01*
X137255600Y-116436600D02*
X137255600Y-115426600D01*
X232505600Y-97386600D02*
X232505600Y-96376600D01*
X213455600Y-97386600D02*
X213455600Y-96376600D01*
X194405600Y-97386600D02*
X194405600Y-96376600D01*
X175355600Y-97386600D02*
X175355600Y-96376600D01*
X156305600Y-97386600D02*
X156305600Y-96376600D01*
X137255600Y-97386600D02*
X137255600Y-96376600D01*
X232505600Y-78336600D02*
X232505600Y-77326600D01*
X213455600Y-78336600D02*
X213455600Y-77326600D01*
X194405600Y-78336600D02*
X194405600Y-77326600D01*
X175355600Y-78336600D02*
X175355600Y-77326600D01*
X156305600Y-78336600D02*
X156305600Y-77326600D01*
X137255600Y-78336600D02*
X137255600Y-77326600D01*
X232505600Y-59286600D02*
X232505600Y-58276600D01*
X213455600Y-59286600D02*
X213455600Y-58276600D01*
X194405600Y-59286600D02*
X194405600Y-58276600D01*
X175355600Y-59286600D02*
X175355600Y-58276600D01*
X156305600Y-59286600D02*
X156305600Y-58276600D01*
X137255600Y-59286600D02*
X137255600Y-58276600D01*
X232505600Y-40236600D02*
X232505600Y-39226600D01*
X213455600Y-40236600D02*
X213455600Y-39226600D01*
X194405600Y-40236600D02*
X194405600Y-39226600D01*
X175355600Y-40236600D02*
X175355600Y-39226600D01*
X156305600Y-40236600D02*
X156305600Y-39226600D01*
X218795600Y-132946600D02*
X218795600Y-135864600D01*
X199745600Y-132946600D02*
X199745600Y-135864600D01*
X180695600Y-132946600D02*
X180695600Y-135864600D01*
X161645600Y-132946600D02*
X161645600Y-135864600D01*
X142595600Y-132946600D02*
X142595600Y-135864600D01*
X123545600Y-132946600D02*
X123545600Y-135864600D01*
X218795600Y-113896600D02*
X218795600Y-116814600D01*
X199745600Y-113896600D02*
X199745600Y-116814600D01*
X180695600Y-113896600D02*
X180695600Y-116814600D01*
X161645600Y-113896600D02*
X161645600Y-116814600D01*
X142595600Y-113896600D02*
X142595600Y-116814600D01*
X123545600Y-113896600D02*
X123545600Y-116814600D01*
X218795600Y-94846600D02*
X218795600Y-97764600D01*
X199745600Y-94846600D02*
X199745600Y-97764600D01*
X180695600Y-94846600D02*
X180695600Y-97764600D01*
X161645600Y-94846600D02*
X161645600Y-97764600D01*
X142595600Y-94846600D02*
X142595600Y-97764600D01*
X123545600Y-94846600D02*
X123545600Y-97764600D01*
X218795600Y-75796600D02*
X218795600Y-78714600D01*
X199745600Y-75796600D02*
X199745600Y-78714600D01*
X180695600Y-75796600D02*
X180695600Y-78714600D01*
X161645600Y-75796600D02*
X161645600Y-78714600D01*
X142595600Y-75796600D02*
X142595600Y-78714600D01*
X123545600Y-75796600D02*
X123545600Y-78714600D01*
X218795600Y-56746600D02*
X218795600Y-59664600D01*
X199745600Y-56746600D02*
X199745600Y-59664600D01*
X180695600Y-56746600D02*
X180695600Y-59664600D01*
X161645600Y-56746600D02*
X161645600Y-59664600D01*
X142595600Y-56746600D02*
X142595600Y-59664600D01*
X123545600Y-56746600D02*
X123545600Y-59664600D01*
X218795600Y-37696600D02*
X218795600Y-40614600D01*
X199745600Y-37696600D02*
X199745600Y-40614600D01*
X180695600Y-37696600D02*
X180695600Y-40614600D01*
X161645600Y-37696600D02*
X161645600Y-40614600D01*
X142595600Y-37696600D02*
X142595600Y-40614600D01*
X232505600Y-134476600D02*
X234035600Y-132946600D01*
X213455600Y-134476600D02*
X214985600Y-132946600D01*
X194405600Y-134476600D02*
X195935600Y-132946600D01*
X175355600Y-134476600D02*
X176885600Y-132946600D01*
X156305600Y-134476600D02*
X157835600Y-132946600D01*
X137255600Y-134476600D02*
X138785600Y-132946600D01*
X232505600Y-115426600D02*
X234035600Y-113896600D01*
X213455600Y-115426600D02*
X214985600Y-113896600D01*
X194405600Y-115426600D02*
X195935600Y-113896600D01*
X175355600Y-115426600D02*
X176885600Y-113896600D01*
X156305600Y-115426600D02*
X157835600Y-113896600D01*
X137255600Y-115426600D02*
X138785600Y-113896600D01*
X232505600Y-96376600D02*
X234035600Y-94846600D01*
X213455600Y-96376600D02*
X214985600Y-94846600D01*
X194405600Y-96376600D02*
X195935600Y-94846600D01*
X175355600Y-96376600D02*
X176885600Y-94846600D01*
X156305600Y-96376600D02*
X157835600Y-94846600D01*
X137255600Y-96376600D02*
X138785600Y-94846600D01*
X232505600Y-77326600D02*
X234035600Y-75796600D01*
X213455600Y-77326600D02*
X214985600Y-75796600D01*
X194405600Y-77326600D02*
X195935600Y-75796600D01*
X175355600Y-77326600D02*
X176885600Y-75796600D01*
X156305600Y-77326600D02*
X157835600Y-75796600D01*
X137255600Y-77326600D02*
X138785600Y-75796600D01*
X232505600Y-58276600D02*
X234035600Y-56746600D01*
X213455600Y-58276600D02*
X214985600Y-56746600D01*
X194405600Y-58276600D02*
X195935600Y-56746600D01*
X175355600Y-58276600D02*
X176885600Y-56746600D01*
X156305600Y-58276600D02*
X157835600Y-56746600D01*
X137255600Y-58276600D02*
X138785600Y-56746600D01*
X232505600Y-39226600D02*
X234035600Y-37696600D01*
X213455600Y-39226600D02*
X214985600Y-37696600D01*
X194405600Y-39226600D02*
X195935600Y-37696600D01*
X175355600Y-39226600D02*
X176885600Y-37696600D01*
X156305600Y-39226600D02*
X157835600Y-37696600D01*
%TO.N,Net-(SW1-Pad11)*%
X228828600Y-146408600D02*
X230606600Y-146408600D01*
X209778600Y-146408600D02*
X211556600Y-146408600D01*
X190728600Y-146408600D02*
X192506600Y-146408600D01*
X171678600Y-146408600D02*
X173456600Y-146408600D01*
X152628600Y-146408600D02*
X154406600Y-146408600D01*
X133578600Y-146408600D02*
X135356600Y-146408600D01*
X228828600Y-127358600D02*
X230606600Y-127358600D01*
X209778600Y-127358600D02*
X211556600Y-127358600D01*
X190728600Y-127358600D02*
X192506600Y-127358600D01*
X171678600Y-127358600D02*
X173456600Y-127358600D01*
X152628600Y-127358600D02*
X154406600Y-127358600D01*
X133578600Y-127358600D02*
X135356600Y-127358600D01*
X228828600Y-108308600D02*
X230606600Y-108308600D01*
X209778600Y-108308600D02*
X211556600Y-108308600D01*
X190728600Y-108308600D02*
X192506600Y-108308600D01*
X171678600Y-108308600D02*
X173456600Y-108308600D01*
X152628600Y-108308600D02*
X154406600Y-108308600D01*
X133578600Y-108308600D02*
X135356600Y-108308600D01*
X228828600Y-89258600D02*
X230606600Y-89258600D01*
X209778600Y-89258600D02*
X211556600Y-89258600D01*
X190728600Y-89258600D02*
X192506600Y-89258600D01*
X171678600Y-89258600D02*
X173456600Y-89258600D01*
X152628600Y-89258600D02*
X154406600Y-89258600D01*
X133578600Y-89258600D02*
X135356600Y-89258600D01*
X228828600Y-70208600D02*
X230606600Y-70208600D01*
X209778600Y-70208600D02*
X211556600Y-70208600D01*
X190728600Y-70208600D02*
X192506600Y-70208600D01*
X171678600Y-70208600D02*
X173456600Y-70208600D01*
X152628600Y-70208600D02*
X154406600Y-70208600D01*
X133578600Y-70208600D02*
X135356600Y-70208600D01*
X228828600Y-51158600D02*
X230606600Y-51158600D01*
X209778600Y-51158600D02*
X211556600Y-51158600D01*
X190728600Y-51158600D02*
X192506600Y-51158600D01*
X171678600Y-51158600D02*
X173456600Y-51158600D01*
X152628600Y-51158600D02*
X154406600Y-51158600D01*
%TO.N,Net-(SW14-Pad14)*%
X227180600Y-148186600D02*
X226796600Y-147802600D01*
X208130600Y-148186600D02*
X207746600Y-147802600D01*
X189080600Y-148186600D02*
X188696600Y-147802600D01*
X170030600Y-148186600D02*
X169646600Y-147802600D01*
X150980600Y-148186600D02*
X150596600Y-147802600D01*
X131930600Y-148186600D02*
X131546600Y-147802600D01*
X227180600Y-129136600D02*
X226796600Y-128752600D01*
X208130600Y-129136600D02*
X207746600Y-128752600D01*
X189080600Y-129136600D02*
X188696600Y-128752600D01*
X170030600Y-129136600D02*
X169646600Y-128752600D01*
X150980600Y-129136600D02*
X150596600Y-128752600D01*
X131930600Y-129136600D02*
X131546600Y-128752600D01*
X227180600Y-110086600D02*
X226796600Y-109702600D01*
X208130600Y-110086600D02*
X207746600Y-109702600D01*
X189080600Y-110086600D02*
X188696600Y-109702600D01*
X170030600Y-110086600D02*
X169646600Y-109702600D01*
X150980600Y-110086600D02*
X150596600Y-109702600D01*
X131930600Y-110086600D02*
X131546600Y-109702600D01*
X227180600Y-91036600D02*
X226796600Y-90652600D01*
X208130600Y-91036600D02*
X207746600Y-90652600D01*
X189080600Y-91036600D02*
X188696600Y-90652600D01*
X170030600Y-91036600D02*
X169646600Y-90652600D01*
X150980600Y-91036600D02*
X150596600Y-90652600D01*
X131930600Y-91036600D02*
X131546600Y-90652600D01*
X227180600Y-71986600D02*
X226796600Y-71602600D01*
X208130600Y-71986600D02*
X207746600Y-71602600D01*
X189080600Y-71986600D02*
X188696600Y-71602600D01*
X170030600Y-71986600D02*
X169646600Y-71602600D01*
X150980600Y-71986600D02*
X150596600Y-71602600D01*
X131930600Y-71986600D02*
X131546600Y-71602600D01*
X227180600Y-52936600D02*
X226796600Y-52552600D01*
X208130600Y-52936600D02*
X207746600Y-52552600D01*
X189080600Y-52936600D02*
X188696600Y-52552600D01*
X170030600Y-52936600D02*
X169646600Y-52552600D01*
X150980600Y-52936600D02*
X150596600Y-52552600D01*
%TO.N,Net-(SW1-Pad16)*%
X232257600Y-137899600D02*
X225605601Y-137899600D01*
X213207600Y-137899600D02*
X206555601Y-137899600D01*
X194157600Y-137899600D02*
X187505601Y-137899600D01*
X175107600Y-137899600D02*
X168455601Y-137899600D01*
X156057600Y-137899600D02*
X149405601Y-137899600D01*
X137007600Y-137899600D02*
X130355601Y-137899600D01*
X232257600Y-118849600D02*
X225605601Y-118849600D01*
X213207600Y-118849600D02*
X206555601Y-118849600D01*
X194157600Y-118849600D02*
X187505601Y-118849600D01*
X175107600Y-118849600D02*
X168455601Y-118849600D01*
X156057600Y-118849600D02*
X149405601Y-118849600D01*
X137007600Y-118849600D02*
X130355601Y-118849600D01*
X232257600Y-99799600D02*
X225605601Y-99799600D01*
X213207600Y-99799600D02*
X206555601Y-99799600D01*
X194157600Y-99799600D02*
X187505601Y-99799600D01*
X175107600Y-99799600D02*
X168455601Y-99799600D01*
X156057600Y-99799600D02*
X149405601Y-99799600D01*
X137007600Y-99799600D02*
X130355601Y-99799600D01*
X232257600Y-80749600D02*
X225605601Y-80749600D01*
X213207600Y-80749600D02*
X206555601Y-80749600D01*
X194157600Y-80749600D02*
X187505601Y-80749600D01*
X175107600Y-80749600D02*
X168455601Y-80749600D01*
X156057600Y-80749600D02*
X149405601Y-80749600D01*
X137007600Y-80749600D02*
X130355601Y-80749600D01*
X232257600Y-61699600D02*
X225605601Y-61699600D01*
X213207600Y-61699600D02*
X206555601Y-61699600D01*
X194157600Y-61699600D02*
X187505601Y-61699600D01*
X175107600Y-61699600D02*
X168455601Y-61699600D01*
X156057600Y-61699600D02*
X149405601Y-61699600D01*
X137007600Y-61699600D02*
X130355601Y-61699600D01*
X232257600Y-42649600D02*
X225605601Y-42649600D01*
X213207600Y-42649600D02*
X206555601Y-42649600D01*
X194157600Y-42649600D02*
X187505601Y-42649600D01*
X175107600Y-42649600D02*
X168455601Y-42649600D01*
X156057600Y-42649600D02*
X149405601Y-42649600D01*
%TO.N,Net-(SW7-Pad10)*%
X215112600Y-140309600D02*
X216763600Y-140309600D01*
X196062600Y-140309600D02*
X197713600Y-140309600D01*
X177012600Y-140309600D02*
X178663600Y-140309600D01*
X157962600Y-140309600D02*
X159613600Y-140309600D01*
X138912600Y-140309600D02*
X140563600Y-140309600D01*
X215112600Y-121259600D02*
X216763600Y-121259600D01*
X196062600Y-121259600D02*
X197713600Y-121259600D01*
X177012600Y-121259600D02*
X178663600Y-121259600D01*
X157962600Y-121259600D02*
X159613600Y-121259600D01*
X138912600Y-121259600D02*
X140563600Y-121259600D01*
X215112600Y-102209600D02*
X216763600Y-102209600D01*
X196062600Y-102209600D02*
X197713600Y-102209600D01*
X177012600Y-102209600D02*
X178663600Y-102209600D01*
X157962600Y-102209600D02*
X159613600Y-102209600D01*
X138912600Y-102209600D02*
X140563600Y-102209600D01*
X215112600Y-83159600D02*
X216763600Y-83159600D01*
X196062600Y-83159600D02*
X197713600Y-83159600D01*
X177012600Y-83159600D02*
X178663600Y-83159600D01*
X157962600Y-83159600D02*
X159613600Y-83159600D01*
X138912600Y-83159600D02*
X140563600Y-83159600D01*
X215112600Y-64109600D02*
X216763600Y-64109600D01*
X196062600Y-64109600D02*
X197713600Y-64109600D01*
X177012600Y-64109600D02*
X178663600Y-64109600D01*
X157962600Y-64109600D02*
X159613600Y-64109600D01*
X138912600Y-64109600D02*
X140563600Y-64109600D01*
X215112600Y-45059600D02*
X216763600Y-45059600D01*
X196062600Y-45059600D02*
X197713600Y-45059600D01*
X177012600Y-45059600D02*
X178663600Y-45059600D01*
X157962600Y-45059600D02*
X159613600Y-45059600D01*
%TO.N,Net-(SW14-Pad14)*%
X230733600Y-148186600D02*
X227180600Y-148186600D01*
X211683600Y-148186600D02*
X208130600Y-148186600D01*
X192633600Y-148186600D02*
X189080600Y-148186600D01*
X173583600Y-148186600D02*
X170030600Y-148186600D01*
X154533600Y-148186600D02*
X150980600Y-148186600D01*
X135483600Y-148186600D02*
X131930600Y-148186600D01*
X230733600Y-129136600D02*
X227180600Y-129136600D01*
X211683600Y-129136600D02*
X208130600Y-129136600D01*
X192633600Y-129136600D02*
X189080600Y-129136600D01*
X173583600Y-129136600D02*
X170030600Y-129136600D01*
X154533600Y-129136600D02*
X150980600Y-129136600D01*
X135483600Y-129136600D02*
X131930600Y-129136600D01*
X230733600Y-110086600D02*
X227180600Y-110086600D01*
X211683600Y-110086600D02*
X208130600Y-110086600D01*
X192633600Y-110086600D02*
X189080600Y-110086600D01*
X173583600Y-110086600D02*
X170030600Y-110086600D01*
X154533600Y-110086600D02*
X150980600Y-110086600D01*
X135483600Y-110086600D02*
X131930600Y-110086600D01*
X230733600Y-91036600D02*
X227180600Y-91036600D01*
X211683600Y-91036600D02*
X208130600Y-91036600D01*
X192633600Y-91036600D02*
X189080600Y-91036600D01*
X173583600Y-91036600D02*
X170030600Y-91036600D01*
X154533600Y-91036600D02*
X150980600Y-91036600D01*
X135483600Y-91036600D02*
X131930600Y-91036600D01*
X230733600Y-71986600D02*
X227180600Y-71986600D01*
X211683600Y-71986600D02*
X208130600Y-71986600D01*
X192633600Y-71986600D02*
X189080600Y-71986600D01*
X173583600Y-71986600D02*
X170030600Y-71986600D01*
X154533600Y-71986600D02*
X150980600Y-71986600D01*
X135483600Y-71986600D02*
X131930600Y-71986600D01*
X230733600Y-52936600D02*
X227180600Y-52936600D01*
X211683600Y-52936600D02*
X208130600Y-52936600D01*
X192633600Y-52936600D02*
X189080600Y-52936600D01*
X173583600Y-52936600D02*
X170030600Y-52936600D01*
X154533600Y-52936600D02*
X150980600Y-52936600D01*
%TO.N,Net-(SW10-Pad13)*%
X219245611Y-133396611D02*
X229534201Y-133396611D01*
X200195611Y-133396611D02*
X210484201Y-133396611D01*
X181145611Y-133396611D02*
X191434201Y-133396611D01*
X162095611Y-133396611D02*
X172384201Y-133396611D01*
X143045611Y-133396611D02*
X153334201Y-133396611D01*
X123995611Y-133396611D02*
X134284201Y-133396611D01*
X219245611Y-114346611D02*
X229534201Y-114346611D01*
X200195611Y-114346611D02*
X210484201Y-114346611D01*
X181145611Y-114346611D02*
X191434201Y-114346611D01*
X162095611Y-114346611D02*
X172384201Y-114346611D01*
X143045611Y-114346611D02*
X153334201Y-114346611D01*
X123995611Y-114346611D02*
X134284201Y-114346611D01*
X219245611Y-95296611D02*
X229534201Y-95296611D01*
X200195611Y-95296611D02*
X210484201Y-95296611D01*
X181145611Y-95296611D02*
X191434201Y-95296611D01*
X162095611Y-95296611D02*
X172384201Y-95296611D01*
X143045611Y-95296611D02*
X153334201Y-95296611D01*
X123995611Y-95296611D02*
X134284201Y-95296611D01*
X219245611Y-76246611D02*
X229534201Y-76246611D01*
X200195611Y-76246611D02*
X210484201Y-76246611D01*
X181145611Y-76246611D02*
X191434201Y-76246611D01*
X162095611Y-76246611D02*
X172384201Y-76246611D01*
X143045611Y-76246611D02*
X153334201Y-76246611D01*
X123995611Y-76246611D02*
X134284201Y-76246611D01*
X219245611Y-57196611D02*
X229534201Y-57196611D01*
X200195611Y-57196611D02*
X210484201Y-57196611D01*
X181145611Y-57196611D02*
X191434201Y-57196611D01*
X162095611Y-57196611D02*
X172384201Y-57196611D01*
X143045611Y-57196611D02*
X153334201Y-57196611D01*
X123995611Y-57196611D02*
X134284201Y-57196611D01*
X219245611Y-38146611D02*
X229534201Y-38146611D01*
X200195611Y-38146611D02*
X210484201Y-38146611D01*
X181145611Y-38146611D02*
X191434201Y-38146611D01*
X162095611Y-38146611D02*
X172384201Y-38146611D01*
X143045611Y-38146611D02*
X153334201Y-38146611D01*
%TO.N,Net-(SW1-Pad11)*%
X228786599Y-142891601D02*
X228786599Y-138870599D01*
X209736599Y-142891601D02*
X209736599Y-138870599D01*
X190686599Y-142891601D02*
X190686599Y-138870599D01*
X171636599Y-142891601D02*
X171636599Y-138870599D01*
X152586599Y-142891601D02*
X152586599Y-138870599D01*
X133536599Y-142891601D02*
X133536599Y-138870599D01*
X228786599Y-123841601D02*
X228786599Y-119820599D01*
X209736599Y-123841601D02*
X209736599Y-119820599D01*
X190686599Y-123841601D02*
X190686599Y-119820599D01*
X171636599Y-123841601D02*
X171636599Y-119820599D01*
X152586599Y-123841601D02*
X152586599Y-119820599D01*
X133536599Y-123841601D02*
X133536599Y-119820599D01*
X228786599Y-104791601D02*
X228786599Y-100770599D01*
X209736599Y-104791601D02*
X209736599Y-100770599D01*
X190686599Y-104791601D02*
X190686599Y-100770599D01*
X171636599Y-104791601D02*
X171636599Y-100770599D01*
X152586599Y-104791601D02*
X152586599Y-100770599D01*
X133536599Y-104791601D02*
X133536599Y-100770599D01*
X228786599Y-85741601D02*
X228786599Y-81720599D01*
X209736599Y-85741601D02*
X209736599Y-81720599D01*
X190686599Y-85741601D02*
X190686599Y-81720599D01*
X171636599Y-85741601D02*
X171636599Y-81720599D01*
X152586599Y-85741601D02*
X152586599Y-81720599D01*
X133536599Y-85741601D02*
X133536599Y-81720599D01*
X228786599Y-66691601D02*
X228786599Y-62670599D01*
X209736599Y-66691601D02*
X209736599Y-62670599D01*
X190686599Y-66691601D02*
X190686599Y-62670599D01*
X171636599Y-66691601D02*
X171636599Y-62670599D01*
X152586599Y-66691601D02*
X152586599Y-62670599D01*
X133536599Y-66691601D02*
X133536599Y-62670599D01*
X228786599Y-47641601D02*
X228786599Y-43620599D01*
X209736599Y-47641601D02*
X209736599Y-43620599D01*
X190686599Y-47641601D02*
X190686599Y-43620599D01*
X171636599Y-47641601D02*
X171636599Y-43620599D01*
X152586599Y-47641601D02*
X152586599Y-43620599D01*
%TO.N,Net-(SW7-Pad10)*%
X233091501Y-141764699D02*
X233091501Y-141380699D01*
X214041501Y-141764699D02*
X214041501Y-141380699D01*
X194991501Y-141764699D02*
X194991501Y-141380699D01*
X175941501Y-141764699D02*
X175941501Y-141380699D01*
X156891501Y-141764699D02*
X156891501Y-141380699D01*
X137841501Y-141764699D02*
X137841501Y-141380699D01*
X233091501Y-122714699D02*
X233091501Y-122330699D01*
X214041501Y-122714699D02*
X214041501Y-122330699D01*
X194991501Y-122714699D02*
X194991501Y-122330699D01*
X175941501Y-122714699D02*
X175941501Y-122330699D01*
X156891501Y-122714699D02*
X156891501Y-122330699D01*
X137841501Y-122714699D02*
X137841501Y-122330699D01*
X233091501Y-103664699D02*
X233091501Y-103280699D01*
X214041501Y-103664699D02*
X214041501Y-103280699D01*
X194991501Y-103664699D02*
X194991501Y-103280699D01*
X175941501Y-103664699D02*
X175941501Y-103280699D01*
X156891501Y-103664699D02*
X156891501Y-103280699D01*
X137841501Y-103664699D02*
X137841501Y-103280699D01*
X233091501Y-84614699D02*
X233091501Y-84230699D01*
X214041501Y-84614699D02*
X214041501Y-84230699D01*
X194991501Y-84614699D02*
X194991501Y-84230699D01*
X175941501Y-84614699D02*
X175941501Y-84230699D01*
X156891501Y-84614699D02*
X156891501Y-84230699D01*
X137841501Y-84614699D02*
X137841501Y-84230699D01*
X233091501Y-65564699D02*
X233091501Y-65180699D01*
X214041501Y-65564699D02*
X214041501Y-65180699D01*
X194991501Y-65564699D02*
X194991501Y-65180699D01*
X175941501Y-65564699D02*
X175941501Y-65180699D01*
X156891501Y-65564699D02*
X156891501Y-65180699D01*
X137841501Y-65564699D02*
X137841501Y-65180699D01*
X233091501Y-46514699D02*
X233091501Y-46130699D01*
X214041501Y-46514699D02*
X214041501Y-46130699D01*
X194991501Y-46514699D02*
X194991501Y-46130699D01*
X175941501Y-46514699D02*
X175941501Y-46130699D01*
X156891501Y-46514699D02*
X156891501Y-46130699D01*
X216509600Y-140309600D02*
X216763600Y-140309600D01*
X197459600Y-140309600D02*
X197713600Y-140309600D01*
X178409600Y-140309600D02*
X178663600Y-140309600D01*
X159359600Y-140309600D02*
X159613600Y-140309600D01*
X140309600Y-140309600D02*
X140563600Y-140309600D01*
X216509600Y-121259600D02*
X216763600Y-121259600D01*
X197459600Y-121259600D02*
X197713600Y-121259600D01*
X178409600Y-121259600D02*
X178663600Y-121259600D01*
X159359600Y-121259600D02*
X159613600Y-121259600D01*
X140309600Y-121259600D02*
X140563600Y-121259600D01*
X216509600Y-102209600D02*
X216763600Y-102209600D01*
X197459600Y-102209600D02*
X197713600Y-102209600D01*
X178409600Y-102209600D02*
X178663600Y-102209600D01*
X159359600Y-102209600D02*
X159613600Y-102209600D01*
X140309600Y-102209600D02*
X140563600Y-102209600D01*
X216509600Y-83159600D02*
X216763600Y-83159600D01*
X197459600Y-83159600D02*
X197713600Y-83159600D01*
X178409600Y-83159600D02*
X178663600Y-83159600D01*
X159359600Y-83159600D02*
X159613600Y-83159600D01*
X140309600Y-83159600D02*
X140563600Y-83159600D01*
X216509600Y-64109600D02*
X216763600Y-64109600D01*
X197459600Y-64109600D02*
X197713600Y-64109600D01*
X178409600Y-64109600D02*
X178663600Y-64109600D01*
X159359600Y-64109600D02*
X159613600Y-64109600D01*
X140309600Y-64109600D02*
X140563600Y-64109600D01*
X216509600Y-45059600D02*
X216763600Y-45059600D01*
X197459600Y-45059600D02*
X197713600Y-45059600D01*
X178409600Y-45059600D02*
X178663600Y-45059600D01*
X159359600Y-45059600D02*
X159613600Y-45059600D01*
%TO.N,Net-(SW10-Pad13)*%
X229534201Y-133396611D02*
X231624190Y-135486600D01*
X210484201Y-133396611D02*
X212574190Y-135486600D01*
X191434201Y-133396611D02*
X193524190Y-135486600D01*
X172384201Y-133396611D02*
X174474190Y-135486600D01*
X153334201Y-133396611D02*
X155424190Y-135486600D01*
X134284201Y-133396611D02*
X136374190Y-135486600D01*
X229534201Y-114346611D02*
X231624190Y-116436600D01*
X210484201Y-114346611D02*
X212574190Y-116436600D01*
X191434201Y-114346611D02*
X193524190Y-116436600D01*
X172384201Y-114346611D02*
X174474190Y-116436600D01*
X153334201Y-114346611D02*
X155424190Y-116436600D01*
X134284201Y-114346611D02*
X136374190Y-116436600D01*
X229534201Y-95296611D02*
X231624190Y-97386600D01*
X210484201Y-95296611D02*
X212574190Y-97386600D01*
X191434201Y-95296611D02*
X193524190Y-97386600D01*
X172384201Y-95296611D02*
X174474190Y-97386600D01*
X153334201Y-95296611D02*
X155424190Y-97386600D01*
X134284201Y-95296611D02*
X136374190Y-97386600D01*
X229534201Y-76246611D02*
X231624190Y-78336600D01*
X210484201Y-76246611D02*
X212574190Y-78336600D01*
X191434201Y-76246611D02*
X193524190Y-78336600D01*
X172384201Y-76246611D02*
X174474190Y-78336600D01*
X153334201Y-76246611D02*
X155424190Y-78336600D01*
X134284201Y-76246611D02*
X136374190Y-78336600D01*
X229534201Y-57196611D02*
X231624190Y-59286600D01*
X210484201Y-57196611D02*
X212574190Y-59286600D01*
X191434201Y-57196611D02*
X193524190Y-59286600D01*
X172384201Y-57196611D02*
X174474190Y-59286600D01*
X153334201Y-57196611D02*
X155424190Y-59286600D01*
X134284201Y-57196611D02*
X136374190Y-59286600D01*
X229534201Y-38146611D02*
X231624190Y-40236600D01*
X210484201Y-38146611D02*
X212574190Y-40236600D01*
X191434201Y-38146611D02*
X193524190Y-40236600D01*
X172384201Y-38146611D02*
X174474190Y-40236600D01*
X153334201Y-38146611D02*
X155424190Y-40236600D01*
%TO.N,Net-(SW7-Pad10)*%
X216763600Y-140309600D02*
X217271600Y-140309600D01*
X197713600Y-140309600D02*
X198221600Y-140309600D01*
X178663600Y-140309600D02*
X179171600Y-140309600D01*
X159613600Y-140309600D02*
X160121600Y-140309600D01*
X140563600Y-140309600D02*
X141071600Y-140309600D01*
X216763600Y-121259600D02*
X217271600Y-121259600D01*
X197713600Y-121259600D02*
X198221600Y-121259600D01*
X178663600Y-121259600D02*
X179171600Y-121259600D01*
X159613600Y-121259600D02*
X160121600Y-121259600D01*
X140563600Y-121259600D02*
X141071600Y-121259600D01*
X216763600Y-102209600D02*
X217271600Y-102209600D01*
X197713600Y-102209600D02*
X198221600Y-102209600D01*
X178663600Y-102209600D02*
X179171600Y-102209600D01*
X159613600Y-102209600D02*
X160121600Y-102209600D01*
X140563600Y-102209600D02*
X141071600Y-102209600D01*
X216763600Y-83159600D02*
X217271600Y-83159600D01*
X197713600Y-83159600D02*
X198221600Y-83159600D01*
X178663600Y-83159600D02*
X179171600Y-83159600D01*
X159613600Y-83159600D02*
X160121600Y-83159600D01*
X140563600Y-83159600D02*
X141071600Y-83159600D01*
X216763600Y-64109600D02*
X217271600Y-64109600D01*
X197713600Y-64109600D02*
X198221600Y-64109600D01*
X178663600Y-64109600D02*
X179171600Y-64109600D01*
X159613600Y-64109600D02*
X160121600Y-64109600D01*
X140563600Y-64109600D02*
X141071600Y-64109600D01*
X216763600Y-45059600D02*
X217271600Y-45059600D01*
X197713600Y-45059600D02*
X198221600Y-45059600D01*
X178663600Y-45059600D02*
X179171600Y-45059600D01*
X159613600Y-45059600D02*
X160121600Y-45059600D01*
X229947600Y-144908600D02*
X228828600Y-144908600D01*
X210897600Y-144908600D02*
X209778600Y-144908600D01*
X191847600Y-144908600D02*
X190728600Y-144908600D01*
X172797600Y-144908600D02*
X171678600Y-144908600D01*
X153747600Y-144908600D02*
X152628600Y-144908600D01*
X134697600Y-144908600D02*
X133578600Y-144908600D01*
X229947600Y-125858600D02*
X228828600Y-125858600D01*
X210897600Y-125858600D02*
X209778600Y-125858600D01*
X191847600Y-125858600D02*
X190728600Y-125858600D01*
X172797600Y-125858600D02*
X171678600Y-125858600D01*
X153747600Y-125858600D02*
X152628600Y-125858600D01*
X134697600Y-125858600D02*
X133578600Y-125858600D01*
X229947600Y-106808600D02*
X228828600Y-106808600D01*
X210897600Y-106808600D02*
X209778600Y-106808600D01*
X191847600Y-106808600D02*
X190728600Y-106808600D01*
X172797600Y-106808600D02*
X171678600Y-106808600D01*
X153747600Y-106808600D02*
X152628600Y-106808600D01*
X134697600Y-106808600D02*
X133578600Y-106808600D01*
X229947600Y-87758600D02*
X228828600Y-87758600D01*
X210897600Y-87758600D02*
X209778600Y-87758600D01*
X191847600Y-87758600D02*
X190728600Y-87758600D01*
X172797600Y-87758600D02*
X171678600Y-87758600D01*
X153747600Y-87758600D02*
X152628600Y-87758600D01*
X134697600Y-87758600D02*
X133578600Y-87758600D01*
X229947600Y-68708600D02*
X228828600Y-68708600D01*
X210897600Y-68708600D02*
X209778600Y-68708600D01*
X191847600Y-68708600D02*
X190728600Y-68708600D01*
X172797600Y-68708600D02*
X171678600Y-68708600D01*
X153747600Y-68708600D02*
X152628600Y-68708600D01*
X134697600Y-68708600D02*
X133578600Y-68708600D01*
X229947600Y-49658600D02*
X228828600Y-49658600D01*
X210897600Y-49658600D02*
X209778600Y-49658600D01*
X191847600Y-49658600D02*
X190728600Y-49658600D01*
X172797600Y-49658600D02*
X171678600Y-49658600D01*
X153747600Y-49658600D02*
X152628600Y-49658600D01*
X231876600Y-142979600D02*
X229947600Y-144908600D01*
X212826600Y-142979600D02*
X210897600Y-144908600D01*
X193776600Y-142979600D02*
X191847600Y-144908600D01*
X174726600Y-142979600D02*
X172797600Y-144908600D01*
X155676600Y-142979600D02*
X153747600Y-144908600D01*
X136626600Y-142979600D02*
X134697600Y-144908600D01*
X231876600Y-123929600D02*
X229947600Y-125858600D01*
X212826600Y-123929600D02*
X210897600Y-125858600D01*
X193776600Y-123929600D02*
X191847600Y-125858600D01*
X174726600Y-123929600D02*
X172797600Y-125858600D01*
X155676600Y-123929600D02*
X153747600Y-125858600D01*
X136626600Y-123929600D02*
X134697600Y-125858600D01*
X231876600Y-104879600D02*
X229947600Y-106808600D01*
X212826600Y-104879600D02*
X210897600Y-106808600D01*
X193776600Y-104879600D02*
X191847600Y-106808600D01*
X174726600Y-104879600D02*
X172797600Y-106808600D01*
X155676600Y-104879600D02*
X153747600Y-106808600D01*
X136626600Y-104879600D02*
X134697600Y-106808600D01*
X231876600Y-85829600D02*
X229947600Y-87758600D01*
X212826600Y-85829600D02*
X210897600Y-87758600D01*
X193776600Y-85829600D02*
X191847600Y-87758600D01*
X174726600Y-85829600D02*
X172797600Y-87758600D01*
X155676600Y-85829600D02*
X153747600Y-87758600D01*
X136626600Y-85829600D02*
X134697600Y-87758600D01*
X231876600Y-66779600D02*
X229947600Y-68708600D01*
X212826600Y-66779600D02*
X210897600Y-68708600D01*
X193776600Y-66779600D02*
X191847600Y-68708600D01*
X174726600Y-66779600D02*
X172797600Y-68708600D01*
X155676600Y-66779600D02*
X153747600Y-68708600D01*
X136626600Y-66779600D02*
X134697600Y-68708600D01*
X231876600Y-47729600D02*
X229947600Y-49658600D01*
X212826600Y-47729600D02*
X210897600Y-49658600D01*
X193776600Y-47729600D02*
X191847600Y-49658600D01*
X174726600Y-47729600D02*
X172797600Y-49658600D01*
X155676600Y-47729600D02*
X153747600Y-49658600D01*
%TO.N,Net-(SW14-Pad14)*%
X220195600Y-146006600D02*
X221991600Y-147802600D01*
X201145600Y-146006600D02*
X202941600Y-147802600D01*
X182095600Y-146006600D02*
X183891600Y-147802600D01*
X163045600Y-146006600D02*
X164841600Y-147802600D01*
X143995600Y-146006600D02*
X145791600Y-147802600D01*
X124945600Y-146006600D02*
X126741600Y-147802600D01*
X220195600Y-126956600D02*
X221991600Y-128752600D01*
X201145600Y-126956600D02*
X202941600Y-128752600D01*
X182095600Y-126956600D02*
X183891600Y-128752600D01*
X163045600Y-126956600D02*
X164841600Y-128752600D01*
X143995600Y-126956600D02*
X145791600Y-128752600D01*
X124945600Y-126956600D02*
X126741600Y-128752600D01*
X220195600Y-107906600D02*
X221991600Y-109702600D01*
X201145600Y-107906600D02*
X202941600Y-109702600D01*
X182095600Y-107906600D02*
X183891600Y-109702600D01*
X163045600Y-107906600D02*
X164841600Y-109702600D01*
X143995600Y-107906600D02*
X145791600Y-109702600D01*
X124945600Y-107906600D02*
X126741600Y-109702600D01*
X220195600Y-88856600D02*
X221991600Y-90652600D01*
X201145600Y-88856600D02*
X202941600Y-90652600D01*
X182095600Y-88856600D02*
X183891600Y-90652600D01*
X163045600Y-88856600D02*
X164841600Y-90652600D01*
X143995600Y-88856600D02*
X145791600Y-90652600D01*
X124945600Y-88856600D02*
X126741600Y-90652600D01*
X220195600Y-69806600D02*
X221991600Y-71602600D01*
X201145600Y-69806600D02*
X202941600Y-71602600D01*
X182095600Y-69806600D02*
X183891600Y-71602600D01*
X163045600Y-69806600D02*
X164841600Y-71602600D01*
X143995600Y-69806600D02*
X145791600Y-71602600D01*
X124945600Y-69806600D02*
X126741600Y-71602600D01*
X220195600Y-50756600D02*
X221991600Y-52552600D01*
X201145600Y-50756600D02*
X202941600Y-52552600D01*
X182095600Y-50756600D02*
X183891600Y-52552600D01*
X163045600Y-50756600D02*
X164841600Y-52552600D01*
X143995600Y-50756600D02*
X145791600Y-52552600D01*
%TO.N,Net-(SW1-Pad11)*%
X228786599Y-138870599D02*
X228701600Y-138785600D01*
X209736599Y-138870599D02*
X209651600Y-138785600D01*
X190686599Y-138870599D02*
X190601600Y-138785600D01*
X171636599Y-138870599D02*
X171551600Y-138785600D01*
X152586599Y-138870599D02*
X152501600Y-138785600D01*
X133536599Y-138870599D02*
X133451600Y-138785600D01*
X228786599Y-119820599D02*
X228701600Y-119735600D01*
X209736599Y-119820599D02*
X209651600Y-119735600D01*
X190686599Y-119820599D02*
X190601600Y-119735600D01*
X171636599Y-119820599D02*
X171551600Y-119735600D01*
X152586599Y-119820599D02*
X152501600Y-119735600D01*
X133536599Y-119820599D02*
X133451600Y-119735600D01*
X228786599Y-100770599D02*
X228701600Y-100685600D01*
X209736599Y-100770599D02*
X209651600Y-100685600D01*
X190686599Y-100770599D02*
X190601600Y-100685600D01*
X171636599Y-100770599D02*
X171551600Y-100685600D01*
X152586599Y-100770599D02*
X152501600Y-100685600D01*
X133536599Y-100770599D02*
X133451600Y-100685600D01*
X228786599Y-81720599D02*
X228701600Y-81635600D01*
X209736599Y-81720599D02*
X209651600Y-81635600D01*
X190686599Y-81720599D02*
X190601600Y-81635600D01*
X171636599Y-81720599D02*
X171551600Y-81635600D01*
X152586599Y-81720599D02*
X152501600Y-81635600D01*
X133536599Y-81720599D02*
X133451600Y-81635600D01*
X228786599Y-62670599D02*
X228701600Y-62585600D01*
X209736599Y-62670599D02*
X209651600Y-62585600D01*
X190686599Y-62670599D02*
X190601600Y-62585600D01*
X171636599Y-62670599D02*
X171551600Y-62585600D01*
X152586599Y-62670599D02*
X152501600Y-62585600D01*
X133536599Y-62670599D02*
X133451600Y-62585600D01*
X228786599Y-43620599D02*
X228701600Y-43535600D01*
X209736599Y-43620599D02*
X209651600Y-43535600D01*
X190686599Y-43620599D02*
X190601600Y-43535600D01*
X171636599Y-43620599D02*
X171551600Y-43535600D01*
X152586599Y-43620599D02*
X152501600Y-43535600D01*
%TO.N,Net-(SW10-Pad13)*%
X231624190Y-135486600D02*
X232505600Y-135486600D01*
X212574190Y-135486600D02*
X213455600Y-135486600D01*
X193524190Y-135486600D02*
X194405600Y-135486600D01*
X174474190Y-135486600D02*
X175355600Y-135486600D01*
X155424190Y-135486600D02*
X156305600Y-135486600D01*
X136374190Y-135486600D02*
X137255600Y-135486600D01*
X231624190Y-116436600D02*
X232505600Y-116436600D01*
X212574190Y-116436600D02*
X213455600Y-116436600D01*
X193524190Y-116436600D02*
X194405600Y-116436600D01*
X174474190Y-116436600D02*
X175355600Y-116436600D01*
X155424190Y-116436600D02*
X156305600Y-116436600D01*
X136374190Y-116436600D02*
X137255600Y-116436600D01*
X231624190Y-97386600D02*
X232505600Y-97386600D01*
X212574190Y-97386600D02*
X213455600Y-97386600D01*
X193524190Y-97386600D02*
X194405600Y-97386600D01*
X174474190Y-97386600D02*
X175355600Y-97386600D01*
X155424190Y-97386600D02*
X156305600Y-97386600D01*
X136374190Y-97386600D02*
X137255600Y-97386600D01*
X231624190Y-78336600D02*
X232505600Y-78336600D01*
X212574190Y-78336600D02*
X213455600Y-78336600D01*
X193524190Y-78336600D02*
X194405600Y-78336600D01*
X174474190Y-78336600D02*
X175355600Y-78336600D01*
X155424190Y-78336600D02*
X156305600Y-78336600D01*
X136374190Y-78336600D02*
X137255600Y-78336600D01*
X231624190Y-59286600D02*
X232505600Y-59286600D01*
X212574190Y-59286600D02*
X213455600Y-59286600D01*
X193524190Y-59286600D02*
X194405600Y-59286600D01*
X174474190Y-59286600D02*
X175355600Y-59286600D01*
X155424190Y-59286600D02*
X156305600Y-59286600D01*
X136374190Y-59286600D02*
X137255600Y-59286600D01*
X231624190Y-40236600D02*
X232505600Y-40236600D01*
X212574190Y-40236600D02*
X213455600Y-40236600D01*
X193524190Y-40236600D02*
X194405600Y-40236600D01*
X174474190Y-40236600D02*
X175355600Y-40236600D01*
X155424190Y-40236600D02*
X156305600Y-40236600D01*
%TO.N,Net-(SW1-Pad16)*%
X225605601Y-137899600D02*
X225526600Y-137978601D01*
X206555601Y-137899600D02*
X206476600Y-137978601D01*
X187505601Y-137899600D02*
X187426600Y-137978601D01*
X168455601Y-137899600D02*
X168376600Y-137978601D01*
X149405601Y-137899600D02*
X149326600Y-137978601D01*
X130355601Y-137899600D02*
X130276600Y-137978601D01*
X225605601Y-118849600D02*
X225526600Y-118928601D01*
X206555601Y-118849600D02*
X206476600Y-118928601D01*
X187505601Y-118849600D02*
X187426600Y-118928601D01*
X168455601Y-118849600D02*
X168376600Y-118928601D01*
X149405601Y-118849600D02*
X149326600Y-118928601D01*
X130355601Y-118849600D02*
X130276600Y-118928601D01*
X225605601Y-99799600D02*
X225526600Y-99878601D01*
X206555601Y-99799600D02*
X206476600Y-99878601D01*
X187505601Y-99799600D02*
X187426600Y-99878601D01*
X168455601Y-99799600D02*
X168376600Y-99878601D01*
X149405601Y-99799600D02*
X149326600Y-99878601D01*
X130355601Y-99799600D02*
X130276600Y-99878601D01*
X225605601Y-80749600D02*
X225526600Y-80828601D01*
X206555601Y-80749600D02*
X206476600Y-80828601D01*
X187505601Y-80749600D02*
X187426600Y-80828601D01*
X168455601Y-80749600D02*
X168376600Y-80828601D01*
X149405601Y-80749600D02*
X149326600Y-80828601D01*
X130355601Y-80749600D02*
X130276600Y-80828601D01*
X225605601Y-61699600D02*
X225526600Y-61778601D01*
X206555601Y-61699600D02*
X206476600Y-61778601D01*
X187505601Y-61699600D02*
X187426600Y-61778601D01*
X168455601Y-61699600D02*
X168376600Y-61778601D01*
X149405601Y-61699600D02*
X149326600Y-61778601D01*
X130355601Y-61699600D02*
X130276600Y-61778601D01*
X225605601Y-42649600D02*
X225526600Y-42728601D01*
X206555601Y-42649600D02*
X206476600Y-42728601D01*
X187505601Y-42649600D02*
X187426600Y-42728601D01*
X168455601Y-42649600D02*
X168376600Y-42728601D01*
X149405601Y-42649600D02*
X149326600Y-42728601D01*
%TO.N,Net-(SW14-Pad14)*%
X221991600Y-147802600D02*
X226796600Y-147802600D01*
X202941600Y-147802600D02*
X207746600Y-147802600D01*
X183891600Y-147802600D02*
X188696600Y-147802600D01*
X164841600Y-147802600D02*
X169646600Y-147802600D01*
X145791600Y-147802600D02*
X150596600Y-147802600D01*
X126741600Y-147802600D02*
X131546600Y-147802600D01*
X221991600Y-128752600D02*
X226796600Y-128752600D01*
X202941600Y-128752600D02*
X207746600Y-128752600D01*
X183891600Y-128752600D02*
X188696600Y-128752600D01*
X164841600Y-128752600D02*
X169646600Y-128752600D01*
X145791600Y-128752600D02*
X150596600Y-128752600D01*
X126741600Y-128752600D02*
X131546600Y-128752600D01*
X221991600Y-109702600D02*
X226796600Y-109702600D01*
X202941600Y-109702600D02*
X207746600Y-109702600D01*
X183891600Y-109702600D02*
X188696600Y-109702600D01*
X164841600Y-109702600D02*
X169646600Y-109702600D01*
X145791600Y-109702600D02*
X150596600Y-109702600D01*
X126741600Y-109702600D02*
X131546600Y-109702600D01*
X221991600Y-90652600D02*
X226796600Y-90652600D01*
X202941600Y-90652600D02*
X207746600Y-90652600D01*
X183891600Y-90652600D02*
X188696600Y-90652600D01*
X164841600Y-90652600D02*
X169646600Y-90652600D01*
X145791600Y-90652600D02*
X150596600Y-90652600D01*
X126741600Y-90652600D02*
X131546600Y-90652600D01*
X221991600Y-71602600D02*
X226796600Y-71602600D01*
X202941600Y-71602600D02*
X207746600Y-71602600D01*
X183891600Y-71602600D02*
X188696600Y-71602600D01*
X164841600Y-71602600D02*
X169646600Y-71602600D01*
X145791600Y-71602600D02*
X150596600Y-71602600D01*
X126741600Y-71602600D02*
X131546600Y-71602600D01*
X221991600Y-52552600D02*
X226796600Y-52552600D01*
X202941600Y-52552600D02*
X207746600Y-52552600D01*
X183891600Y-52552600D02*
X188696600Y-52552600D01*
X164841600Y-52552600D02*
X169646600Y-52552600D01*
X145791600Y-52552600D02*
X150596600Y-52552600D01*
%TO.N,Net-(SW10-Pad13)*%
X218795600Y-132946600D02*
X219245611Y-133396611D01*
X199745600Y-132946600D02*
X200195611Y-133396611D01*
X180695600Y-132946600D02*
X181145611Y-133396611D01*
X161645600Y-132946600D02*
X162095611Y-133396611D01*
X142595600Y-132946600D02*
X143045611Y-133396611D01*
X123545600Y-132946600D02*
X123995611Y-133396611D01*
X218795600Y-113896600D02*
X219245611Y-114346611D01*
X199745600Y-113896600D02*
X200195611Y-114346611D01*
X180695600Y-113896600D02*
X181145611Y-114346611D01*
X161645600Y-113896600D02*
X162095611Y-114346611D01*
X142595600Y-113896600D02*
X143045611Y-114346611D01*
X123545600Y-113896600D02*
X123995611Y-114346611D01*
X218795600Y-94846600D02*
X219245611Y-95296611D01*
X199745600Y-94846600D02*
X200195611Y-95296611D01*
X180695600Y-94846600D02*
X181145611Y-95296611D01*
X161645600Y-94846600D02*
X162095611Y-95296611D01*
X142595600Y-94846600D02*
X143045611Y-95296611D01*
X123545600Y-94846600D02*
X123995611Y-95296611D01*
X218795600Y-75796600D02*
X219245611Y-76246611D01*
X199745600Y-75796600D02*
X200195611Y-76246611D01*
X180695600Y-75796600D02*
X181145611Y-76246611D01*
X161645600Y-75796600D02*
X162095611Y-76246611D01*
X142595600Y-75796600D02*
X143045611Y-76246611D01*
X123545600Y-75796600D02*
X123995611Y-76246611D01*
X218795600Y-56746600D02*
X219245611Y-57196611D01*
X199745600Y-56746600D02*
X200195611Y-57196611D01*
X180695600Y-56746600D02*
X181145611Y-57196611D01*
X161645600Y-56746600D02*
X162095611Y-57196611D01*
X142595600Y-56746600D02*
X143045611Y-57196611D01*
X123545600Y-56746600D02*
X123995611Y-57196611D01*
X218795600Y-37696600D02*
X219245611Y-38146611D01*
X199745600Y-37696600D02*
X200195611Y-38146611D01*
X180695600Y-37696600D02*
X181145611Y-38146611D01*
X161645600Y-37696600D02*
X162095611Y-38146611D01*
X142595600Y-37696600D02*
X143045611Y-38146611D01*
%TO.N,Net-(SW1-Pad11)*%
X229929599Y-142891601D02*
X228786599Y-142891601D01*
X210879599Y-142891601D02*
X209736599Y-142891601D01*
X191829599Y-142891601D02*
X190686599Y-142891601D01*
X172779599Y-142891601D02*
X171636599Y-142891601D01*
X153729599Y-142891601D02*
X152586599Y-142891601D01*
X134679599Y-142891601D02*
X133536599Y-142891601D01*
X229929599Y-123841601D02*
X228786599Y-123841601D01*
X210879599Y-123841601D02*
X209736599Y-123841601D01*
X191829599Y-123841601D02*
X190686599Y-123841601D01*
X172779599Y-123841601D02*
X171636599Y-123841601D01*
X153729599Y-123841601D02*
X152586599Y-123841601D01*
X134679599Y-123841601D02*
X133536599Y-123841601D01*
X229929599Y-104791601D02*
X228786599Y-104791601D01*
X210879599Y-104791601D02*
X209736599Y-104791601D01*
X191829599Y-104791601D02*
X190686599Y-104791601D01*
X172779599Y-104791601D02*
X171636599Y-104791601D01*
X153729599Y-104791601D02*
X152586599Y-104791601D01*
X134679599Y-104791601D02*
X133536599Y-104791601D01*
X229929599Y-85741601D02*
X228786599Y-85741601D01*
X210879599Y-85741601D02*
X209736599Y-85741601D01*
X191829599Y-85741601D02*
X190686599Y-85741601D01*
X172779599Y-85741601D02*
X171636599Y-85741601D01*
X153729599Y-85741601D02*
X152586599Y-85741601D01*
X134679599Y-85741601D02*
X133536599Y-85741601D01*
X229929599Y-66691601D02*
X228786599Y-66691601D01*
X210879599Y-66691601D02*
X209736599Y-66691601D01*
X191829599Y-66691601D02*
X190686599Y-66691601D01*
X172779599Y-66691601D02*
X171636599Y-66691601D01*
X153729599Y-66691601D02*
X152586599Y-66691601D01*
X134679599Y-66691601D02*
X133536599Y-66691601D01*
X229929599Y-47641601D02*
X228786599Y-47641601D01*
X210879599Y-47641601D02*
X209736599Y-47641601D01*
X191829599Y-47641601D02*
X190686599Y-47641601D01*
X172779599Y-47641601D02*
X171636599Y-47641601D01*
X153729599Y-47641601D02*
X152586599Y-47641601D01*
%TO.N,Net-(SW7-Pad10)*%
X231876600Y-142979600D02*
X233091501Y-141764699D01*
X212826600Y-142979600D02*
X214041501Y-141764699D01*
X193776600Y-142979600D02*
X194991501Y-141764699D01*
X174726600Y-142979600D02*
X175941501Y-141764699D01*
X155676600Y-142979600D02*
X156891501Y-141764699D01*
X136626600Y-142979600D02*
X137841501Y-141764699D01*
X231876600Y-123929600D02*
X233091501Y-122714699D01*
X212826600Y-123929600D02*
X214041501Y-122714699D01*
X193776600Y-123929600D02*
X194991501Y-122714699D01*
X174726600Y-123929600D02*
X175941501Y-122714699D01*
X155676600Y-123929600D02*
X156891501Y-122714699D01*
X136626600Y-123929600D02*
X137841501Y-122714699D01*
X231876600Y-104879600D02*
X233091501Y-103664699D01*
X212826600Y-104879600D02*
X214041501Y-103664699D01*
X193776600Y-104879600D02*
X194991501Y-103664699D01*
X174726600Y-104879600D02*
X175941501Y-103664699D01*
X155676600Y-104879600D02*
X156891501Y-103664699D01*
X136626600Y-104879600D02*
X137841501Y-103664699D01*
X231876600Y-85829600D02*
X233091501Y-84614699D01*
X212826600Y-85829600D02*
X214041501Y-84614699D01*
X193776600Y-85829600D02*
X194991501Y-84614699D01*
X174726600Y-85829600D02*
X175941501Y-84614699D01*
X155676600Y-85829600D02*
X156891501Y-84614699D01*
X136626600Y-85829600D02*
X137841501Y-84614699D01*
X231876600Y-66779600D02*
X233091501Y-65564699D01*
X212826600Y-66779600D02*
X214041501Y-65564699D01*
X193776600Y-66779600D02*
X194991501Y-65564699D01*
X174726600Y-66779600D02*
X175941501Y-65564699D01*
X155676600Y-66779600D02*
X156891501Y-65564699D01*
X136626600Y-66779600D02*
X137841501Y-65564699D01*
X231876600Y-47729600D02*
X233091501Y-46514699D01*
X212826600Y-47729600D02*
X214041501Y-46514699D01*
X193776600Y-47729600D02*
X194991501Y-46514699D01*
X174726600Y-47729600D02*
X175941501Y-46514699D01*
X155676600Y-47729600D02*
X156891501Y-46514699D01*
X233091501Y-141380699D02*
X234162600Y-140309600D01*
X214041501Y-141380699D02*
X215112600Y-140309600D01*
X194991501Y-141380699D02*
X196062600Y-140309600D01*
X175941501Y-141380699D02*
X177012600Y-140309600D01*
X156891501Y-141380699D02*
X157962600Y-140309600D01*
X137841501Y-141380699D02*
X138912600Y-140309600D01*
X233091501Y-122330699D02*
X234162600Y-121259600D01*
X214041501Y-122330699D02*
X215112600Y-121259600D01*
X194991501Y-122330699D02*
X196062600Y-121259600D01*
X175941501Y-122330699D02*
X177012600Y-121259600D01*
X156891501Y-122330699D02*
X157962600Y-121259600D01*
X137841501Y-122330699D02*
X138912600Y-121259600D01*
X233091501Y-103280699D02*
X234162600Y-102209600D01*
X214041501Y-103280699D02*
X215112600Y-102209600D01*
X194991501Y-103280699D02*
X196062600Y-102209600D01*
X175941501Y-103280699D02*
X177012600Y-102209600D01*
X156891501Y-103280699D02*
X157962600Y-102209600D01*
X137841501Y-103280699D02*
X138912600Y-102209600D01*
X233091501Y-84230699D02*
X234162600Y-83159600D01*
X214041501Y-84230699D02*
X215112600Y-83159600D01*
X194991501Y-84230699D02*
X196062600Y-83159600D01*
X175941501Y-84230699D02*
X177012600Y-83159600D01*
X156891501Y-84230699D02*
X157962600Y-83159600D01*
X137841501Y-84230699D02*
X138912600Y-83159600D01*
X233091501Y-65180699D02*
X234162600Y-64109600D01*
X214041501Y-65180699D02*
X215112600Y-64109600D01*
X194991501Y-65180699D02*
X196062600Y-64109600D01*
X175941501Y-65180699D02*
X177012600Y-64109600D01*
X156891501Y-65180699D02*
X157962600Y-64109600D01*
X137841501Y-65180699D02*
X138912600Y-64109600D01*
X233091501Y-46130699D02*
X234162600Y-45059600D01*
X214041501Y-46130699D02*
X215112600Y-45059600D01*
X194991501Y-46130699D02*
X196062600Y-45059600D01*
X175941501Y-46130699D02*
X177012600Y-45059600D01*
X156891501Y-46130699D02*
X157962600Y-45059600D01*
%TO.N,Net-(SW1-Pad11)*%
X230606600Y-142214600D02*
X229929599Y-142891601D01*
X211556600Y-142214600D02*
X210879599Y-142891601D01*
X192506600Y-142214600D02*
X191829599Y-142891601D01*
X173456600Y-142214600D02*
X172779599Y-142891601D01*
X154406600Y-142214600D02*
X153729599Y-142891601D01*
X135356600Y-142214600D02*
X134679599Y-142891601D01*
X230606600Y-123164600D02*
X229929599Y-123841601D01*
X211556600Y-123164600D02*
X210879599Y-123841601D01*
X192506600Y-123164600D02*
X191829599Y-123841601D01*
X173456600Y-123164600D02*
X172779599Y-123841601D01*
X154406600Y-123164600D02*
X153729599Y-123841601D01*
X135356600Y-123164600D02*
X134679599Y-123841601D01*
X230606600Y-104114600D02*
X229929599Y-104791601D01*
X211556600Y-104114600D02*
X210879599Y-104791601D01*
X192506600Y-104114600D02*
X191829599Y-104791601D01*
X173456600Y-104114600D02*
X172779599Y-104791601D01*
X154406600Y-104114600D02*
X153729599Y-104791601D01*
X135356600Y-104114600D02*
X134679599Y-104791601D01*
X230606600Y-85064600D02*
X229929599Y-85741601D01*
X211556600Y-85064600D02*
X210879599Y-85741601D01*
X192506600Y-85064600D02*
X191829599Y-85741601D01*
X173456600Y-85064600D02*
X172779599Y-85741601D01*
X154406600Y-85064600D02*
X153729599Y-85741601D01*
X135356600Y-85064600D02*
X134679599Y-85741601D01*
X230606600Y-66014600D02*
X229929599Y-66691601D01*
X211556600Y-66014600D02*
X210879599Y-66691601D01*
X192506600Y-66014600D02*
X191829599Y-66691601D01*
X173456600Y-66014600D02*
X172779599Y-66691601D01*
X154406600Y-66014600D02*
X153729599Y-66691601D01*
X135356600Y-66014600D02*
X134679599Y-66691601D01*
X230606600Y-46964600D02*
X229929599Y-47641601D01*
X211556600Y-46964600D02*
X210879599Y-47641601D01*
X192506600Y-46964600D02*
X191829599Y-47641601D01*
X173456600Y-46964600D02*
X172779599Y-47641601D01*
X154406600Y-46964600D02*
X153729599Y-47641601D01*
%TO.N,Net-(SW8-Pad1)*%
X219314622Y-140787369D02*
X221539813Y-143012560D01*
X200264622Y-140787369D02*
X202489813Y-143012560D01*
X181214622Y-140787369D02*
X183439813Y-143012560D01*
X162164622Y-140787369D02*
X164389813Y-143012560D01*
X143114622Y-140787369D02*
X145339813Y-143012560D01*
X124064622Y-140787369D02*
X126289813Y-143012560D01*
X219314622Y-121737369D02*
X221539813Y-123962560D01*
X200264622Y-121737369D02*
X202489813Y-123962560D01*
X181214622Y-121737369D02*
X183439813Y-123962560D01*
X162164622Y-121737369D02*
X164389813Y-123962560D01*
X143114622Y-121737369D02*
X145339813Y-123962560D01*
X124064622Y-121737369D02*
X126289813Y-123962560D01*
X219314622Y-102687369D02*
X221539813Y-104912560D01*
X200264622Y-102687369D02*
X202489813Y-104912560D01*
X181214622Y-102687369D02*
X183439813Y-104912560D01*
X162164622Y-102687369D02*
X164389813Y-104912560D01*
X143114622Y-102687369D02*
X145339813Y-104912560D01*
X124064622Y-102687369D02*
X126289813Y-104912560D01*
X219314622Y-83637369D02*
X221539813Y-85862560D01*
X200264622Y-83637369D02*
X202489813Y-85862560D01*
X181214622Y-83637369D02*
X183439813Y-85862560D01*
X162164622Y-83637369D02*
X164389813Y-85862560D01*
X143114622Y-83637369D02*
X145339813Y-85862560D01*
X124064622Y-83637369D02*
X126289813Y-85862560D01*
X219314622Y-64587369D02*
X221539813Y-66812560D01*
X200264622Y-64587369D02*
X202489813Y-66812560D01*
X181214622Y-64587369D02*
X183439813Y-66812560D01*
X162164622Y-64587369D02*
X164389813Y-66812560D01*
X143114622Y-64587369D02*
X145339813Y-66812560D01*
X124064622Y-64587369D02*
X126289813Y-66812560D01*
X219314622Y-45537369D02*
X221539813Y-47762560D01*
X200264622Y-45537369D02*
X202489813Y-47762560D01*
X181214622Y-45537369D02*
X183439813Y-47762560D01*
X162164622Y-45537369D02*
X164389813Y-47762560D01*
X143114622Y-45537369D02*
X145339813Y-47762560D01*
%TO.N,Net-(SW1-Pad11)*%
X218160600Y-140817600D02*
X218414600Y-141071600D01*
X199110600Y-140817600D02*
X199364600Y-141071600D01*
X180060600Y-140817600D02*
X180314600Y-141071600D01*
X161010600Y-140817600D02*
X161264600Y-141071600D01*
X141960600Y-140817600D02*
X142214600Y-141071600D01*
X122910600Y-140817600D02*
X123164600Y-141071600D01*
X218160600Y-121767600D02*
X218414600Y-122021600D01*
X199110600Y-121767600D02*
X199364600Y-122021600D01*
X180060600Y-121767600D02*
X180314600Y-122021600D01*
X161010600Y-121767600D02*
X161264600Y-122021600D01*
X141960600Y-121767600D02*
X142214600Y-122021600D01*
X122910600Y-121767600D02*
X123164600Y-122021600D01*
X218160600Y-102717600D02*
X218414600Y-102971600D01*
X199110600Y-102717600D02*
X199364600Y-102971600D01*
X180060600Y-102717600D02*
X180314600Y-102971600D01*
X161010600Y-102717600D02*
X161264600Y-102971600D01*
X141960600Y-102717600D02*
X142214600Y-102971600D01*
X122910600Y-102717600D02*
X123164600Y-102971600D01*
X218160600Y-83667600D02*
X218414600Y-83921600D01*
X199110600Y-83667600D02*
X199364600Y-83921600D01*
X180060600Y-83667600D02*
X180314600Y-83921600D01*
X161010600Y-83667600D02*
X161264600Y-83921600D01*
X141960600Y-83667600D02*
X142214600Y-83921600D01*
X122910600Y-83667600D02*
X123164600Y-83921600D01*
X218160600Y-64617600D02*
X218414600Y-64871600D01*
X199110600Y-64617600D02*
X199364600Y-64871600D01*
X180060600Y-64617600D02*
X180314600Y-64871600D01*
X161010600Y-64617600D02*
X161264600Y-64871600D01*
X141960600Y-64617600D02*
X142214600Y-64871600D01*
X122910600Y-64617600D02*
X123164600Y-64871600D01*
X218160600Y-45567600D02*
X218414600Y-45821600D01*
X199110600Y-45567600D02*
X199364600Y-45821600D01*
X180060600Y-45567600D02*
X180314600Y-45821600D01*
X161010600Y-45567600D02*
X161264600Y-45821600D01*
X141960600Y-45567600D02*
X142214600Y-45821600D01*
%TO.N,Net-(SW8-Pad10)*%
X218864611Y-142667611D02*
X218864611Y-140631200D01*
X199814611Y-142667611D02*
X199814611Y-140631200D01*
X180764611Y-142667611D02*
X180764611Y-140631200D01*
X161714611Y-142667611D02*
X161714611Y-140631200D01*
X142664611Y-142667611D02*
X142664611Y-140631200D01*
X123614611Y-142667611D02*
X123614611Y-140631200D01*
X218864611Y-123617611D02*
X218864611Y-121581200D01*
X199814611Y-123617611D02*
X199814611Y-121581200D01*
X180764611Y-123617611D02*
X180764611Y-121581200D01*
X161714611Y-123617611D02*
X161714611Y-121581200D01*
X142664611Y-123617611D02*
X142664611Y-121581200D01*
X123614611Y-123617611D02*
X123614611Y-121581200D01*
X218864611Y-104567611D02*
X218864611Y-102531200D01*
X199814611Y-104567611D02*
X199814611Y-102531200D01*
X180764611Y-104567611D02*
X180764611Y-102531200D01*
X161714611Y-104567611D02*
X161714611Y-102531200D01*
X142664611Y-104567611D02*
X142664611Y-102531200D01*
X123614611Y-104567611D02*
X123614611Y-102531200D01*
X218864611Y-85517611D02*
X218864611Y-83481200D01*
X199814611Y-85517611D02*
X199814611Y-83481200D01*
X180764611Y-85517611D02*
X180764611Y-83481200D01*
X161714611Y-85517611D02*
X161714611Y-83481200D01*
X142664611Y-85517611D02*
X142664611Y-83481200D01*
X123614611Y-85517611D02*
X123614611Y-83481200D01*
X218864611Y-66467611D02*
X218864611Y-64431200D01*
X199814611Y-66467611D02*
X199814611Y-64431200D01*
X180764611Y-66467611D02*
X180764611Y-64431200D01*
X161714611Y-66467611D02*
X161714611Y-64431200D01*
X142664611Y-66467611D02*
X142664611Y-64431200D01*
X123614611Y-66467611D02*
X123614611Y-64431200D01*
X218864611Y-47417611D02*
X218864611Y-45381200D01*
X199814611Y-47417611D02*
X199814611Y-45381200D01*
X180764611Y-47417611D02*
X180764611Y-45381200D01*
X161714611Y-47417611D02*
X161714611Y-45381200D01*
X142664611Y-47417611D02*
X142664611Y-45381200D01*
%TO.N,Net-(SW8-Pad1)*%
X221539813Y-143012560D02*
X222103014Y-143012560D01*
X202489813Y-143012560D02*
X203053014Y-143012560D01*
X183439813Y-143012560D02*
X184003014Y-143012560D01*
X164389813Y-143012560D02*
X164953014Y-143012560D01*
X145339813Y-143012560D02*
X145903014Y-143012560D01*
X126289813Y-143012560D02*
X126853014Y-143012560D01*
X221539813Y-123962560D02*
X222103014Y-123962560D01*
X202489813Y-123962560D02*
X203053014Y-123962560D01*
X183439813Y-123962560D02*
X184003014Y-123962560D01*
X164389813Y-123962560D02*
X164953014Y-123962560D01*
X145339813Y-123962560D02*
X145903014Y-123962560D01*
X126289813Y-123962560D02*
X126853014Y-123962560D01*
X221539813Y-104912560D02*
X222103014Y-104912560D01*
X202489813Y-104912560D02*
X203053014Y-104912560D01*
X183439813Y-104912560D02*
X184003014Y-104912560D01*
X164389813Y-104912560D02*
X164953014Y-104912560D01*
X145339813Y-104912560D02*
X145903014Y-104912560D01*
X126289813Y-104912560D02*
X126853014Y-104912560D01*
X221539813Y-85862560D02*
X222103014Y-85862560D01*
X202489813Y-85862560D02*
X203053014Y-85862560D01*
X183439813Y-85862560D02*
X184003014Y-85862560D01*
X164389813Y-85862560D02*
X164953014Y-85862560D01*
X145339813Y-85862560D02*
X145903014Y-85862560D01*
X126289813Y-85862560D02*
X126853014Y-85862560D01*
X221539813Y-66812560D02*
X222103014Y-66812560D01*
X202489813Y-66812560D02*
X203053014Y-66812560D01*
X183439813Y-66812560D02*
X184003014Y-66812560D01*
X164389813Y-66812560D02*
X164953014Y-66812560D01*
X145339813Y-66812560D02*
X145903014Y-66812560D01*
X126289813Y-66812560D02*
X126853014Y-66812560D01*
X221539813Y-47762560D02*
X222103014Y-47762560D01*
X202489813Y-47762560D02*
X203053014Y-47762560D01*
X183439813Y-47762560D02*
X184003014Y-47762560D01*
X164389813Y-47762560D02*
X164953014Y-47762560D01*
X145339813Y-47762560D02*
X145903014Y-47762560D01*
%TO.N,Net-(SW1-Pad11)*%
X216763600Y-140817600D02*
X218160600Y-140817600D01*
X197713600Y-140817600D02*
X199110600Y-140817600D01*
X178663600Y-140817600D02*
X180060600Y-140817600D01*
X159613600Y-140817600D02*
X161010600Y-140817600D01*
X140563600Y-140817600D02*
X141960600Y-140817600D01*
X216763600Y-121767600D02*
X218160600Y-121767600D01*
X197713600Y-121767600D02*
X199110600Y-121767600D01*
X178663600Y-121767600D02*
X180060600Y-121767600D01*
X159613600Y-121767600D02*
X161010600Y-121767600D01*
X140563600Y-121767600D02*
X141960600Y-121767600D01*
X216763600Y-102717600D02*
X218160600Y-102717600D01*
X197713600Y-102717600D02*
X199110600Y-102717600D01*
X178663600Y-102717600D02*
X180060600Y-102717600D01*
X159613600Y-102717600D02*
X161010600Y-102717600D01*
X140563600Y-102717600D02*
X141960600Y-102717600D01*
X216763600Y-83667600D02*
X218160600Y-83667600D01*
X197713600Y-83667600D02*
X199110600Y-83667600D01*
X178663600Y-83667600D02*
X180060600Y-83667600D01*
X159613600Y-83667600D02*
X161010600Y-83667600D01*
X140563600Y-83667600D02*
X141960600Y-83667600D01*
X216763600Y-64617600D02*
X218160600Y-64617600D01*
X197713600Y-64617600D02*
X199110600Y-64617600D01*
X178663600Y-64617600D02*
X180060600Y-64617600D01*
X159613600Y-64617600D02*
X161010600Y-64617600D01*
X140563600Y-64617600D02*
X141960600Y-64617600D01*
X216763600Y-45567600D02*
X218160600Y-45567600D01*
X197713600Y-45567600D02*
X199110600Y-45567600D01*
X178663600Y-45567600D02*
X180060600Y-45567600D01*
X159613600Y-45567600D02*
X161010600Y-45567600D01*
X140563600Y-45567600D02*
X141960600Y-45567600D01*
X231876600Y-145138600D02*
X233541510Y-143473690D01*
X212826600Y-145138600D02*
X214491510Y-143473690D01*
X193776600Y-145138600D02*
X195441510Y-143473690D01*
X174726600Y-145138600D02*
X176391510Y-143473690D01*
X155676600Y-145138600D02*
X157341510Y-143473690D01*
X136626600Y-145138600D02*
X138291510Y-143473690D01*
X231876600Y-126088600D02*
X233541510Y-124423690D01*
X212826600Y-126088600D02*
X214491510Y-124423690D01*
X193776600Y-126088600D02*
X195441510Y-124423690D01*
X174726600Y-126088600D02*
X176391510Y-124423690D01*
X155676600Y-126088600D02*
X157341510Y-124423690D01*
X136626600Y-126088600D02*
X138291510Y-124423690D01*
X231876600Y-107038600D02*
X233541510Y-105373690D01*
X212826600Y-107038600D02*
X214491510Y-105373690D01*
X193776600Y-107038600D02*
X195441510Y-105373690D01*
X174726600Y-107038600D02*
X176391510Y-105373690D01*
X155676600Y-107038600D02*
X157341510Y-105373690D01*
X136626600Y-107038600D02*
X138291510Y-105373690D01*
X231876600Y-87988600D02*
X233541510Y-86323690D01*
X212826600Y-87988600D02*
X214491510Y-86323690D01*
X193776600Y-87988600D02*
X195441510Y-86323690D01*
X174726600Y-87988600D02*
X176391510Y-86323690D01*
X155676600Y-87988600D02*
X157341510Y-86323690D01*
X136626600Y-87988600D02*
X138291510Y-86323690D01*
X231876600Y-68938600D02*
X233541510Y-67273690D01*
X212826600Y-68938600D02*
X214491510Y-67273690D01*
X193776600Y-68938600D02*
X195441510Y-67273690D01*
X174726600Y-68938600D02*
X176391510Y-67273690D01*
X155676600Y-68938600D02*
X157341510Y-67273690D01*
X136626600Y-68938600D02*
X138291510Y-67273690D01*
X231876600Y-49888600D02*
X233541510Y-48223690D01*
X212826600Y-49888600D02*
X214491510Y-48223690D01*
X193776600Y-49888600D02*
X195441510Y-48223690D01*
X174726600Y-49888600D02*
X176391510Y-48223690D01*
X155676600Y-49888600D02*
X157341510Y-48223690D01*
%TO.N,Net-(SW8-Pad10)*%
X218543011Y-140309600D02*
X216506600Y-140309600D01*
X199493011Y-140309600D02*
X197456600Y-140309600D01*
X180443011Y-140309600D02*
X178406600Y-140309600D01*
X161393011Y-140309600D02*
X159356600Y-140309600D01*
X142343011Y-140309600D02*
X140306600Y-140309600D01*
X218543011Y-121259600D02*
X216506600Y-121259600D01*
X199493011Y-121259600D02*
X197456600Y-121259600D01*
X180443011Y-121259600D02*
X178406600Y-121259600D01*
X161393011Y-121259600D02*
X159356600Y-121259600D01*
X142343011Y-121259600D02*
X140306600Y-121259600D01*
X218543011Y-102209600D02*
X216506600Y-102209600D01*
X199493011Y-102209600D02*
X197456600Y-102209600D01*
X180443011Y-102209600D02*
X178406600Y-102209600D01*
X161393011Y-102209600D02*
X159356600Y-102209600D01*
X142343011Y-102209600D02*
X140306600Y-102209600D01*
X218543011Y-83159600D02*
X216506600Y-83159600D01*
X199493011Y-83159600D02*
X197456600Y-83159600D01*
X180443011Y-83159600D02*
X178406600Y-83159600D01*
X161393011Y-83159600D02*
X159356600Y-83159600D01*
X142343011Y-83159600D02*
X140306600Y-83159600D01*
X218543011Y-64109600D02*
X216506600Y-64109600D01*
X199493011Y-64109600D02*
X197456600Y-64109600D01*
X180443011Y-64109600D02*
X178406600Y-64109600D01*
X161393011Y-64109600D02*
X159356600Y-64109600D01*
X142343011Y-64109600D02*
X140306600Y-64109600D01*
X218543011Y-45059600D02*
X216506600Y-45059600D01*
X199493011Y-45059600D02*
X197456600Y-45059600D01*
X180443011Y-45059600D02*
X178406600Y-45059600D01*
X161393011Y-45059600D02*
X159356600Y-45059600D01*
X142343011Y-45059600D02*
X140306600Y-45059600D01*
X218864611Y-140631200D02*
X218543011Y-140309600D01*
X199814611Y-140631200D02*
X199493011Y-140309600D01*
X180764611Y-140631200D02*
X180443011Y-140309600D01*
X161714611Y-140631200D02*
X161393011Y-140309600D01*
X142664611Y-140631200D02*
X142343011Y-140309600D01*
X123614611Y-140631200D02*
X123293011Y-140309600D01*
X218864611Y-121581200D02*
X218543011Y-121259600D01*
X199814611Y-121581200D02*
X199493011Y-121259600D01*
X180764611Y-121581200D02*
X180443011Y-121259600D01*
X161714611Y-121581200D02*
X161393011Y-121259600D01*
X142664611Y-121581200D02*
X142343011Y-121259600D01*
X123614611Y-121581200D02*
X123293011Y-121259600D01*
X218864611Y-102531200D02*
X218543011Y-102209600D01*
X199814611Y-102531200D02*
X199493011Y-102209600D01*
X180764611Y-102531200D02*
X180443011Y-102209600D01*
X161714611Y-102531200D02*
X161393011Y-102209600D01*
X142664611Y-102531200D02*
X142343011Y-102209600D01*
X123614611Y-102531200D02*
X123293011Y-102209600D01*
X218864611Y-83481200D02*
X218543011Y-83159600D01*
X199814611Y-83481200D02*
X199493011Y-83159600D01*
X180764611Y-83481200D02*
X180443011Y-83159600D01*
X161714611Y-83481200D02*
X161393011Y-83159600D01*
X142664611Y-83481200D02*
X142343011Y-83159600D01*
X123614611Y-83481200D02*
X123293011Y-83159600D01*
X218864611Y-64431200D02*
X218543011Y-64109600D01*
X199814611Y-64431200D02*
X199493011Y-64109600D01*
X180764611Y-64431200D02*
X180443011Y-64109600D01*
X161714611Y-64431200D02*
X161393011Y-64109600D01*
X142664611Y-64431200D02*
X142343011Y-64109600D01*
X123614611Y-64431200D02*
X123293011Y-64109600D01*
X218864611Y-45381200D02*
X218543011Y-45059600D01*
X199814611Y-45381200D02*
X199493011Y-45059600D01*
X180764611Y-45381200D02*
X180443011Y-45059600D01*
X161714611Y-45381200D02*
X161393011Y-45059600D01*
X142664611Y-45381200D02*
X142343011Y-45059600D01*
%TO.N,Net-(SW1-Pad11)*%
X218414600Y-141071600D02*
X218414600Y-144500600D01*
X199364600Y-141071600D02*
X199364600Y-144500600D01*
X180314600Y-141071600D02*
X180314600Y-144500600D01*
X161264600Y-141071600D02*
X161264600Y-144500600D01*
X142214600Y-141071600D02*
X142214600Y-144500600D01*
X123164600Y-141071600D02*
X123164600Y-144500600D01*
X218414600Y-122021600D02*
X218414600Y-125450600D01*
X199364600Y-122021600D02*
X199364600Y-125450600D01*
X180314600Y-122021600D02*
X180314600Y-125450600D01*
X161264600Y-122021600D02*
X161264600Y-125450600D01*
X142214600Y-122021600D02*
X142214600Y-125450600D01*
X123164600Y-122021600D02*
X123164600Y-125450600D01*
X218414600Y-102971600D02*
X218414600Y-106400600D01*
X199364600Y-102971600D02*
X199364600Y-106400600D01*
X180314600Y-102971600D02*
X180314600Y-106400600D01*
X161264600Y-102971600D02*
X161264600Y-106400600D01*
X142214600Y-102971600D02*
X142214600Y-106400600D01*
X123164600Y-102971600D02*
X123164600Y-106400600D01*
X218414600Y-83921600D02*
X218414600Y-87350600D01*
X199364600Y-83921600D02*
X199364600Y-87350600D01*
X180314600Y-83921600D02*
X180314600Y-87350600D01*
X161264600Y-83921600D02*
X161264600Y-87350600D01*
X142214600Y-83921600D02*
X142214600Y-87350600D01*
X123164600Y-83921600D02*
X123164600Y-87350600D01*
X218414600Y-64871600D02*
X218414600Y-68300600D01*
X199364600Y-64871600D02*
X199364600Y-68300600D01*
X180314600Y-64871600D02*
X180314600Y-68300600D01*
X161264600Y-64871600D02*
X161264600Y-68300600D01*
X142214600Y-64871600D02*
X142214600Y-68300600D01*
X123164600Y-64871600D02*
X123164600Y-68300600D01*
X218414600Y-45821600D02*
X218414600Y-49250600D01*
X199364600Y-45821600D02*
X199364600Y-49250600D01*
X180314600Y-45821600D02*
X180314600Y-49250600D01*
X161264600Y-45821600D02*
X161264600Y-49250600D01*
X142214600Y-45821600D02*
X142214600Y-49250600D01*
%TO.N,Net-(SW8-Pad1)*%
X219055600Y-138026600D02*
X219314622Y-138285622D01*
X200005600Y-138026600D02*
X200264622Y-138285622D01*
X180955600Y-138026600D02*
X181214622Y-138285622D01*
X161905600Y-138026600D02*
X162164622Y-138285622D01*
X142855600Y-138026600D02*
X143114622Y-138285622D01*
X123805600Y-138026600D02*
X124064622Y-138285622D01*
X219055600Y-118976600D02*
X219314622Y-119235622D01*
X200005600Y-118976600D02*
X200264622Y-119235622D01*
X180955600Y-118976600D02*
X181214622Y-119235622D01*
X161905600Y-118976600D02*
X162164622Y-119235622D01*
X142855600Y-118976600D02*
X143114622Y-119235622D01*
X123805600Y-118976600D02*
X124064622Y-119235622D01*
X219055600Y-99926600D02*
X219314622Y-100185622D01*
X200005600Y-99926600D02*
X200264622Y-100185622D01*
X180955600Y-99926600D02*
X181214622Y-100185622D01*
X161905600Y-99926600D02*
X162164622Y-100185622D01*
X142855600Y-99926600D02*
X143114622Y-100185622D01*
X123805600Y-99926600D02*
X124064622Y-100185622D01*
X219055600Y-80876600D02*
X219314622Y-81135622D01*
X200005600Y-80876600D02*
X200264622Y-81135622D01*
X180955600Y-80876600D02*
X181214622Y-81135622D01*
X161905600Y-80876600D02*
X162164622Y-81135622D01*
X142855600Y-80876600D02*
X143114622Y-81135622D01*
X123805600Y-80876600D02*
X124064622Y-81135622D01*
X219055600Y-61826600D02*
X219314622Y-62085622D01*
X200005600Y-61826600D02*
X200264622Y-62085622D01*
X180955600Y-61826600D02*
X181214622Y-62085622D01*
X161905600Y-61826600D02*
X162164622Y-62085622D01*
X142855600Y-61826600D02*
X143114622Y-62085622D01*
X123805600Y-61826600D02*
X124064622Y-62085622D01*
X219055600Y-42776600D02*
X219314622Y-43035622D01*
X200005600Y-42776600D02*
X200264622Y-43035622D01*
X180955600Y-42776600D02*
X181214622Y-43035622D01*
X161905600Y-42776600D02*
X162164622Y-43035622D01*
X142855600Y-42776600D02*
X143114622Y-43035622D01*
X219314622Y-138285622D02*
X219314622Y-140787369D01*
X200264622Y-138285622D02*
X200264622Y-140787369D01*
X181214622Y-138285622D02*
X181214622Y-140787369D01*
X162164622Y-138285622D02*
X162164622Y-140787369D01*
X143114622Y-138285622D02*
X143114622Y-140787369D01*
X124064622Y-138285622D02*
X124064622Y-140787369D01*
X219314622Y-119235622D02*
X219314622Y-121737369D01*
X200264622Y-119235622D02*
X200264622Y-121737369D01*
X181214622Y-119235622D02*
X181214622Y-121737369D01*
X162164622Y-119235622D02*
X162164622Y-121737369D01*
X143114622Y-119235622D02*
X143114622Y-121737369D01*
X124064622Y-119235622D02*
X124064622Y-121737369D01*
X219314622Y-100185622D02*
X219314622Y-102687369D01*
X200264622Y-100185622D02*
X200264622Y-102687369D01*
X181214622Y-100185622D02*
X181214622Y-102687369D01*
X162164622Y-100185622D02*
X162164622Y-102687369D01*
X143114622Y-100185622D02*
X143114622Y-102687369D01*
X124064622Y-100185622D02*
X124064622Y-102687369D01*
X219314622Y-81135622D02*
X219314622Y-83637369D01*
X200264622Y-81135622D02*
X200264622Y-83637369D01*
X181214622Y-81135622D02*
X181214622Y-83637369D01*
X162164622Y-81135622D02*
X162164622Y-83637369D01*
X143114622Y-81135622D02*
X143114622Y-83637369D01*
X124064622Y-81135622D02*
X124064622Y-83637369D01*
X219314622Y-62085622D02*
X219314622Y-64587369D01*
X200264622Y-62085622D02*
X200264622Y-64587369D01*
X181214622Y-62085622D02*
X181214622Y-64587369D01*
X162164622Y-62085622D02*
X162164622Y-64587369D01*
X143114622Y-62085622D02*
X143114622Y-64587369D01*
X124064622Y-62085622D02*
X124064622Y-64587369D01*
X219314622Y-43035622D02*
X219314622Y-45537369D01*
X200264622Y-43035622D02*
X200264622Y-45537369D01*
X181214622Y-43035622D02*
X181214622Y-45537369D01*
X162164622Y-43035622D02*
X162164622Y-45537369D01*
X143114622Y-43035622D02*
X143114622Y-45537369D01*
%TO.N,Net-(SW1-Pad11)*%
X233541510Y-143473690D02*
X233541510Y-141946690D01*
X214491510Y-143473690D02*
X214491510Y-141946690D01*
X195441510Y-143473690D02*
X195441510Y-141946690D01*
X176391510Y-143473690D02*
X176391510Y-141946690D01*
X157341510Y-143473690D02*
X157341510Y-141946690D01*
X138291510Y-143473690D02*
X138291510Y-141946690D01*
X233541510Y-124423690D02*
X233541510Y-122896690D01*
X214491510Y-124423690D02*
X214491510Y-122896690D01*
X195441510Y-124423690D02*
X195441510Y-122896690D01*
X176391510Y-124423690D02*
X176391510Y-122896690D01*
X157341510Y-124423690D02*
X157341510Y-122896690D01*
X138291510Y-124423690D02*
X138291510Y-122896690D01*
X233541510Y-105373690D02*
X233541510Y-103846690D01*
X214491510Y-105373690D02*
X214491510Y-103846690D01*
X195441510Y-105373690D02*
X195441510Y-103846690D01*
X176391510Y-105373690D02*
X176391510Y-103846690D01*
X157341510Y-105373690D02*
X157341510Y-103846690D01*
X138291510Y-105373690D02*
X138291510Y-103846690D01*
X233541510Y-86323690D02*
X233541510Y-84796690D01*
X214491510Y-86323690D02*
X214491510Y-84796690D01*
X195441510Y-86323690D02*
X195441510Y-84796690D01*
X176391510Y-86323690D02*
X176391510Y-84796690D01*
X157341510Y-86323690D02*
X157341510Y-84796690D01*
X138291510Y-86323690D02*
X138291510Y-84796690D01*
X233541510Y-67273690D02*
X233541510Y-65746690D01*
X214491510Y-67273690D02*
X214491510Y-65746690D01*
X195441510Y-67273690D02*
X195441510Y-65746690D01*
X176391510Y-67273690D02*
X176391510Y-65746690D01*
X157341510Y-67273690D02*
X157341510Y-65746690D01*
X138291510Y-67273690D02*
X138291510Y-65746690D01*
X233541510Y-48223690D02*
X233541510Y-46696690D01*
X214491510Y-48223690D02*
X214491510Y-46696690D01*
X195441510Y-48223690D02*
X195441510Y-46696690D01*
X176391510Y-48223690D02*
X176391510Y-46696690D01*
X157341510Y-48223690D02*
X157341510Y-46696690D01*
X215620600Y-140817600D02*
X217271600Y-140817600D01*
X196570600Y-140817600D02*
X198221600Y-140817600D01*
X177520600Y-140817600D02*
X179171600Y-140817600D01*
X158470600Y-140817600D02*
X160121600Y-140817600D01*
X139420600Y-140817600D02*
X141071600Y-140817600D01*
X215620600Y-121767600D02*
X217271600Y-121767600D01*
X196570600Y-121767600D02*
X198221600Y-121767600D01*
X177520600Y-121767600D02*
X179171600Y-121767600D01*
X158470600Y-121767600D02*
X160121600Y-121767600D01*
X139420600Y-121767600D02*
X141071600Y-121767600D01*
X215620600Y-102717600D02*
X217271600Y-102717600D01*
X196570600Y-102717600D02*
X198221600Y-102717600D01*
X177520600Y-102717600D02*
X179171600Y-102717600D01*
X158470600Y-102717600D02*
X160121600Y-102717600D01*
X139420600Y-102717600D02*
X141071600Y-102717600D01*
X215620600Y-83667600D02*
X217271600Y-83667600D01*
X196570600Y-83667600D02*
X198221600Y-83667600D01*
X177520600Y-83667600D02*
X179171600Y-83667600D01*
X158470600Y-83667600D02*
X160121600Y-83667600D01*
X139420600Y-83667600D02*
X141071600Y-83667600D01*
X215620600Y-64617600D02*
X217271600Y-64617600D01*
X196570600Y-64617600D02*
X198221600Y-64617600D01*
X177520600Y-64617600D02*
X179171600Y-64617600D01*
X158470600Y-64617600D02*
X160121600Y-64617600D01*
X139420600Y-64617600D02*
X141071600Y-64617600D01*
X215620600Y-45567600D02*
X217271600Y-45567600D01*
X196570600Y-45567600D02*
X198221600Y-45567600D01*
X177520600Y-45567600D02*
X179171600Y-45567600D01*
X158470600Y-45567600D02*
X160121600Y-45567600D01*
X233541510Y-141946690D02*
X234670600Y-140817600D01*
X214491510Y-141946690D02*
X215620600Y-140817600D01*
X195441510Y-141946690D02*
X196570600Y-140817600D01*
X176391510Y-141946690D02*
X177520600Y-140817600D01*
X157341510Y-141946690D02*
X158470600Y-140817600D01*
X138291510Y-141946690D02*
X139420600Y-140817600D01*
X233541510Y-122896690D02*
X234670600Y-121767600D01*
X214491510Y-122896690D02*
X215620600Y-121767600D01*
X195441510Y-122896690D02*
X196570600Y-121767600D01*
X176391510Y-122896690D02*
X177520600Y-121767600D01*
X157341510Y-122896690D02*
X158470600Y-121767600D01*
X138291510Y-122896690D02*
X139420600Y-121767600D01*
X233541510Y-103846690D02*
X234670600Y-102717600D01*
X214491510Y-103846690D02*
X215620600Y-102717600D01*
X195441510Y-103846690D02*
X196570600Y-102717600D01*
X176391510Y-103846690D02*
X177520600Y-102717600D01*
X157341510Y-103846690D02*
X158470600Y-102717600D01*
X138291510Y-103846690D02*
X139420600Y-102717600D01*
X233541510Y-84796690D02*
X234670600Y-83667600D01*
X214491510Y-84796690D02*
X215620600Y-83667600D01*
X195441510Y-84796690D02*
X196570600Y-83667600D01*
X176391510Y-84796690D02*
X177520600Y-83667600D01*
X157341510Y-84796690D02*
X158470600Y-83667600D01*
X138291510Y-84796690D02*
X139420600Y-83667600D01*
X233541510Y-65746690D02*
X234670600Y-64617600D01*
X214491510Y-65746690D02*
X215620600Y-64617600D01*
X195441510Y-65746690D02*
X196570600Y-64617600D01*
X176391510Y-65746690D02*
X177520600Y-64617600D01*
X157341510Y-65746690D02*
X158470600Y-64617600D01*
X138291510Y-65746690D02*
X139420600Y-64617600D01*
X233541510Y-46696690D02*
X234670600Y-45567600D01*
X214491510Y-46696690D02*
X215620600Y-45567600D01*
X195441510Y-46696690D02*
X196570600Y-45567600D01*
X176391510Y-46696690D02*
X177520600Y-45567600D01*
X157341510Y-46696690D02*
X158470600Y-45567600D01*
X218414600Y-144500600D02*
X219176600Y-145262600D01*
X199364600Y-144500600D02*
X200126600Y-145262600D01*
X180314600Y-144500600D02*
X181076600Y-145262600D01*
X161264600Y-144500600D02*
X162026600Y-145262600D01*
X142214600Y-144500600D02*
X142976600Y-145262600D01*
X123164600Y-144500600D02*
X123926600Y-145262600D01*
X218414600Y-125450600D02*
X219176600Y-126212600D01*
X199364600Y-125450600D02*
X200126600Y-126212600D01*
X180314600Y-125450600D02*
X181076600Y-126212600D01*
X161264600Y-125450600D02*
X162026600Y-126212600D01*
X142214600Y-125450600D02*
X142976600Y-126212600D01*
X123164600Y-125450600D02*
X123926600Y-126212600D01*
X218414600Y-106400600D02*
X219176600Y-107162600D01*
X199364600Y-106400600D02*
X200126600Y-107162600D01*
X180314600Y-106400600D02*
X181076600Y-107162600D01*
X161264600Y-106400600D02*
X162026600Y-107162600D01*
X142214600Y-106400600D02*
X142976600Y-107162600D01*
X123164600Y-106400600D02*
X123926600Y-107162600D01*
X218414600Y-87350600D02*
X219176600Y-88112600D01*
X199364600Y-87350600D02*
X200126600Y-88112600D01*
X180314600Y-87350600D02*
X181076600Y-88112600D01*
X161264600Y-87350600D02*
X162026600Y-88112600D01*
X142214600Y-87350600D02*
X142976600Y-88112600D01*
X123164600Y-87350600D02*
X123926600Y-88112600D01*
X218414600Y-68300600D02*
X219176600Y-69062600D01*
X199364600Y-68300600D02*
X200126600Y-69062600D01*
X180314600Y-68300600D02*
X181076600Y-69062600D01*
X161264600Y-68300600D02*
X162026600Y-69062600D01*
X142214600Y-68300600D02*
X142976600Y-69062600D01*
X123164600Y-68300600D02*
X123926600Y-69062600D01*
X218414600Y-49250600D02*
X219176600Y-50012600D01*
X199364600Y-49250600D02*
X200126600Y-50012600D01*
X180314600Y-49250600D02*
X181076600Y-50012600D01*
X161264600Y-49250600D02*
X162026600Y-50012600D01*
X142214600Y-49250600D02*
X142976600Y-50012600D01*
%TO.N,Net-(SW8-Pad10)*%
X219811600Y-143614600D02*
X218864611Y-142667611D01*
X200761600Y-143614600D02*
X199814611Y-142667611D01*
X181711600Y-143614600D02*
X180764611Y-142667611D01*
X162661600Y-143614600D02*
X161714611Y-142667611D01*
X143611600Y-143614600D02*
X142664611Y-142667611D01*
X124561600Y-143614600D02*
X123614611Y-142667611D01*
X219811600Y-124564600D02*
X218864611Y-123617611D01*
X200761600Y-124564600D02*
X199814611Y-123617611D01*
X181711600Y-124564600D02*
X180764611Y-123617611D01*
X162661600Y-124564600D02*
X161714611Y-123617611D01*
X143611600Y-124564600D02*
X142664611Y-123617611D01*
X124561600Y-124564600D02*
X123614611Y-123617611D01*
X219811600Y-105514600D02*
X218864611Y-104567611D01*
X200761600Y-105514600D02*
X199814611Y-104567611D01*
X181711600Y-105514600D02*
X180764611Y-104567611D01*
X162661600Y-105514600D02*
X161714611Y-104567611D01*
X143611600Y-105514600D02*
X142664611Y-104567611D01*
X124561600Y-105514600D02*
X123614611Y-104567611D01*
X219811600Y-86464600D02*
X218864611Y-85517611D01*
X200761600Y-86464600D02*
X199814611Y-85517611D01*
X181711600Y-86464600D02*
X180764611Y-85517611D01*
X162661600Y-86464600D02*
X161714611Y-85517611D01*
X143611600Y-86464600D02*
X142664611Y-85517611D01*
X124561600Y-86464600D02*
X123614611Y-85517611D01*
X219811600Y-67414600D02*
X218864611Y-66467611D01*
X200761600Y-67414600D02*
X199814611Y-66467611D01*
X181711600Y-67414600D02*
X180764611Y-66467611D01*
X162661600Y-67414600D02*
X161714611Y-66467611D01*
X143611600Y-67414600D02*
X142664611Y-66467611D01*
X124561600Y-67414600D02*
X123614611Y-66467611D01*
X219811600Y-48364600D02*
X218864611Y-47417611D01*
X200761600Y-48364600D02*
X199814611Y-47417611D01*
X181711600Y-48364600D02*
X180764611Y-47417611D01*
X162661600Y-48364600D02*
X161714611Y-47417611D01*
X143611600Y-48364600D02*
X142664611Y-47417611D01*
%TO.N,Net-(SW14-Pad14)*%
X226517200Y-132918200D02*
X226517200Y-130886200D01*
X207467200Y-132918200D02*
X207467200Y-130886200D01*
X188417200Y-132918200D02*
X188417200Y-130886200D01*
X169367200Y-132918200D02*
X169367200Y-130886200D01*
X150317200Y-132918200D02*
X150317200Y-130886200D01*
X131267200Y-132918200D02*
X131267200Y-130886200D01*
X226517200Y-113868200D02*
X226517200Y-111836200D01*
X207467200Y-113868200D02*
X207467200Y-111836200D01*
X188417200Y-113868200D02*
X188417200Y-111836200D01*
X169367200Y-113868200D02*
X169367200Y-111836200D01*
X150317200Y-113868200D02*
X150317200Y-111836200D01*
X131267200Y-113868200D02*
X131267200Y-111836200D01*
X226517200Y-94818200D02*
X226517200Y-92786200D01*
X207467200Y-94818200D02*
X207467200Y-92786200D01*
X188417200Y-94818200D02*
X188417200Y-92786200D01*
X169367200Y-94818200D02*
X169367200Y-92786200D01*
X150317200Y-94818200D02*
X150317200Y-92786200D01*
X131267200Y-94818200D02*
X131267200Y-92786200D01*
X226517200Y-75768200D02*
X226517200Y-73736200D01*
X207467200Y-75768200D02*
X207467200Y-73736200D01*
X188417200Y-75768200D02*
X188417200Y-73736200D01*
X169367200Y-75768200D02*
X169367200Y-73736200D01*
X150317200Y-75768200D02*
X150317200Y-73736200D01*
X131267200Y-75768200D02*
X131267200Y-73736200D01*
X226517200Y-56718200D02*
X226517200Y-54686200D01*
X207467200Y-56718200D02*
X207467200Y-54686200D01*
X188417200Y-56718200D02*
X188417200Y-54686200D01*
X169367200Y-56718200D02*
X169367200Y-54686200D01*
X150317200Y-56718200D02*
X150317200Y-54686200D01*
X131267200Y-56718200D02*
X131267200Y-54686200D01*
%TO.N,Net-(SW1-Pad11)*%
X228828600Y-146408600D02*
X228828600Y-147167600D01*
X209778600Y-146408600D02*
X209778600Y-147167600D01*
X190728600Y-146408600D02*
X190728600Y-147167600D01*
X171678600Y-146408600D02*
X171678600Y-147167600D01*
X152628600Y-146408600D02*
X152628600Y-147167600D01*
X133578600Y-146408600D02*
X133578600Y-147167600D01*
X228828600Y-127358600D02*
X228828600Y-128117600D01*
X209778600Y-127358600D02*
X209778600Y-128117600D01*
X190728600Y-127358600D02*
X190728600Y-128117600D01*
X171678600Y-127358600D02*
X171678600Y-128117600D01*
X152628600Y-127358600D02*
X152628600Y-128117600D01*
X133578600Y-127358600D02*
X133578600Y-128117600D01*
X228828600Y-108308600D02*
X228828600Y-109067600D01*
X209778600Y-108308600D02*
X209778600Y-109067600D01*
X190728600Y-108308600D02*
X190728600Y-109067600D01*
X171678600Y-108308600D02*
X171678600Y-109067600D01*
X152628600Y-108308600D02*
X152628600Y-109067600D01*
X133578600Y-108308600D02*
X133578600Y-109067600D01*
X228828600Y-89258600D02*
X228828600Y-90017600D01*
X209778600Y-89258600D02*
X209778600Y-90017600D01*
X190728600Y-89258600D02*
X190728600Y-90017600D01*
X171678600Y-89258600D02*
X171678600Y-90017600D01*
X152628600Y-89258600D02*
X152628600Y-90017600D01*
X133578600Y-89258600D02*
X133578600Y-90017600D01*
X228828600Y-70208600D02*
X228828600Y-70967600D01*
X209778600Y-70208600D02*
X209778600Y-70967600D01*
X190728600Y-70208600D02*
X190728600Y-70967600D01*
X171678600Y-70208600D02*
X171678600Y-70967600D01*
X152628600Y-70208600D02*
X152628600Y-70967600D01*
X133578600Y-70208600D02*
X133578600Y-70967600D01*
X228828600Y-51158600D02*
X228828600Y-51917600D01*
X209778600Y-51158600D02*
X209778600Y-51917600D01*
X190728600Y-51158600D02*
X190728600Y-51917600D01*
X171678600Y-51158600D02*
X171678600Y-51917600D01*
X152628600Y-51158600D02*
X152628600Y-51917600D01*
X228828600Y-147167600D02*
X229082600Y-147421600D01*
X209778600Y-147167600D02*
X210032600Y-147421600D01*
X190728600Y-147167600D02*
X190982600Y-147421600D01*
X171678600Y-147167600D02*
X171932600Y-147421600D01*
X152628600Y-147167600D02*
X152882600Y-147421600D01*
X133578600Y-147167600D02*
X133832600Y-147421600D01*
X228828600Y-128117600D02*
X229082600Y-128371600D01*
X209778600Y-128117600D02*
X210032600Y-128371600D01*
X190728600Y-128117600D02*
X190982600Y-128371600D01*
X171678600Y-128117600D02*
X171932600Y-128371600D01*
X152628600Y-128117600D02*
X152882600Y-128371600D01*
X133578600Y-128117600D02*
X133832600Y-128371600D01*
X228828600Y-109067600D02*
X229082600Y-109321600D01*
X209778600Y-109067600D02*
X210032600Y-109321600D01*
X190728600Y-109067600D02*
X190982600Y-109321600D01*
X171678600Y-109067600D02*
X171932600Y-109321600D01*
X152628600Y-109067600D02*
X152882600Y-109321600D01*
X133578600Y-109067600D02*
X133832600Y-109321600D01*
X228828600Y-90017600D02*
X229082600Y-90271600D01*
X209778600Y-90017600D02*
X210032600Y-90271600D01*
X190728600Y-90017600D02*
X190982600Y-90271600D01*
X171678600Y-90017600D02*
X171932600Y-90271600D01*
X152628600Y-90017600D02*
X152882600Y-90271600D01*
X133578600Y-90017600D02*
X133832600Y-90271600D01*
X228828600Y-70967600D02*
X229082600Y-71221600D01*
X209778600Y-70967600D02*
X210032600Y-71221600D01*
X190728600Y-70967600D02*
X190982600Y-71221600D01*
X171678600Y-70967600D02*
X171932600Y-71221600D01*
X152628600Y-70967600D02*
X152882600Y-71221600D01*
X133578600Y-70967600D02*
X133832600Y-71221600D01*
X228828600Y-51917600D02*
X229082600Y-52171600D01*
X209778600Y-51917600D02*
X210032600Y-52171600D01*
X190728600Y-51917600D02*
X190982600Y-52171600D01*
X171678600Y-51917600D02*
X171932600Y-52171600D01*
X152628600Y-51917600D02*
X152882600Y-52171600D01*
X225299599Y-142891601D02*
X224241598Y-141833600D01*
X206249599Y-142891601D02*
X205191598Y-141833600D01*
X187199599Y-142891601D02*
X186141598Y-141833600D01*
X168149599Y-142891601D02*
X167091598Y-141833600D01*
X149099599Y-142891601D02*
X148041598Y-141833600D01*
X130049599Y-142891601D02*
X128991598Y-141833600D01*
X225299599Y-123841601D02*
X224241598Y-122783600D01*
X206249599Y-123841601D02*
X205191598Y-122783600D01*
X187199599Y-123841601D02*
X186141598Y-122783600D01*
X168149599Y-123841601D02*
X167091598Y-122783600D01*
X149099599Y-123841601D02*
X148041598Y-122783600D01*
X130049599Y-123841601D02*
X128991598Y-122783600D01*
X225299599Y-104791601D02*
X224241598Y-103733600D01*
X206249599Y-104791601D02*
X205191598Y-103733600D01*
X187199599Y-104791601D02*
X186141598Y-103733600D01*
X168149599Y-104791601D02*
X167091598Y-103733600D01*
X149099599Y-104791601D02*
X148041598Y-103733600D01*
X130049599Y-104791601D02*
X128991598Y-103733600D01*
X225299599Y-85741601D02*
X224241598Y-84683600D01*
X206249599Y-85741601D02*
X205191598Y-84683600D01*
X187199599Y-85741601D02*
X186141598Y-84683600D01*
X168149599Y-85741601D02*
X167091598Y-84683600D01*
X149099599Y-85741601D02*
X148041598Y-84683600D01*
X130049599Y-85741601D02*
X128991598Y-84683600D01*
X225299599Y-66691601D02*
X224241598Y-65633600D01*
X206249599Y-66691601D02*
X205191598Y-65633600D01*
X187199599Y-66691601D02*
X186141598Y-65633600D01*
X168149599Y-66691601D02*
X167091598Y-65633600D01*
X149099599Y-66691601D02*
X148041598Y-65633600D01*
X130049599Y-66691601D02*
X128991598Y-65633600D01*
X225299599Y-47641601D02*
X224241598Y-46583600D01*
X206249599Y-47641601D02*
X205191598Y-46583600D01*
X187199599Y-47641601D02*
X186141598Y-46583600D01*
X168149599Y-47641601D02*
X167091598Y-46583600D01*
X149099599Y-47641601D02*
X148041598Y-46583600D01*
%TO.N,Net-(SW1-Pad16)*%
X224434938Y-144302262D02*
X224434938Y-143052262D01*
X205384938Y-144302262D02*
X205384938Y-143052262D01*
X186334938Y-144302262D02*
X186334938Y-143052262D01*
X167284938Y-144302262D02*
X167284938Y-143052262D01*
X148234938Y-144302262D02*
X148234938Y-143052262D01*
X129184938Y-144302262D02*
X129184938Y-143052262D01*
X224434938Y-125252262D02*
X224434938Y-124002262D01*
X205384938Y-125252262D02*
X205384938Y-124002262D01*
X186334938Y-125252262D02*
X186334938Y-124002262D01*
X167284938Y-125252262D02*
X167284938Y-124002262D01*
X148234938Y-125252262D02*
X148234938Y-124002262D01*
X129184938Y-125252262D02*
X129184938Y-124002262D01*
X224434938Y-106202262D02*
X224434938Y-104952262D01*
X205384938Y-106202262D02*
X205384938Y-104952262D01*
X186334938Y-106202262D02*
X186334938Y-104952262D01*
X167284938Y-106202262D02*
X167284938Y-104952262D01*
X148234938Y-106202262D02*
X148234938Y-104952262D01*
X129184938Y-106202262D02*
X129184938Y-104952262D01*
X224434938Y-87152262D02*
X224434938Y-85902262D01*
X205384938Y-87152262D02*
X205384938Y-85902262D01*
X186334938Y-87152262D02*
X186334938Y-85902262D01*
X167284938Y-87152262D02*
X167284938Y-85902262D01*
X148234938Y-87152262D02*
X148234938Y-85902262D01*
X129184938Y-87152262D02*
X129184938Y-85902262D01*
X224434938Y-68102262D02*
X224434938Y-66852262D01*
X205384938Y-68102262D02*
X205384938Y-66852262D01*
X186334938Y-68102262D02*
X186334938Y-66852262D01*
X167284938Y-68102262D02*
X167284938Y-66852262D01*
X148234938Y-68102262D02*
X148234938Y-66852262D01*
X129184938Y-68102262D02*
X129184938Y-66852262D01*
X224434938Y-49052262D02*
X224434938Y-47802262D01*
X205384938Y-49052262D02*
X205384938Y-47802262D01*
X186334938Y-49052262D02*
X186334938Y-47802262D01*
X167284938Y-49052262D02*
X167284938Y-47802262D01*
X148234938Y-49052262D02*
X148234938Y-47802262D01*
%TO.N,Net-(SW14-Pad14)*%
X226517200Y-129032000D02*
X226517200Y-131191000D01*
X207467200Y-129032000D02*
X207467200Y-131191000D01*
X188417200Y-129032000D02*
X188417200Y-131191000D01*
X169367200Y-129032000D02*
X169367200Y-131191000D01*
X150317200Y-129032000D02*
X150317200Y-131191000D01*
X131267200Y-129032000D02*
X131267200Y-131191000D01*
X226517200Y-109982000D02*
X226517200Y-112141000D01*
X207467200Y-109982000D02*
X207467200Y-112141000D01*
X188417200Y-109982000D02*
X188417200Y-112141000D01*
X169367200Y-109982000D02*
X169367200Y-112141000D01*
X150317200Y-109982000D02*
X150317200Y-112141000D01*
X131267200Y-109982000D02*
X131267200Y-112141000D01*
X226517200Y-90932000D02*
X226517200Y-93091000D01*
X207467200Y-90932000D02*
X207467200Y-93091000D01*
X188417200Y-90932000D02*
X188417200Y-93091000D01*
X169367200Y-90932000D02*
X169367200Y-93091000D01*
X150317200Y-90932000D02*
X150317200Y-93091000D01*
X131267200Y-90932000D02*
X131267200Y-93091000D01*
X226517200Y-71882000D02*
X226517200Y-74041000D01*
X207467200Y-71882000D02*
X207467200Y-74041000D01*
X188417200Y-71882000D02*
X188417200Y-74041000D01*
X169367200Y-71882000D02*
X169367200Y-74041000D01*
X150317200Y-71882000D02*
X150317200Y-74041000D01*
X131267200Y-71882000D02*
X131267200Y-74041000D01*
X226517200Y-52832000D02*
X226517200Y-54991000D01*
X207467200Y-52832000D02*
X207467200Y-54991000D01*
X188417200Y-52832000D02*
X188417200Y-54991000D01*
X169367200Y-52832000D02*
X169367200Y-54991000D01*
X150317200Y-52832000D02*
X150317200Y-54991000D01*
X231368600Y-132946600D02*
X226545600Y-132946600D01*
X212318600Y-132946600D02*
X207495600Y-132946600D01*
X193268600Y-132946600D02*
X188445600Y-132946600D01*
X174218600Y-132946600D02*
X169395600Y-132946600D01*
X155168600Y-132946600D02*
X150345600Y-132946600D01*
X136118600Y-132946600D02*
X131295600Y-132946600D01*
X231368600Y-113896600D02*
X226545600Y-113896600D01*
X212318600Y-113896600D02*
X207495600Y-113896600D01*
X193268600Y-113896600D02*
X188445600Y-113896600D01*
X174218600Y-113896600D02*
X169395600Y-113896600D01*
X155168600Y-113896600D02*
X150345600Y-113896600D01*
X136118600Y-113896600D02*
X131295600Y-113896600D01*
X231368600Y-94846600D02*
X226545600Y-94846600D01*
X212318600Y-94846600D02*
X207495600Y-94846600D01*
X193268600Y-94846600D02*
X188445600Y-94846600D01*
X174218600Y-94846600D02*
X169395600Y-94846600D01*
X155168600Y-94846600D02*
X150345600Y-94846600D01*
X136118600Y-94846600D02*
X131295600Y-94846600D01*
X231368600Y-75796600D02*
X226545600Y-75796600D01*
X212318600Y-75796600D02*
X207495600Y-75796600D01*
X193268600Y-75796600D02*
X188445600Y-75796600D01*
X174218600Y-75796600D02*
X169395600Y-75796600D01*
X155168600Y-75796600D02*
X150345600Y-75796600D01*
X136118600Y-75796600D02*
X131295600Y-75796600D01*
X231368600Y-56746600D02*
X226545600Y-56746600D01*
X212318600Y-56746600D02*
X207495600Y-56746600D01*
X193268600Y-56746600D02*
X188445600Y-56746600D01*
X174218600Y-56746600D02*
X169395600Y-56746600D01*
X155168600Y-56746600D02*
X150345600Y-56746600D01*
X136118600Y-56746600D02*
X131295600Y-56746600D01*
X231368600Y-37696600D02*
X226545600Y-37696600D01*
X212318600Y-37696600D02*
X207495600Y-37696600D01*
X193268600Y-37696600D02*
X188445600Y-37696600D01*
X174218600Y-37696600D02*
X169395600Y-37696600D01*
X155168600Y-37696600D02*
X150345600Y-37696600D01*
X226545600Y-132946600D02*
X226517200Y-132918200D01*
X207495600Y-132946600D02*
X207467200Y-132918200D01*
X188445600Y-132946600D02*
X188417200Y-132918200D01*
X169395600Y-132946600D02*
X169367200Y-132918200D01*
X150345600Y-132946600D02*
X150317200Y-132918200D01*
X131295600Y-132946600D02*
X131267200Y-132918200D01*
X226545600Y-113896600D02*
X226517200Y-113868200D01*
X207495600Y-113896600D02*
X207467200Y-113868200D01*
X188445600Y-113896600D02*
X188417200Y-113868200D01*
X169395600Y-113896600D02*
X169367200Y-113868200D01*
X150345600Y-113896600D02*
X150317200Y-113868200D01*
X131295600Y-113896600D02*
X131267200Y-113868200D01*
X226545600Y-94846600D02*
X226517200Y-94818200D01*
X207495600Y-94846600D02*
X207467200Y-94818200D01*
X188445600Y-94846600D02*
X188417200Y-94818200D01*
X169395600Y-94846600D02*
X169367200Y-94818200D01*
X150345600Y-94846600D02*
X150317200Y-94818200D01*
X131295600Y-94846600D02*
X131267200Y-94818200D01*
X226545600Y-75796600D02*
X226517200Y-75768200D01*
X207495600Y-75796600D02*
X207467200Y-75768200D01*
X188445600Y-75796600D02*
X188417200Y-75768200D01*
X169395600Y-75796600D02*
X169367200Y-75768200D01*
X150345600Y-75796600D02*
X150317200Y-75768200D01*
X131295600Y-75796600D02*
X131267200Y-75768200D01*
X226545600Y-56746600D02*
X226517200Y-56718200D01*
X207495600Y-56746600D02*
X207467200Y-56718200D01*
X188445600Y-56746600D02*
X188417200Y-56718200D01*
X169395600Y-56746600D02*
X169367200Y-56718200D01*
X150345600Y-56746600D02*
X150317200Y-56718200D01*
X131295600Y-56746600D02*
X131267200Y-56718200D01*
X226545600Y-37696600D02*
X226517200Y-37668200D01*
X207495600Y-37696600D02*
X207467200Y-37668200D01*
X188445600Y-37696600D02*
X188417200Y-37668200D01*
X169395600Y-37696600D02*
X169367200Y-37668200D01*
X150345600Y-37696600D02*
X150317200Y-37668200D01*
X226796600Y-147802600D02*
X226517200Y-148082000D01*
X207746600Y-147802600D02*
X207467200Y-148082000D01*
X188696600Y-147802600D02*
X188417200Y-148082000D01*
X169646600Y-147802600D02*
X169367200Y-148082000D01*
X150596600Y-147802600D02*
X150317200Y-148082000D01*
X131546600Y-147802600D02*
X131267200Y-148082000D01*
X226796600Y-128752600D02*
X226517200Y-129032000D01*
X207746600Y-128752600D02*
X207467200Y-129032000D01*
X188696600Y-128752600D02*
X188417200Y-129032000D01*
X169646600Y-128752600D02*
X169367200Y-129032000D01*
X150596600Y-128752600D02*
X150317200Y-129032000D01*
X131546600Y-128752600D02*
X131267200Y-129032000D01*
X226796600Y-109702600D02*
X226517200Y-109982000D01*
X207746600Y-109702600D02*
X207467200Y-109982000D01*
X188696600Y-109702600D02*
X188417200Y-109982000D01*
X169646600Y-109702600D02*
X169367200Y-109982000D01*
X150596600Y-109702600D02*
X150317200Y-109982000D01*
X131546600Y-109702600D02*
X131267200Y-109982000D01*
X226796600Y-90652600D02*
X226517200Y-90932000D01*
X207746600Y-90652600D02*
X207467200Y-90932000D01*
X188696600Y-90652600D02*
X188417200Y-90932000D01*
X169646600Y-90652600D02*
X169367200Y-90932000D01*
X150596600Y-90652600D02*
X150317200Y-90932000D01*
X131546600Y-90652600D02*
X131267200Y-90932000D01*
X226796600Y-71602600D02*
X226517200Y-71882000D01*
X207746600Y-71602600D02*
X207467200Y-71882000D01*
X188696600Y-71602600D02*
X188417200Y-71882000D01*
X169646600Y-71602600D02*
X169367200Y-71882000D01*
X150596600Y-71602600D02*
X150317200Y-71882000D01*
X131546600Y-71602600D02*
X131267200Y-71882000D01*
X226796600Y-52552600D02*
X226517200Y-52832000D01*
X207746600Y-52552600D02*
X207467200Y-52832000D01*
X188696600Y-52552600D02*
X188417200Y-52832000D01*
X169646600Y-52552600D02*
X169367200Y-52832000D01*
X150596600Y-52552600D02*
X150317200Y-52832000D01*
%TO.N,Net-(SW1-Pad11)*%
X224241598Y-141833600D02*
X222859600Y-141833600D01*
X205191598Y-141833600D02*
X203809600Y-141833600D01*
X186141598Y-141833600D02*
X184759600Y-141833600D01*
X167091598Y-141833600D02*
X165709600Y-141833600D01*
X148041598Y-141833600D02*
X146659600Y-141833600D01*
X128991598Y-141833600D02*
X127609600Y-141833600D01*
X224241598Y-122783600D02*
X222859600Y-122783600D01*
X205191598Y-122783600D02*
X203809600Y-122783600D01*
X186141598Y-122783600D02*
X184759600Y-122783600D01*
X167091598Y-122783600D02*
X165709600Y-122783600D01*
X148041598Y-122783600D02*
X146659600Y-122783600D01*
X128991598Y-122783600D02*
X127609600Y-122783600D01*
X224241598Y-103733600D02*
X222859600Y-103733600D01*
X205191598Y-103733600D02*
X203809600Y-103733600D01*
X186141598Y-103733600D02*
X184759600Y-103733600D01*
X167091598Y-103733600D02*
X165709600Y-103733600D01*
X148041598Y-103733600D02*
X146659600Y-103733600D01*
X128991598Y-103733600D02*
X127609600Y-103733600D01*
X224241598Y-84683600D02*
X222859600Y-84683600D01*
X205191598Y-84683600D02*
X203809600Y-84683600D01*
X186141598Y-84683600D02*
X184759600Y-84683600D01*
X167091598Y-84683600D02*
X165709600Y-84683600D01*
X148041598Y-84683600D02*
X146659600Y-84683600D01*
X128991598Y-84683600D02*
X127609600Y-84683600D01*
X224241598Y-65633600D02*
X222859600Y-65633600D01*
X205191598Y-65633600D02*
X203809600Y-65633600D01*
X186141598Y-65633600D02*
X184759600Y-65633600D01*
X167091598Y-65633600D02*
X165709600Y-65633600D01*
X148041598Y-65633600D02*
X146659600Y-65633600D01*
X128991598Y-65633600D02*
X127609600Y-65633600D01*
X224241598Y-46583600D02*
X222859600Y-46583600D01*
X205191598Y-46583600D02*
X203809600Y-46583600D01*
X186141598Y-46583600D02*
X184759600Y-46583600D01*
X167091598Y-46583600D02*
X165709600Y-46583600D01*
X148041598Y-46583600D02*
X146659600Y-46583600D01*
%TO.N,Net-(SW1-Pad16)*%
X223828600Y-144908600D02*
X224434938Y-144302262D01*
X204778600Y-144908600D02*
X205384938Y-144302262D01*
X185728600Y-144908600D02*
X186334938Y-144302262D01*
X166678600Y-144908600D02*
X167284938Y-144302262D01*
X147628600Y-144908600D02*
X148234938Y-144302262D01*
X128578600Y-144908600D02*
X129184938Y-144302262D01*
X223828600Y-125858600D02*
X224434938Y-125252262D01*
X204778600Y-125858600D02*
X205384938Y-125252262D01*
X185728600Y-125858600D02*
X186334938Y-125252262D01*
X166678600Y-125858600D02*
X167284938Y-125252262D01*
X147628600Y-125858600D02*
X148234938Y-125252262D01*
X128578600Y-125858600D02*
X129184938Y-125252262D01*
X223828600Y-106808600D02*
X224434938Y-106202262D01*
X204778600Y-106808600D02*
X205384938Y-106202262D01*
X185728600Y-106808600D02*
X186334938Y-106202262D01*
X166678600Y-106808600D02*
X167284938Y-106202262D01*
X147628600Y-106808600D02*
X148234938Y-106202262D01*
X128578600Y-106808600D02*
X129184938Y-106202262D01*
X223828600Y-87758600D02*
X224434938Y-87152262D01*
X204778600Y-87758600D02*
X205384938Y-87152262D01*
X185728600Y-87758600D02*
X186334938Y-87152262D01*
X166678600Y-87758600D02*
X167284938Y-87152262D01*
X147628600Y-87758600D02*
X148234938Y-87152262D01*
X128578600Y-87758600D02*
X129184938Y-87152262D01*
X223828600Y-68708600D02*
X224434938Y-68102262D01*
X204778600Y-68708600D02*
X205384938Y-68102262D01*
X185728600Y-68708600D02*
X186334938Y-68102262D01*
X166678600Y-68708600D02*
X167284938Y-68102262D01*
X147628600Y-68708600D02*
X148234938Y-68102262D01*
X128578600Y-68708600D02*
X129184938Y-68102262D01*
X223828600Y-49658600D02*
X224434938Y-49052262D01*
X204778600Y-49658600D02*
X205384938Y-49052262D01*
X185728600Y-49658600D02*
X186334938Y-49052262D01*
X166678600Y-49658600D02*
X167284938Y-49052262D01*
X147628600Y-49658600D02*
X148234938Y-49052262D01*
%TO.N,Net-(SW1-Pad11)*%
X228786599Y-142891601D02*
X225299599Y-142891601D01*
X209736599Y-142891601D02*
X206249599Y-142891601D01*
X190686599Y-142891601D02*
X187199599Y-142891601D01*
X171636599Y-142891601D02*
X168149599Y-142891601D01*
X152586599Y-142891601D02*
X149099599Y-142891601D01*
X133536599Y-142891601D02*
X130049599Y-142891601D01*
X228786599Y-123841601D02*
X225299599Y-123841601D01*
X209736599Y-123841601D02*
X206249599Y-123841601D01*
X190686599Y-123841601D02*
X187199599Y-123841601D01*
X171636599Y-123841601D02*
X168149599Y-123841601D01*
X152586599Y-123841601D02*
X149099599Y-123841601D01*
X133536599Y-123841601D02*
X130049599Y-123841601D01*
X228786599Y-104791601D02*
X225299599Y-104791601D01*
X209736599Y-104791601D02*
X206249599Y-104791601D01*
X190686599Y-104791601D02*
X187199599Y-104791601D01*
X171636599Y-104791601D02*
X168149599Y-104791601D01*
X152586599Y-104791601D02*
X149099599Y-104791601D01*
X133536599Y-104791601D02*
X130049599Y-104791601D01*
X228786599Y-85741601D02*
X225299599Y-85741601D01*
X209736599Y-85741601D02*
X206249599Y-85741601D01*
X190686599Y-85741601D02*
X187199599Y-85741601D01*
X171636599Y-85741601D02*
X168149599Y-85741601D01*
X152586599Y-85741601D02*
X149099599Y-85741601D01*
X133536599Y-85741601D02*
X130049599Y-85741601D01*
X228786599Y-66691601D02*
X225299599Y-66691601D01*
X209736599Y-66691601D02*
X206249599Y-66691601D01*
X190686599Y-66691601D02*
X187199599Y-66691601D01*
X171636599Y-66691601D02*
X168149599Y-66691601D01*
X152586599Y-66691601D02*
X149099599Y-66691601D01*
X133536599Y-66691601D02*
X130049599Y-66691601D01*
X228786599Y-47641601D02*
X225299599Y-47641601D01*
X209736599Y-47641601D02*
X206249599Y-47641601D01*
X190686599Y-47641601D02*
X187199599Y-47641601D01*
X171636599Y-47641601D02*
X168149599Y-47641601D01*
X152586599Y-47641601D02*
X149099599Y-47641601D01*
%TO.N,Net-(SW14-Pad14)*%
X131295600Y-37696600D02*
X131267200Y-37668200D01*
X136118600Y-37696600D02*
X131295600Y-37696600D01*
X131546600Y-52552600D02*
X131267200Y-52832000D01*
X131267200Y-52832000D02*
X131267200Y-54991000D01*
%TO.N,Net-(SW1-Pad16)*%
X129184938Y-49052262D02*
X129184938Y-47802262D01*
X128578600Y-49658600D02*
X129184938Y-49052262D01*
%TO.N,Net-(SW1-Pad11)*%
X128991598Y-46583600D02*
X127609600Y-46583600D01*
X133536599Y-47641601D02*
X130049599Y-47641601D01*
X130049599Y-47641601D02*
X128991598Y-46583600D01*
X133578600Y-51158600D02*
X133578600Y-51917600D01*
X133578600Y-51917600D02*
X133832600Y-52171600D01*
X123164600Y-45821600D02*
X123164600Y-49250600D01*
X122910600Y-45567600D02*
X123164600Y-45821600D01*
%TO.N,Net-(SW8-Pad1)*%
X124064622Y-43035622D02*
X124064622Y-45537369D01*
%TO.N,Net-(SW8-Pad10)*%
X123614611Y-47417611D02*
X123614611Y-45381200D01*
%TO.N,Net-(SW8-Pad1)*%
X123805600Y-42776600D02*
X124064622Y-43035622D01*
X124064622Y-45537369D02*
X126289813Y-47762560D01*
%TO.N,Net-(SW8-Pad10)*%
X124561600Y-48364600D02*
X123614611Y-47417611D01*
X123614611Y-45381200D02*
X123293011Y-45059600D01*
%TO.N,Net-(SW8-Pad1)*%
X126289813Y-47762560D02*
X126853014Y-47762560D01*
%TO.N,Net-(SW1-Pad11)*%
X123164600Y-49250600D02*
X123926600Y-50012600D01*
X138291510Y-48223690D02*
X138291510Y-46696690D01*
X136626600Y-49888600D02*
X138291510Y-48223690D01*
X138291510Y-46696690D02*
X139420600Y-45567600D01*
X139420600Y-45567600D02*
X141071600Y-45567600D01*
%TO.N,Net-(SW10-Pad13)*%
X136374190Y-40236600D02*
X137255600Y-40236600D01*
X134284201Y-38146611D02*
X136374190Y-40236600D01*
X123545600Y-37696600D02*
X123995611Y-38146611D01*
X123995611Y-38146611D02*
X134284201Y-38146611D01*
%TO.N,Net-(SW1-Pad11)*%
X133536599Y-43620599D02*
X133451600Y-43535600D01*
X134679599Y-47641601D02*
X133536599Y-47641601D01*
X133536599Y-47641601D02*
X133536599Y-43620599D01*
%TO.N,Net-(SW1-Pad16)*%
X130355601Y-42649600D02*
X130276600Y-42728601D01*
X137007600Y-42649600D02*
X130355601Y-42649600D01*
%TO.N,Net-(SW1-Pad11)*%
X135356600Y-46964600D02*
X134679599Y-47641601D01*
%TO.N,Net-(SW14-Pad14)*%
X126741600Y-52552600D02*
X131546600Y-52552600D01*
X131930600Y-52936600D02*
X131546600Y-52552600D01*
X124945600Y-50756600D02*
X126741600Y-52552600D01*
X135483600Y-52936600D02*
X131930600Y-52936600D01*
%TO.N,Net-(SW7-Pad10)*%
X136626600Y-47729600D02*
X134697600Y-49658600D01*
X134697600Y-49658600D02*
X133578600Y-49658600D01*
X140563600Y-45059600D02*
X141071600Y-45059600D01*
X138912600Y-45059600D02*
X140563600Y-45059600D01*
X140309600Y-45059600D02*
X140563600Y-45059600D01*
X137841501Y-46130699D02*
X138912600Y-45059600D01*
X137841501Y-46514699D02*
X137841501Y-46130699D01*
X136626600Y-47729600D02*
X137841501Y-46514699D01*
%TO.N,Net-(SW1-Pad11)*%
X133578600Y-51158600D02*
X135356600Y-51158600D01*
X135356600Y-51158600D02*
X136626600Y-49888600D01*
%TO.N,Net-(SW10-Pad13)*%
X123545600Y-37696600D02*
X123545600Y-40614600D01*
%TO.N,Net-(SW8-Pad10)*%
X128578600Y-51158600D02*
X127487010Y-51158600D01*
X124693010Y-48364600D02*
X124561600Y-48364600D01*
X127487010Y-51158600D02*
X124693010Y-48364600D01*
%TO.N,Net-(SW10-Pad13)*%
X137255600Y-40236600D02*
X137255600Y-39226600D01*
X137255600Y-39226600D02*
X138785600Y-37696600D01*
%TD*%
M02*
