%TF.GenerationSoftware,KiCad,Pcbnew,(5.99.0-2043-g129c16cf7)*%
%TF.CreationDate,2020-07-21T11:43:29+02:00*%
%TF.ProjectId,plate_6x6,706c6174-655f-4367-9836-2e6b69636164,rev?*%
%TF.SameCoordinates,Original*%
%TF.FileFunction,Profile,NP*%
%FSLAX46Y46*%
G04 Gerber Fmt 4.6, Leading zero omitted, Abs format (unit mm)*
G04 Created by KiCad (PCBNEW (5.99.0-2043-g129c16cf7)) date 2020-07-21 11:43:29*
%MOMM*%
%LPD*%
G01*
G04 APERTURE LIST*
%TA.AperFunction,Profile*%
%ADD10C,0.200000*%
%TD*%
G04 APERTURE END LIST*
D10*
X152615110Y-131055000D02*
G75*
G03*
X152615110Y-131055000I-750000J0D01*
G01*
X130298889Y-131055000D02*
G75*
G03*
X130298889Y-131055000I-750000J0D01*
G01*
X222482000Y-110980000D02*
G75*
G02*
X222482000Y-113030000I0J-1025000D01*
G01*
X192282000Y-113030000D02*
G75*
G02*
X192282000Y-110980000I0J1025000D01*
G01*
X228815110Y-92955000D02*
G75*
G03*
X228815110Y-92955000I-750000J0D01*
G01*
X146282000Y-110980000D02*
G75*
G02*
X146282000Y-113030000I0J-1025000D01*
G01*
X152615110Y-112005000D02*
G75*
G03*
X152615110Y-112005000I-750000J0D01*
G01*
X130298889Y-112005000D02*
G75*
G03*
X130298889Y-112005000I-750000J0D01*
G01*
X203432000Y-91930000D02*
G75*
G02*
X203432000Y-93980000I0J-1025000D01*
G01*
X154182000Y-113030000D02*
G75*
G02*
X154182000Y-110980000I0J1025000D01*
G01*
X149348889Y-112005000D02*
G75*
G03*
X149348889Y-112005000I-750000J0D01*
G01*
X127231999Y-130030000D02*
G75*
G02*
X127231999Y-132080000I0J-1025000D01*
G01*
X165332000Y-130030000D02*
G75*
G02*
X165332000Y-132080000I0J-1025000D01*
G01*
X133565110Y-131055000D02*
G75*
G03*
X133565110Y-131055000I-750000J0D01*
G01*
X135132000Y-132080000D02*
G75*
G02*
X135132000Y-130030000I0J1025000D01*
G01*
X190715110Y-112005000D02*
G75*
G03*
X190715110Y-112005000I-750000J0D01*
G01*
X222482000Y-91930000D02*
G75*
G02*
X222482000Y-93980000I0J-1025000D01*
G01*
X225548889Y-92955000D02*
G75*
G03*
X225548889Y-92955000I-750000J0D01*
G01*
X230382000Y-113030000D02*
G75*
G02*
X230382000Y-110980000I0J1025000D01*
G01*
X228815110Y-112005000D02*
G75*
G03*
X228815110Y-112005000I-750000J0D01*
G01*
X225548889Y-131055000D02*
G75*
G03*
X225548889Y-131055000I-750000J0D01*
G01*
X206498889Y-131055000D02*
G75*
G03*
X206498889Y-131055000I-750000J0D01*
G01*
X184382000Y-130030000D02*
G75*
G02*
X184382000Y-132080000I0J-1025000D01*
G01*
X206498889Y-112005000D02*
G75*
G03*
X206498889Y-112005000I-750000J0D01*
G01*
X206498889Y-92955000D02*
G75*
G03*
X206498889Y-92955000I-750000J0D01*
G01*
X171665110Y-131055000D02*
G75*
G03*
X171665110Y-131055000I-750000J0D01*
G01*
X230382000Y-93980000D02*
G75*
G02*
X230382000Y-91930000I0J1025000D01*
G01*
X225548889Y-112005000D02*
G75*
G03*
X225548889Y-112005000I-750000J0D01*
G01*
X168398889Y-131055000D02*
G75*
G03*
X168398889Y-131055000I-750000J0D01*
G01*
X146282000Y-130030000D02*
G75*
G02*
X146282000Y-132080000I0J-1025000D01*
G01*
X211332000Y-93980000D02*
G75*
G02*
X211332000Y-91930000I0J1025000D01*
G01*
X230382000Y-132080000D02*
G75*
G02*
X230382000Y-130030000I0J1025000D01*
G01*
X203432000Y-130030000D02*
G75*
G02*
X203432000Y-132080000I0J-1025000D01*
G01*
X190715110Y-131055000D02*
G75*
G03*
X190715110Y-131055000I-750000J0D01*
G01*
X187448889Y-112005000D02*
G75*
G03*
X187448889Y-112005000I-750000J0D01*
G01*
X211332000Y-113030000D02*
G75*
G02*
X211332000Y-110980000I0J1025000D01*
G01*
X173232000Y-113030000D02*
G75*
G02*
X173232000Y-110980000I0J1025000D01*
G01*
X171665110Y-112005000D02*
G75*
G03*
X171665110Y-112005000I-750000J0D01*
G01*
X209765110Y-92955000D02*
G75*
G03*
X209765110Y-92955000I-750000J0D01*
G01*
X154182000Y-132080000D02*
G75*
G02*
X154182000Y-130030000I0J1025000D01*
G01*
X184382000Y-110980000D02*
G75*
G02*
X184382000Y-113030000I0J-1025000D01*
G01*
X133565110Y-112005000D02*
G75*
G03*
X133565110Y-112005000I-750000J0D01*
G01*
X222482000Y-130030000D02*
G75*
G02*
X222482000Y-132080000I0J-1025000D01*
G01*
X211332000Y-132080000D02*
G75*
G02*
X211332000Y-130030000I0J1025000D01*
G01*
X127231999Y-110980000D02*
G75*
G02*
X127231999Y-113030000I0J-1025000D01*
G01*
X228815110Y-131055000D02*
G75*
G03*
X228815110Y-131055000I-750000J0D01*
G01*
X209765110Y-131055000D02*
G75*
G03*
X209765110Y-131055000I-750000J0D01*
G01*
X187448889Y-131055000D02*
G75*
G03*
X187448889Y-131055000I-750000J0D01*
G01*
X192282000Y-132080000D02*
G75*
G02*
X192282000Y-130030000I0J1025000D01*
G01*
X173232000Y-132080000D02*
G75*
G02*
X173232000Y-130030000I0J1025000D01*
G01*
X149348889Y-131055000D02*
G75*
G03*
X149348889Y-131055000I-750000J0D01*
G01*
X203432000Y-110980000D02*
G75*
G02*
X203432000Y-113030000I0J-1025000D01*
G01*
X135132000Y-113030000D02*
G75*
G02*
X135132000Y-110980000I0J1025000D01*
G01*
X165332000Y-110980000D02*
G75*
G02*
X165332000Y-113030000I0J-1025000D01*
G01*
X209765110Y-112005000D02*
G75*
G03*
X209765110Y-112005000I-750000J0D01*
G01*
X168398889Y-112005000D02*
G75*
G03*
X168398889Y-112005000I-750000J0D01*
G01*
X154182000Y-93980000D02*
G75*
G02*
X154182000Y-91930000I0J1025000D01*
G01*
X146282000Y-91930000D02*
G75*
G02*
X146282000Y-93980000I0J-1025000D01*
G01*
X135132000Y-74930000D02*
G75*
G02*
X135132000Y-72880000I0J1025000D01*
G01*
X187448889Y-92955000D02*
G75*
G03*
X187448889Y-92955000I-750000J0D01*
G01*
X192282000Y-55879998D02*
G75*
G02*
X192282000Y-53830000I0J1024999D01*
G01*
X171665110Y-54854999D02*
G75*
G03*
X171665110Y-54854999I-750000J0D01*
G01*
X211332000Y-74930000D02*
G75*
G02*
X211332000Y-72880000I0J1025000D01*
G01*
X209765110Y-54854999D02*
G75*
G03*
X209765110Y-54854999I-750000J0D01*
G01*
X192282000Y-93980000D02*
G75*
G02*
X192282000Y-91930000I0J1025000D01*
G01*
X190715110Y-92955000D02*
G75*
G03*
X190715110Y-92955000I-750000J0D01*
G01*
X165332000Y-91930000D02*
G75*
G02*
X165332000Y-93980000I0J-1025000D01*
G01*
X168398889Y-92955000D02*
G75*
G03*
X168398889Y-92955000I-750000J0D01*
G01*
X133565110Y-73905000D02*
G75*
G03*
X133565110Y-73905000I-750000J0D01*
G01*
X127231999Y-72880001D02*
G75*
G02*
X127231999Y-74929999I0J-1024999D01*
G01*
X146282000Y-72880001D02*
G75*
G02*
X146282000Y-74929999I0J-1024999D01*
G01*
X173232000Y-93980000D02*
G75*
G02*
X173232000Y-91930000I0J1025000D01*
G01*
X149348889Y-92955000D02*
G75*
G03*
X149348889Y-92955000I-750000J0D01*
G01*
X187448889Y-54854999D02*
G75*
G03*
X187448889Y-54854999I-750000J0D01*
G01*
X217657000Y-142213110D02*
G75*
G03*
X217657000Y-142213110I-750000J0D01*
G01*
X217657000Y-138946889D02*
G75*
G03*
X217657000Y-138946889I-750000J0D01*
G01*
X130298889Y-92955000D02*
G75*
G03*
X130298889Y-92955000I-750000J0D01*
G01*
X135132000Y-93980000D02*
G75*
G02*
X135132000Y-91930000I0J1025000D01*
G01*
X222482000Y-72880001D02*
G75*
G02*
X222482000Y-74929999I0J-1024999D01*
G01*
X230382000Y-74930000D02*
G75*
G02*
X230382000Y-72880000I0J1025000D01*
G01*
X228815110Y-73905000D02*
G75*
G03*
X228815110Y-73905000I-750000J0D01*
G01*
X203432000Y-72880001D02*
G75*
G02*
X203432000Y-74929999I0J-1024999D01*
G01*
X165332000Y-53829999D02*
G75*
G02*
X165332000Y-55879999I0J-1025000D01*
G01*
X184382000Y-72880001D02*
G75*
G02*
X184382000Y-74929999I0J-1024999D01*
G01*
X154182000Y-74930000D02*
G75*
G02*
X154182000Y-72880000I0J1025000D01*
G01*
X203432000Y-53829999D02*
G75*
G02*
X203432000Y-55879999I0J-1025000D01*
G01*
X168398889Y-54854999D02*
G75*
G03*
X168398889Y-54854999I-750000J0D01*
G01*
X228815110Y-54854999D02*
G75*
G03*
X228815110Y-54854999I-750000J0D01*
G01*
X206498889Y-54854999D02*
G75*
G03*
X206498889Y-54854999I-750000J0D01*
G01*
X211332000Y-55879998D02*
G75*
G02*
X211332000Y-53830000I0J1024999D01*
G01*
X165332000Y-72880001D02*
G75*
G02*
X165332000Y-74929999I0J-1024999D01*
G01*
X171665110Y-73905000D02*
G75*
G03*
X171665110Y-73905000I-750000J0D01*
G01*
X149348889Y-73905000D02*
G75*
G03*
X149348889Y-73905000I-750000J0D01*
G01*
X190715110Y-54854999D02*
G75*
G03*
X190715110Y-54854999I-750000J0D01*
G01*
X206498889Y-73905000D02*
G75*
G03*
X206498889Y-73905000I-750000J0D01*
G01*
X173232000Y-74930000D02*
G75*
G02*
X173232000Y-72880000I0J1025000D01*
G01*
X146282000Y-53829999D02*
G75*
G02*
X146282000Y-55879999I0J-1025000D01*
G01*
X225548889Y-54854999D02*
G75*
G03*
X225548889Y-54854999I-750000J0D01*
G01*
X152615110Y-54854999D02*
G75*
G03*
X152615110Y-54854999I-750000J0D01*
G01*
X168398889Y-73905000D02*
G75*
G03*
X168398889Y-73905000I-750000J0D01*
G01*
X152615110Y-73905000D02*
G75*
G03*
X152615110Y-73905000I-750000J0D01*
G01*
X192282000Y-74930000D02*
G75*
G02*
X192282000Y-72880000I0J1025000D01*
G01*
X184382000Y-53829999D02*
G75*
G02*
X184382000Y-55879999I0J-1025000D01*
G01*
X217932000Y-136630000D02*
G75*
G02*
X215882000Y-136630000I-1025000J0D01*
G01*
X130298889Y-73905000D02*
G75*
G03*
X130298889Y-73905000I-750000J0D01*
G01*
X152615110Y-92955000D02*
G75*
G03*
X152615110Y-92955000I-750000J0D01*
G01*
X154182000Y-55879998D02*
G75*
G02*
X154182000Y-53830000I0J1024999D01*
G01*
X187448889Y-73905000D02*
G75*
G03*
X187448889Y-73905000I-750000J0D01*
G01*
X133565110Y-92955000D02*
G75*
G03*
X133565110Y-92955000I-750000J0D01*
G01*
X225548889Y-73905000D02*
G75*
G03*
X225548889Y-73905000I-750000J0D01*
G01*
X149348889Y-54854999D02*
G75*
G03*
X149348889Y-54854999I-750000J0D01*
G01*
X173232000Y-55879998D02*
G75*
G02*
X173232000Y-53830000I0J1024999D01*
G01*
X230382000Y-55879998D02*
G75*
G02*
X230382000Y-53830000I0J1024999D01*
G01*
X215882000Y-144530000D02*
G75*
G02*
X217932000Y-144530000I1025000J0D01*
G01*
X190715110Y-73905000D02*
G75*
G03*
X190715110Y-73905000I-750000J0D01*
G01*
X222482000Y-53829999D02*
G75*
G02*
X222482000Y-55879999I0J-1025000D01*
G01*
X209765110Y-73905000D02*
G75*
G03*
X209765110Y-73905000I-750000J0D01*
G01*
X184382000Y-91930000D02*
G75*
G02*
X184382000Y-93980000I0J-1025000D01*
G01*
X127231999Y-91930000D02*
G75*
G02*
X127231999Y-93980000I0J-1025000D01*
G01*
X171665110Y-92955000D02*
G75*
G03*
X171665110Y-92955000I-750000J0D01*
G01*
X158732000Y-106430000D02*
G75*
G02*
X160782000Y-106430000I1025000J0D01*
G01*
X217657000Y-81796889D02*
G75*
G03*
X217657000Y-81796889I-750000J0D01*
G01*
X179557000Y-142213110D02*
G75*
G03*
X179557000Y-142213110I-750000J0D01*
G01*
X160782000Y-136630000D02*
G75*
G02*
X158732000Y-136630000I-1025000J0D01*
G01*
X198607000Y-119896889D02*
G75*
G03*
X198607000Y-119896889I-750000J0D01*
G01*
X215882000Y-106430000D02*
G75*
G02*
X217932000Y-106430000I1025000J0D01*
G01*
X198607000Y-104113110D02*
G75*
G03*
X198607000Y-104113110I-750000J0D01*
G01*
X217932000Y-98530000D02*
G75*
G02*
X215882000Y-98530000I-1025000J0D01*
G01*
X179832000Y-98530000D02*
G75*
G02*
X177782000Y-98530000I-1025000J0D01*
G01*
X160507000Y-138946889D02*
G75*
G03*
X160507000Y-138946889I-750000J0D01*
G01*
X141457000Y-138946889D02*
G75*
G03*
X141457000Y-138946889I-750000J0D01*
G01*
X141732000Y-136630000D02*
G75*
G02*
X139682000Y-136630000I-1025000J0D01*
G01*
X179557000Y-123163110D02*
G75*
G03*
X179557000Y-123163110I-750000J0D01*
G01*
X160782000Y-117580000D02*
G75*
G02*
X158732000Y-117580000I-1025000J0D01*
G01*
X141732000Y-117580000D02*
G75*
G02*
X139682000Y-117580000I-1025000J0D01*
G01*
X217657000Y-104113110D02*
G75*
G03*
X217657000Y-104113110I-750000J0D01*
G01*
X196832000Y-125480000D02*
G75*
G02*
X198882000Y-125480000I1025000J0D01*
G01*
X217657000Y-100846889D02*
G75*
G03*
X217657000Y-100846889I-750000J0D01*
G01*
X196832000Y-144530000D02*
G75*
G02*
X198882000Y-144530000I1025000J0D01*
G01*
X179832000Y-136630000D02*
G75*
G02*
X177782000Y-136630000I-1025000J0D01*
G01*
X141457000Y-142213110D02*
G75*
G03*
X141457000Y-142213110I-750000J0D01*
G01*
X198607000Y-100846889D02*
G75*
G03*
X198607000Y-100846889I-750000J0D01*
G01*
X141457000Y-123163110D02*
G75*
G03*
X141457000Y-123163110I-750000J0D01*
G01*
X198882000Y-117580000D02*
G75*
G02*
X196832000Y-117580000I-1025000J0D01*
G01*
X217657000Y-85063110D02*
G75*
G03*
X217657000Y-85063110I-750000J0D01*
G01*
X141457000Y-104113110D02*
G75*
G03*
X141457000Y-104113110I-750000J0D01*
G01*
X196832000Y-87380000D02*
G75*
G02*
X198882000Y-87380000I1025000J0D01*
G01*
X198607000Y-81796889D02*
G75*
G03*
X198607000Y-81796889I-750000J0D01*
G01*
X198607000Y-123163110D02*
G75*
G03*
X198607000Y-123163110I-750000J0D01*
G01*
X217657000Y-119896889D02*
G75*
G03*
X217657000Y-119896889I-750000J0D01*
G01*
X160507000Y-142213110D02*
G75*
G03*
X160507000Y-142213110I-750000J0D01*
G01*
X215882000Y-125480000D02*
G75*
G02*
X217932000Y-125480000I1025000J0D01*
G01*
X177782000Y-106430000D02*
G75*
G02*
X179832000Y-106430000I1025000J0D01*
G01*
X179557000Y-104113110D02*
G75*
G03*
X179557000Y-104113110I-750000J0D01*
G01*
X198607000Y-142213110D02*
G75*
G03*
X198607000Y-142213110I-750000J0D01*
G01*
X139682000Y-125480000D02*
G75*
G02*
X141732000Y-125480000I1025000J0D01*
G01*
X196832000Y-106430000D02*
G75*
G02*
X198882000Y-106430000I1025000J0D01*
G01*
X198607000Y-138946889D02*
G75*
G03*
X198607000Y-138946889I-750000J0D01*
G01*
X217932000Y-117580000D02*
G75*
G02*
X215882000Y-117580000I-1025000J0D01*
G01*
X217657000Y-123163110D02*
G75*
G03*
X217657000Y-123163110I-750000J0D01*
G01*
X198882000Y-136630000D02*
G75*
G02*
X196832000Y-136630000I-1025000J0D01*
G01*
X158732000Y-144530000D02*
G75*
G02*
X160782000Y-144530000I1025000J0D01*
G01*
X160507000Y-119896889D02*
G75*
G03*
X160507000Y-119896889I-750000J0D01*
G01*
X141457000Y-119896889D02*
G75*
G03*
X141457000Y-119896889I-750000J0D01*
G01*
X158732000Y-125480000D02*
G75*
G02*
X160782000Y-125480000I1025000J0D01*
G01*
X179557000Y-138946889D02*
G75*
G03*
X179557000Y-138946889I-750000J0D01*
G01*
X177782000Y-144530000D02*
G75*
G02*
X179832000Y-144530000I1025000J0D01*
G01*
X179557000Y-119896889D02*
G75*
G03*
X179557000Y-119896889I-750000J0D01*
G01*
X217932000Y-79480000D02*
G75*
G02*
X215882000Y-79480000I-1025000J0D01*
G01*
X139682000Y-144530000D02*
G75*
G02*
X141732000Y-144530000I1025000J0D01*
G01*
X179832000Y-117580000D02*
G75*
G02*
X177782000Y-117580000I-1025000J0D01*
G01*
X160507000Y-100846889D02*
G75*
G03*
X160507000Y-100846889I-750000J0D01*
G01*
X198882000Y-98530000D02*
G75*
G02*
X196832000Y-98530000I-1025000J0D01*
G01*
X179557000Y-100846889D02*
G75*
G03*
X179557000Y-100846889I-750000J0D01*
G01*
X160507000Y-104113110D02*
G75*
G03*
X160507000Y-104113110I-750000J0D01*
G01*
X160782000Y-98530000D02*
G75*
G02*
X158732000Y-98530000I-1025000J0D01*
G01*
X198882000Y-79480000D02*
G75*
G02*
X196832000Y-79480000I-1025000J0D01*
G01*
X139682000Y-106430000D02*
G75*
G02*
X141732000Y-106430000I1025000J0D01*
G01*
X141457000Y-100846889D02*
G75*
G03*
X141457000Y-100846889I-750000J0D01*
G01*
X198607000Y-85063110D02*
G75*
G03*
X198607000Y-85063110I-750000J0D01*
G01*
X141732000Y-98530000D02*
G75*
G02*
X139682000Y-98530000I-1025000J0D01*
G01*
X215882000Y-87380000D02*
G75*
G02*
X217932000Y-87380000I1025000J0D01*
G01*
X177782000Y-125480000D02*
G75*
G02*
X179832000Y-125480000I1025000J0D01*
G01*
X160507000Y-123163110D02*
G75*
G03*
X160507000Y-123163110I-750000J0D01*
G01*
X177782000Y-87380000D02*
G75*
G02*
X179832000Y-87380000I1025000J0D01*
G01*
X179557000Y-85063110D02*
G75*
G03*
X179557000Y-85063110I-750000J0D01*
G01*
X179557000Y-81796889D02*
G75*
G03*
X179557000Y-81796889I-750000J0D01*
G01*
X160507000Y-81796889D02*
G75*
G03*
X160507000Y-81796889I-750000J0D01*
G01*
X179832000Y-79480000D02*
G75*
G02*
X177782000Y-79480000I-1025000J0D01*
G01*
X158732000Y-87380000D02*
G75*
G02*
X160782000Y-87380000I1025000J0D01*
G01*
X133565110Y-54854999D02*
G75*
G03*
X133565110Y-54854999I-750000J0D01*
G01*
X217932000Y-136630000D02*
X217932000Y-132080000D01*
X141457000Y-85063110D02*
G75*
G03*
X141457000Y-85063110I-750000J0D01*
G01*
X127231999Y-53829999D02*
G75*
G02*
X127231999Y-55879999I0J-1025000D01*
G01*
X160507000Y-85063110D02*
G75*
G03*
X160507000Y-85063110I-750000J0D01*
G01*
X217657000Y-46963111D02*
G75*
G03*
X217657000Y-46963111I-750000J0D01*
G01*
X215882000Y-68330000D02*
G75*
G02*
X217932000Y-68330000I1025000J0D01*
G01*
X141457000Y-66013110D02*
G75*
G03*
X141457000Y-66013110I-750000J0D01*
G01*
X177782000Y-49280000D02*
G75*
G02*
X179832000Y-49280000I1025000J0D01*
G01*
X160782000Y-79480000D02*
G75*
G02*
X158732000Y-79480000I-1025000J0D01*
G01*
X177782000Y-68330000D02*
G75*
G02*
X179832000Y-68330000I1025000J0D01*
G01*
X158732000Y-68330000D02*
G75*
G02*
X160782000Y-68330000I1025000J0D01*
G01*
X217657000Y-43696890D02*
G75*
G03*
X217657000Y-43696890I-750000J0D01*
G01*
X135132000Y-55879998D02*
G75*
G02*
X135132000Y-53830000I0J1024999D01*
G01*
X203432000Y-149080000D02*
X198882000Y-149080000D01*
X198882000Y-144530000D02*
X198882000Y-149080000D01*
X198882000Y-41380000D02*
G75*
G02*
X196832000Y-41380000I-1025000J0D01*
G01*
X139682000Y-87380000D02*
G75*
G02*
X141732000Y-87380000I1025000J0D01*
G01*
X217932000Y-60430000D02*
G75*
G02*
X215882000Y-60430000I-1025000J0D01*
G01*
X141732000Y-79480000D02*
G75*
G02*
X139682000Y-79480000I-1025000J0D01*
G01*
X198607000Y-66013110D02*
G75*
G03*
X198607000Y-66013110I-750000J0D01*
G01*
X198607000Y-62746889D02*
G75*
G03*
X198607000Y-62746889I-750000J0D01*
G01*
X230382000Y-149080000D02*
X234932000Y-149080000D01*
X160507000Y-66013110D02*
G75*
G03*
X160507000Y-66013110I-750000J0D01*
G01*
X179832000Y-60430000D02*
G75*
G02*
X177782000Y-60430000I-1025000J0D01*
G01*
X160507000Y-46963111D02*
G75*
G03*
X160507000Y-46963111I-750000J0D01*
G01*
X222482000Y-149080000D02*
X217932000Y-149080000D01*
X158732000Y-49280000D02*
G75*
G02*
X160782000Y-49280000I1025000J0D01*
G01*
X160507000Y-43696890D02*
G75*
G03*
X160507000Y-43696890I-750000J0D01*
G01*
X160782000Y-41380000D02*
G75*
G02*
X158732000Y-41380000I-1025000J0D01*
G01*
X196832000Y-68330000D02*
G75*
G02*
X198882000Y-68330000I1025000J0D01*
G01*
X179557000Y-66013110D02*
G75*
G03*
X179557000Y-66013110I-750000J0D01*
G01*
X160782000Y-60430000D02*
G75*
G02*
X158732000Y-60430000I-1025000J0D01*
G01*
X234932000Y-144530000D02*
X234932000Y-149080000D01*
X215882000Y-49280000D02*
G75*
G02*
X217932000Y-49280000I1025000J0D01*
G01*
X198607000Y-46963111D02*
G75*
G03*
X198607000Y-46963111I-750000J0D01*
G01*
X222482000Y-132080000D02*
X217932000Y-132080000D01*
X179557000Y-43696890D02*
G75*
G03*
X179557000Y-43696890I-750000J0D01*
G01*
X215882000Y-144530000D02*
X215882000Y-149080000D01*
X198607000Y-43696890D02*
G75*
G03*
X198607000Y-43696890I-750000J0D01*
G01*
X141732000Y-60430000D02*
G75*
G02*
X139682000Y-60430000I-1025000J0D01*
G01*
X160507000Y-62746889D02*
G75*
G03*
X160507000Y-62746889I-750000J0D01*
G01*
X130298889Y-54854999D02*
G75*
G03*
X130298889Y-54854999I-750000J0D01*
G01*
X198882000Y-136630000D02*
X198882000Y-132080000D01*
X217657000Y-62746889D02*
G75*
G03*
X217657000Y-62746889I-750000J0D01*
G01*
X179557000Y-62746889D02*
G75*
G03*
X179557000Y-62746889I-750000J0D01*
G01*
X230382000Y-132080000D02*
X234932000Y-132080000D01*
X141457000Y-81796889D02*
G75*
G03*
X141457000Y-81796889I-750000J0D01*
G01*
X217657000Y-66013110D02*
G75*
G03*
X217657000Y-66013110I-750000J0D01*
G01*
X198882000Y-60430000D02*
G75*
G02*
X196832000Y-60430000I-1025000J0D01*
G01*
X234932000Y-136630000D02*
X234932000Y-132080000D01*
X217932000Y-144530000D02*
X217932000Y-149080000D01*
X179832000Y-41380000D02*
G75*
G02*
X177782000Y-41380000I-1025000J0D01*
G01*
X211332000Y-149080000D02*
X215882000Y-149080000D01*
X139682000Y-68330000D02*
G75*
G02*
X141732000Y-68330000I1025000J0D01*
G01*
X179557000Y-46963111D02*
G75*
G03*
X179557000Y-46963111I-750000J0D01*
G01*
X141457000Y-62746889D02*
G75*
G03*
X141457000Y-62746889I-750000J0D01*
G01*
X217932000Y-41380000D02*
G75*
G02*
X215882000Y-41380000I-1025000J0D01*
G01*
X203432000Y-132080000D02*
X198882000Y-132080000D01*
X196832000Y-49280000D02*
G75*
G02*
X198882000Y-49280000I1025000J0D01*
G01*
X146281999Y-132080000D02*
X141731999Y-132080000D01*
X127231999Y-149080000D02*
X122682000Y-149080000D01*
X215882000Y-117580000D02*
X215882000Y-113030000D01*
X141732000Y-144530000D02*
X141732000Y-149080000D01*
X198882000Y-117580000D02*
X198882000Y-113030000D01*
X203432000Y-113030000D02*
X198882000Y-113030000D01*
X184382000Y-113030000D02*
X179832000Y-113030000D01*
X177782000Y-125480000D02*
X177782000Y-130030000D01*
X158732000Y-136630000D02*
X158732000Y-132080000D01*
X122682000Y-136630000D02*
X122682000Y-132080000D01*
X222482000Y-113030000D02*
X217932000Y-113030000D01*
X215882000Y-125480000D02*
X215882000Y-130030000D01*
X203432000Y-130030000D02*
X198882000Y-130030000D01*
X198882000Y-125480000D02*
X198882000Y-130030000D01*
X179832000Y-125480000D02*
X179832000Y-130030000D01*
X196832000Y-117580000D02*
X196832000Y-113030000D01*
X173232000Y-130030000D02*
X177782000Y-130030000D01*
X165332000Y-149080000D02*
X160782000Y-149080000D01*
X217932000Y-125480000D02*
X217932000Y-130030000D01*
X165332000Y-130030000D02*
X160782000Y-130030000D01*
X139682000Y-136630000D02*
X139681999Y-132080000D01*
X222482000Y-130030000D02*
X217932000Y-130030000D01*
X211332000Y-130030000D02*
X215882000Y-130030000D01*
X146282000Y-149080000D02*
X141732000Y-149080000D01*
X141732000Y-136630000D02*
X141732000Y-132080000D01*
X135132000Y-132080000D02*
X139682000Y-132080000D01*
X234932000Y-117580000D02*
X234932000Y-113030000D01*
X196832000Y-125480000D02*
X196832000Y-130030000D01*
X165332000Y-113030000D02*
X160782000Y-113030000D01*
X173232000Y-132080000D02*
X177782000Y-132080000D01*
X165332000Y-132080000D02*
X160782000Y-132080000D01*
X217932000Y-117580000D02*
X217932000Y-113030000D01*
X234932000Y-125480000D02*
X234932000Y-130030000D01*
X179832000Y-117580000D02*
X179832000Y-113030000D01*
X215882000Y-136630000D02*
X215882000Y-132080000D01*
X179832000Y-144530000D02*
X179832000Y-149080000D01*
X127231999Y-132080000D02*
X122682000Y-132080000D01*
X184382000Y-132080000D02*
X179832000Y-132080000D01*
X158732000Y-144530000D02*
X158732000Y-149080000D01*
X177782000Y-136630000D02*
X177782000Y-132080000D01*
X122682000Y-144530000D02*
X122682000Y-149080000D01*
X160782000Y-117580000D02*
X160782000Y-113030000D01*
X230382000Y-130030000D02*
X234932000Y-130030000D01*
X160782000Y-125480000D02*
X160782000Y-130030000D01*
X135132000Y-149080000D02*
X139682000Y-149080000D01*
X192282000Y-130030000D02*
X196832000Y-130030000D01*
X211332000Y-132080000D02*
X215882000Y-132080000D01*
X154182000Y-132080000D02*
X158732000Y-132080000D01*
X211332000Y-113030000D02*
X215882000Y-113030000D01*
X196832000Y-144530000D02*
X196832000Y-149080000D01*
X192282000Y-149080000D02*
X196832000Y-149080000D01*
X184382000Y-149080000D02*
X179832000Y-149080000D01*
X192282000Y-113030000D02*
X196832000Y-113030000D01*
X179832000Y-136630000D02*
X179832000Y-132080000D01*
X196832000Y-136630000D02*
X196832000Y-132080000D01*
X192282000Y-132080000D02*
X196832000Y-132080000D01*
X139682000Y-144530000D02*
X139682000Y-149080000D01*
X230382000Y-113030000D02*
X234932000Y-113030000D01*
X177782000Y-144530000D02*
X177782000Y-149080000D01*
X173232000Y-149080000D02*
X177782000Y-149080000D01*
X184382000Y-130030000D02*
X179832000Y-130030000D01*
X160782000Y-144530000D02*
X160782000Y-149080000D01*
X160782000Y-136630000D02*
X160782000Y-132080000D01*
X154182000Y-149080000D02*
X158732000Y-149080000D01*
X177782000Y-117580000D02*
X177782000Y-113030000D01*
X141732000Y-125480000D02*
X141732000Y-130030000D01*
X158732000Y-117580000D02*
X158732000Y-113030000D01*
X135132000Y-130030000D02*
X139682000Y-130030000D01*
X215882000Y-98530000D02*
X215882000Y-93980000D01*
X146282000Y-110980000D02*
X141732000Y-110980000D01*
X139682000Y-106430000D02*
X139682000Y-110980000D01*
X122682000Y-106430000D02*
X122682000Y-110980000D01*
X127231999Y-93980000D02*
X122682000Y-93980000D01*
X127231999Y-110980000D02*
X122682000Y-110980000D01*
X135132000Y-110980000D02*
X139682000Y-110980000D01*
X203432000Y-110980000D02*
X198882000Y-110980000D01*
X177782000Y-98530000D02*
X177782000Y-93980000D01*
X173232000Y-113030000D02*
X177782000Y-113030000D01*
X230382000Y-110980000D02*
X234932000Y-110980000D01*
X222482000Y-93980000D02*
X217932000Y-93980000D01*
X211332000Y-93980000D02*
X215882000Y-93980000D01*
X184382000Y-93980000D02*
X179832000Y-93980000D01*
X141732000Y-106430000D02*
X141732000Y-110980000D01*
X173232000Y-110980000D02*
X177782000Y-110980000D01*
X154182000Y-130030000D02*
X158732000Y-130030000D01*
X139682000Y-125480000D02*
X139682000Y-130030000D01*
X122682000Y-117580000D02*
X122682000Y-113030000D01*
X139682000Y-117580000D02*
X139681999Y-113030000D01*
X135132000Y-113030000D02*
X139682000Y-113030000D01*
X184382000Y-110980000D02*
X179832000Y-110980000D01*
X234932000Y-98530000D02*
X234932000Y-93980000D01*
X165332000Y-110980000D02*
X160782000Y-110980000D01*
X217932000Y-98530000D02*
X217932000Y-93980000D01*
X177782000Y-106430000D02*
X177782000Y-110980000D01*
X179832000Y-106430000D02*
X179832000Y-110980000D01*
X158732000Y-125480000D02*
X158732000Y-130030000D01*
X146282000Y-130030000D02*
X141732000Y-130030000D01*
X127231999Y-113030000D02*
X122682000Y-113030000D01*
X222482000Y-110980000D02*
X217932000Y-110980000D01*
X215882000Y-106430000D02*
X215882000Y-110980000D01*
X203432000Y-93980000D02*
X198882000Y-93980000D01*
X196832000Y-98530000D02*
X196832000Y-93980000D01*
X154182000Y-110980000D02*
X158732000Y-110980000D01*
X160782000Y-98530000D02*
X160782000Y-93980000D01*
X158732000Y-98530000D02*
X158732000Y-93980000D01*
X154182000Y-93980000D02*
X158732000Y-93980000D01*
X230382000Y-93980000D02*
X234932000Y-93980000D01*
X198882000Y-98530000D02*
X198882000Y-93980000D01*
X158732000Y-106430000D02*
X158732000Y-110980000D01*
X160782000Y-106430000D02*
X160782000Y-110980000D01*
X141732000Y-117580000D02*
X141732000Y-113030000D01*
X146281999Y-113030000D02*
X141731999Y-113030000D01*
X122682000Y-125480000D02*
X122682000Y-130030000D01*
X217932000Y-106430000D02*
X217932000Y-110980000D01*
X192282000Y-93980000D02*
X196832000Y-93980000D01*
X154182000Y-113030000D02*
X158732000Y-113030000D01*
X122682000Y-98530000D02*
X122682000Y-93980000D01*
X127231999Y-130030000D02*
X122682000Y-130030000D01*
X234932000Y-106430000D02*
X234932000Y-110980000D01*
X211332000Y-110980000D02*
X215882000Y-110980000D01*
X198882000Y-106430000D02*
X198882000Y-110980000D01*
X196832000Y-106430000D02*
X196832000Y-110980000D01*
X192282000Y-110980000D02*
X196832000Y-110980000D01*
X179832000Y-98530000D02*
X179832000Y-93980000D01*
X165332000Y-93980000D02*
X160782000Y-93980000D01*
X141732000Y-98530000D02*
X141732000Y-93980000D01*
X173232000Y-93980000D02*
X177782000Y-93980000D01*
X146281999Y-93980000D02*
X141731999Y-93980000D01*
X135132000Y-93980000D02*
X139682000Y-93980000D01*
X139682000Y-98530000D02*
X139681999Y-93980000D01*
X139682000Y-87380000D02*
X139682000Y-91930000D01*
X127231999Y-74930000D02*
X122682000Y-74930000D01*
X184382000Y-74930000D02*
X179832000Y-74930000D01*
X160782000Y-87380000D02*
X160782000Y-91930000D01*
X158732000Y-79480000D02*
X158732000Y-74930000D01*
X217932000Y-60430000D02*
X217932000Y-55880000D01*
X211332000Y-72880000D02*
X215882000Y-72880000D01*
X230382000Y-55879999D02*
X234932000Y-55879999D01*
X211332000Y-55879999D02*
X215882000Y-55879999D01*
X179832000Y-79480000D02*
X179832000Y-74930000D01*
X165332000Y-91930000D02*
X160782000Y-91930000D01*
X177782000Y-79480000D02*
X177782000Y-74930000D01*
X135132000Y-91930000D02*
X139682000Y-91930000D01*
X173232000Y-74930000D02*
X177782000Y-74930000D01*
X217932000Y-68330000D02*
X217932000Y-72880000D01*
X222482000Y-55880000D02*
X217932000Y-55880000D01*
X141732000Y-79480000D02*
X141732000Y-74930000D01*
X234932000Y-60430000D02*
X234932000Y-55880000D01*
X215882000Y-79480000D02*
X215882000Y-74930000D01*
X234932000Y-68330000D02*
X234932000Y-72880000D01*
X217932000Y-79480000D02*
X217932000Y-74930000D01*
X203432000Y-72880000D02*
X198882000Y-72880000D01*
X192282000Y-74930000D02*
X196832000Y-74930000D01*
X222482000Y-74930000D02*
X217932000Y-74930000D01*
X173232000Y-91930000D02*
X177782000Y-91930000D01*
X154182000Y-74930000D02*
X158732000Y-74930000D01*
X165332000Y-74930000D02*
X160782000Y-74930000D01*
X158732000Y-87380000D02*
X158732000Y-91930000D01*
X146281999Y-74930000D02*
X141731999Y-74930000D01*
X146282000Y-91930000D02*
X141732000Y-91930000D01*
X135132000Y-74930000D02*
X139682000Y-74930000D01*
X230382000Y-72880000D02*
X234932000Y-72880000D01*
X198882000Y-60430000D02*
X198882000Y-55880000D01*
X203432000Y-55880000D02*
X198882000Y-55880000D01*
X234932000Y-87380000D02*
X234932000Y-91930000D01*
X230382000Y-91930000D02*
X234932000Y-91930000D01*
X215882000Y-68330000D02*
X215882000Y-72880000D01*
X217932000Y-87380000D02*
X217932000Y-91930000D01*
X141732000Y-87380000D02*
X141732000Y-91930000D01*
X154182000Y-91930000D02*
X158732000Y-91930000D01*
X215882000Y-87380000D02*
X215882000Y-91930000D01*
X177782000Y-87380000D02*
X177782000Y-91930000D01*
X198882000Y-87380000D02*
X198882000Y-91930000D01*
X222482000Y-72880000D02*
X217932000Y-72880000D01*
X122682000Y-79480000D02*
X122682000Y-74930000D01*
X196832000Y-79480000D02*
X196832000Y-74930000D01*
X211332000Y-74930000D02*
X215882000Y-74930000D01*
X127231999Y-91930000D02*
X122682000Y-91930000D01*
X139682000Y-79480000D02*
X139681999Y-74930000D01*
X234932000Y-79480000D02*
X234932000Y-74930000D01*
X203432000Y-91930000D02*
X198882000Y-91930000D01*
X184382000Y-91930000D02*
X179832000Y-91930000D01*
X179832000Y-87380000D02*
X179832000Y-91930000D01*
X198882000Y-68330000D02*
X198882000Y-72880000D01*
X211332000Y-91930000D02*
X215882000Y-91930000D01*
X198882000Y-79480000D02*
X198882000Y-74930000D01*
X215882000Y-60430000D02*
X215882000Y-55880000D01*
X122682000Y-87380000D02*
X122682000Y-91930000D01*
X222482000Y-91930000D02*
X217932000Y-91930000D01*
X230382000Y-74930000D02*
X234932000Y-74930000D01*
X160782000Y-79480000D02*
X160782000Y-74930000D01*
X203432000Y-74930000D02*
X198882000Y-74930000D01*
X196832000Y-87380000D02*
X196832000Y-91930000D01*
X192282000Y-91930000D02*
X196832000Y-91930000D01*
X173232000Y-36830000D02*
X177782000Y-36830000D01*
X165332000Y-72880000D02*
X160782000Y-72880000D01*
X177782000Y-60430000D02*
X177782000Y-55880000D01*
X198882000Y-41380000D02*
X198882000Y-36830000D01*
X184382000Y-53830000D02*
X179832000Y-53830000D01*
X146282000Y-72880000D02*
X141732000Y-72880000D01*
X165332000Y-36830000D02*
X160782000Y-36830001D01*
X184382000Y-55880000D02*
X179832000Y-55880000D01*
X139682000Y-68330000D02*
X139682000Y-72880000D01*
X215882000Y-49280000D02*
X215882000Y-53830000D01*
X135132000Y-72880000D02*
X139682000Y-72880000D01*
X122682000Y-68330000D02*
X122682000Y-72880000D01*
X192282000Y-53830000D02*
X196832000Y-53830000D01*
X198882000Y-49280001D02*
X198882000Y-53830000D01*
X184382000Y-36830000D02*
X179832000Y-36830001D01*
X196832000Y-41380000D02*
X196832000Y-36830000D01*
X160782000Y-49280001D02*
X160782000Y-53830000D01*
X173232000Y-72880000D02*
X177782000Y-72880000D01*
X217932000Y-41380000D02*
X217932000Y-36830000D01*
X222482000Y-36830000D02*
X217932000Y-36830001D01*
X160782000Y-60430000D02*
X160782000Y-55880000D01*
X141732000Y-60430000D02*
X141732000Y-55880000D01*
X215882000Y-41380000D02*
X215882000Y-36830000D01*
X154182000Y-55879999D02*
X158732000Y-55879999D01*
X122682000Y-60430000D02*
X122682000Y-55880000D01*
X177782000Y-41380000D02*
X177782000Y-36830000D01*
X139682000Y-60430000D02*
X139681999Y-55880000D01*
X179832000Y-41380000D02*
X179832000Y-36830000D01*
X160782000Y-41380000D02*
X160782000Y-36830000D01*
X173232000Y-53830000D02*
X177782000Y-53830000D01*
X135132000Y-55879999D02*
X139682000Y-55879999D01*
X196832000Y-68330000D02*
X196832000Y-72880000D01*
X192282000Y-36830000D02*
X196832000Y-36830000D01*
X196832000Y-49280000D02*
X196832000Y-53830000D01*
X192282000Y-72880000D02*
X196832000Y-72880000D01*
X184382000Y-72880000D02*
X179832000Y-72880000D01*
X179832000Y-68330000D02*
X179832000Y-72880000D01*
X141732000Y-68330000D02*
X141732000Y-72880000D01*
X165332000Y-53830000D02*
X160782000Y-53830000D01*
X177782000Y-49280000D02*
X177782000Y-53830000D01*
X127231999Y-72880000D02*
X122682000Y-72880000D01*
X211332000Y-36830000D02*
X215882000Y-36830000D01*
X222482000Y-53830000D02*
X217932000Y-53830000D01*
X160782000Y-68330000D02*
X160782000Y-72880000D01*
X173232000Y-55879999D02*
X177782000Y-55879999D01*
X203432000Y-36830000D02*
X198882000Y-36830001D01*
X158732000Y-68330000D02*
X158732000Y-72880000D01*
X234932000Y-41380000D02*
X234932000Y-36830000D01*
X154182000Y-72880000D02*
X158732000Y-72880000D01*
X146281999Y-55880000D02*
X141731999Y-55880000D01*
X230382000Y-53830000D02*
X234932000Y-53830000D01*
X211332000Y-53830000D02*
X215882000Y-53830000D01*
X179832000Y-60430000D02*
X179832000Y-55880000D01*
X203432000Y-53830000D02*
X198882000Y-53830000D01*
X196832000Y-60430000D02*
X196832000Y-55880000D01*
X192282000Y-55879999D02*
X196832000Y-55879999D01*
X177782000Y-68330000D02*
X177782000Y-72880000D01*
X217932000Y-49280001D02*
X217932000Y-53830000D01*
X165332000Y-55880000D02*
X160782000Y-55880000D01*
X158732000Y-60430000D02*
X158732000Y-55880000D01*
X179832000Y-49280001D02*
X179832000Y-53830000D01*
X234932000Y-49280000D02*
X234932000Y-53830000D01*
X230382000Y-36830000D02*
X234932000Y-36830000D01*
X127231999Y-55880000D02*
X122682000Y-55880000D01*
X148436635Y-147231120D02*
X151951635Y-147231120D01*
X122682000Y-49280001D02*
X122682000Y-53830000D01*
X139682000Y-41380000D02*
X139681999Y-36830000D01*
X141457000Y-43696890D02*
G75*
G03*
X141457000Y-43696890I-750000J0D01*
G01*
X228151635Y-144136120D02*
X224636635Y-144136120D01*
X205586635Y-144136120D02*
X205586635Y-147231120D01*
X132901635Y-147231120D02*
X132901635Y-144136120D01*
X141457000Y-46963111D02*
G75*
G03*
X141457000Y-46963111I-750000J0D01*
G01*
X135132000Y-36830000D02*
X139682000Y-36830000D01*
X228151635Y-147231120D02*
X228151635Y-144136120D01*
X132901635Y-144136120D02*
X129386635Y-144136120D01*
X127231999Y-36830000D02*
X122682000Y-36830001D01*
X224636635Y-147231120D02*
X228151635Y-147231120D01*
X209101635Y-147231120D02*
X209101635Y-144136120D01*
X209101635Y-144136120D02*
X205586635Y-144136120D01*
X209101635Y-125086120D02*
X205586635Y-125086120D01*
X190051635Y-147231120D02*
X190051635Y-144136120D01*
X190051635Y-125086120D02*
X186536635Y-125086120D01*
X171001635Y-144136120D02*
X167486635Y-144136120D01*
X141732000Y-41380000D02*
G75*
G02*
X139682000Y-41380000I-1025000J0D01*
G01*
X224636635Y-125086120D02*
X224636635Y-128181120D01*
X158732000Y-49280000D02*
X158732000Y-53830000D01*
X129386635Y-144136120D02*
X129386635Y-147231120D01*
X209101635Y-128181120D02*
X209101635Y-125086120D01*
X158732000Y-41380000D02*
X158732000Y-36830000D01*
X127231999Y-53830000D02*
X122682000Y-53830000D01*
X190051635Y-144136120D02*
X186536635Y-144136120D01*
X186536635Y-125086120D02*
X186536635Y-128181120D01*
X205586635Y-128181120D02*
X209101635Y-128181120D01*
X224636635Y-144136120D02*
X224636635Y-147231120D01*
X154182000Y-53830000D02*
X158732000Y-53830000D01*
X146282000Y-53830000D02*
X141732000Y-53830000D01*
X139682000Y-49280000D02*
X139682000Y-53830000D01*
X190051635Y-128181120D02*
X190051635Y-125086120D01*
X167486635Y-144136120D02*
X167486635Y-147231120D01*
X135132000Y-53830000D02*
X139682000Y-53830000D01*
X186536635Y-147231120D02*
X190051635Y-147231120D01*
X186536635Y-144136120D02*
X186536635Y-147231120D01*
X167486635Y-147231120D02*
X171001635Y-147231120D01*
X228151635Y-125086120D02*
X224636635Y-125086120D01*
X141732000Y-49280001D02*
X141732000Y-53830000D01*
X146281999Y-36830000D02*
X141731999Y-36830001D01*
X224636635Y-128181120D02*
X228151635Y-128181120D01*
X205586635Y-147231120D02*
X209101635Y-147231120D01*
X186536635Y-128181120D02*
X190051635Y-128181120D01*
X151951635Y-144136120D02*
X148436635Y-144136120D01*
X129386635Y-147231120D02*
X132901635Y-147231120D01*
X228151635Y-128181120D02*
X228151635Y-125086120D01*
X141732000Y-41380000D02*
X141732000Y-36830000D01*
X171001635Y-147231120D02*
X171001635Y-144136120D01*
X148436635Y-144136120D02*
X148436635Y-147231120D01*
X154182000Y-36830000D02*
X158732000Y-36830000D01*
X151951635Y-147231120D02*
X151951635Y-144136120D01*
X139682000Y-49280000D02*
G75*
G02*
X141732000Y-49280000I1025000J0D01*
G01*
X205586635Y-125086120D02*
X205586635Y-128181120D01*
X122682000Y-41380000D02*
X122682000Y-36830000D01*
X234932000Y-117580000D02*
X234932000Y-125480000D01*
X234932000Y-60430000D02*
X234932000Y-68330000D01*
X222481999Y-149080000D02*
X230382000Y-149080000D01*
X129386635Y-51981121D02*
X129386635Y-48886121D01*
X132901635Y-51981121D02*
X129386635Y-51981121D01*
X234932000Y-136630000D02*
X234932000Y-144530000D01*
X234932000Y-98530000D02*
X234932000Y-106430000D01*
X234932000Y-79480000D02*
X234932000Y-87380000D01*
X132901635Y-48886121D02*
X132901635Y-51981121D01*
X203432000Y-149080000D02*
X211332000Y-149080000D01*
X222481999Y-36830000D02*
X230382000Y-36830000D01*
X203431999Y-36830000D02*
X211332000Y-36830000D01*
X165332000Y-149080000D02*
X173232000Y-149080000D01*
X146281999Y-149080000D02*
X154182000Y-149080000D01*
X234932000Y-41380000D02*
X234932000Y-49280000D01*
X167486635Y-51981121D02*
X171001635Y-51981121D01*
X151951635Y-51981121D02*
X151951635Y-48886121D01*
X167486635Y-48886121D02*
X167486635Y-51981121D01*
X129386635Y-48886121D02*
X132901635Y-48886121D01*
X171001635Y-48886121D02*
X167486635Y-48886121D01*
X148436635Y-51981121D02*
X151951635Y-51981121D01*
X151951635Y-48886121D02*
X148436635Y-48886121D01*
X184382000Y-149080000D02*
X192282000Y-149080000D01*
X127231999Y-149080000D02*
X135132000Y-149080000D01*
X184381999Y-36830000D02*
X192282000Y-36830000D01*
X165331999Y-36830000D02*
X173232000Y-36830000D01*
X146281999Y-36830000D02*
X154182000Y-36830000D01*
X148436635Y-48886121D02*
X148436635Y-51981121D01*
X122682000Y-98530000D02*
X122682000Y-106430000D01*
X122682000Y-79480000D02*
X122682000Y-87380000D01*
X122682000Y-41380000D02*
X122682000Y-49280001D01*
X127231999Y-36830000D02*
X135132000Y-36830000D01*
X122682000Y-136630000D02*
X122682000Y-144530000D01*
X122682000Y-60429999D02*
X122682000Y-68330000D01*
X122682000Y-117580000D02*
X122682000Y-125480000D01*
X209101635Y-71031120D02*
X209101635Y-67936120D01*
X205586635Y-67936120D02*
X205586635Y-71031120D01*
X190051635Y-67936120D02*
X186536635Y-67936120D01*
X228151635Y-48886121D02*
X224636635Y-48886121D01*
X205586635Y-71031120D02*
X209101635Y-71031120D01*
X209101635Y-67936120D02*
X205586635Y-67936120D01*
X190051635Y-71031120D02*
X190051635Y-67936120D01*
X186536635Y-71031120D02*
X190051635Y-71031120D01*
X186536635Y-67936120D02*
X186536635Y-71031120D01*
X171001635Y-71031120D02*
X171001635Y-67936120D01*
X167486635Y-67936120D02*
X167486635Y-71031120D01*
X148436635Y-67936120D02*
X148436635Y-71031120D01*
X151951635Y-67936120D02*
X148436635Y-67936120D01*
X129386635Y-71031120D02*
X132901635Y-71031120D01*
X132901635Y-67936120D02*
X129386635Y-67936120D01*
X228151635Y-51981121D02*
X228151635Y-48886121D01*
X224636635Y-51981121D02*
X228151635Y-51981121D01*
X205586635Y-51981121D02*
X209101635Y-51981121D01*
X171001635Y-51981121D02*
X171001635Y-48886121D01*
X186536635Y-51981121D02*
X190051635Y-51981121D01*
X190051635Y-48886121D02*
X186536635Y-48886121D01*
X224636635Y-48886121D02*
X224636635Y-51981121D01*
X186536635Y-48886121D02*
X186536635Y-51981121D01*
X209101635Y-48886121D02*
X205586635Y-48886121D01*
X167486635Y-71031120D02*
X171001635Y-71031120D01*
X151951635Y-71031120D02*
X151951635Y-67936120D01*
X205586635Y-48886121D02*
X205586635Y-51981121D01*
X171001635Y-67936120D02*
X167486635Y-67936120D01*
X132901635Y-71031120D02*
X132901635Y-67936120D01*
X129386635Y-67936120D02*
X129386635Y-71031120D01*
X190051635Y-51981121D02*
X190051635Y-48886121D01*
X209101635Y-51981121D02*
X209101635Y-48886121D01*
X148436635Y-71031120D02*
X151951635Y-71031120D01*
X129386635Y-109131120D02*
X132901635Y-109131120D01*
X205586635Y-109131120D02*
X209101635Y-109131120D01*
X186536635Y-109131120D02*
X190051635Y-109131120D01*
X171001635Y-109131120D02*
X171001635Y-106036120D01*
X228151635Y-71031120D02*
X228151635Y-67936120D01*
X148436635Y-109131120D02*
X151951635Y-109131120D01*
X209101635Y-86986120D02*
X205586635Y-86986120D01*
X167486635Y-90081120D02*
X171001635Y-90081120D01*
X224636635Y-71031120D02*
X228151635Y-71031120D01*
X171001635Y-86986120D02*
X167486635Y-86986120D01*
X167486635Y-86986120D02*
X167486635Y-90081120D01*
X224636635Y-109131120D02*
X228151635Y-109131120D01*
X228151635Y-86986120D02*
X224636635Y-86986120D01*
X132901635Y-128181120D02*
X132901635Y-125086120D01*
X190051635Y-106036120D02*
X186536635Y-106036120D01*
X151951635Y-86986120D02*
X148436635Y-86986120D01*
X190051635Y-90081120D02*
X190051635Y-86986120D01*
X129386635Y-90081120D02*
X132901635Y-90081120D01*
X129386635Y-86986120D02*
X129386635Y-90081120D01*
X148436635Y-90081120D02*
X151951635Y-90081120D01*
X228151635Y-109131120D02*
X228151635Y-106036120D01*
X148436635Y-125086120D02*
X148436635Y-128181120D01*
X132901635Y-106036120D02*
X129386635Y-106036120D01*
X129386635Y-128181120D02*
X132901635Y-128181120D01*
X209101635Y-109131120D02*
X209101635Y-106036120D01*
X224636635Y-67936120D02*
X224636635Y-71031120D01*
X167486635Y-106036120D02*
X167486635Y-109131120D01*
X132901635Y-86986120D02*
X129386635Y-86986120D01*
X129386635Y-125086120D02*
X129386635Y-128181120D01*
X228151635Y-106036120D02*
X224636635Y-106036120D01*
X171001635Y-106036120D02*
X167486635Y-106036120D01*
X209101635Y-106036120D02*
X205586635Y-106036120D01*
X228151635Y-67936120D02*
X224636635Y-67936120D01*
X190051635Y-109131120D02*
X190051635Y-106036120D01*
X167486635Y-109131120D02*
X171001635Y-109131120D01*
X132901635Y-109131120D02*
X132901635Y-106036120D01*
X148436635Y-106036120D02*
X148436635Y-109131120D01*
X224636635Y-90081120D02*
X228151635Y-90081120D01*
X205586635Y-86986120D02*
X205586635Y-90081120D01*
X190051635Y-86986120D02*
X186536635Y-86986120D01*
X171001635Y-90081120D02*
X171001635Y-86986120D01*
X148436635Y-86986120D02*
X148436635Y-90081120D01*
X205586635Y-106036120D02*
X205586635Y-109131120D01*
X132901635Y-125086120D02*
X129386635Y-125086120D01*
X205586635Y-90081120D02*
X209101635Y-90081120D01*
X228151635Y-90081120D02*
X228151635Y-86986120D01*
X186536635Y-106036120D02*
X186536635Y-109131120D01*
X132901635Y-90081120D02*
X132901635Y-86986120D01*
X171001635Y-128181120D02*
X171001635Y-125086120D01*
X151951635Y-90081120D02*
X151951635Y-86986120D01*
X167486635Y-128181120D02*
X171001635Y-128181120D01*
X167486635Y-125086120D02*
X167486635Y-128181120D01*
X171001635Y-125086120D02*
X167486635Y-125086120D01*
X151951635Y-128181120D02*
X151951635Y-125086120D01*
X151951635Y-106036120D02*
X148436635Y-106036120D01*
X151951635Y-109131120D02*
X151951635Y-106036120D01*
X129386635Y-106036120D02*
X129386635Y-109131120D01*
X148436635Y-128181120D02*
X151951635Y-128181120D01*
X151951635Y-125086120D02*
X148436635Y-125086120D01*
X224636635Y-106036120D02*
X224636635Y-109131120D01*
X224636635Y-86986120D02*
X224636635Y-90081120D01*
X186536635Y-90081120D02*
X190051635Y-90081120D01*
X209101635Y-90081120D02*
X209101635Y-86986120D01*
X186536635Y-86986120D02*
X186536635Y-90081120D01*
M02*
