M48
; DRILL file {KiCad (5.99.0-2043-g129c16cf7)} date 07/21/20 11:43:28
; FORMAT={-:-/ absolute / metric / decimal}
; #@! TF.CreationDate,2020-07-21T11:43:28+02:00
; #@! TF.GenerationSoftware,Kicad,Pcbnew,(5.99.0-2043-g129c16cf7)
; #@! TF.FileFunction,Plated,1,2,PTH
FMAT,2
METRIC
T1C0.400
T2C0.800
%
G90
G05
T1
X123.546Y-40.615
X123.546Y-59.665
X123.546Y-78.715
X123.546Y-97.765
X123.546Y-116.815
X123.546Y-135.865
X123.927Y-50.013
X123.927Y-69.063
X123.927Y-88.113
X123.927Y-107.163
X123.927Y-126.213
X123.927Y-145.263
X127.61Y-46.584
X127.61Y-65.634
X127.61Y-84.684
X127.61Y-103.734
X127.61Y-122.784
X127.61Y-141.834
X129.185Y-47.802
X129.185Y-66.852
X129.185Y-85.902
X129.185Y-104.952
X129.185Y-124.002
X129.185Y-143.052
X130.277Y-42.729
X130.277Y-61.779
X130.277Y-80.829
X130.277Y-99.879
X130.277Y-118.929
X130.277Y-137.979
X133.452Y-43.536
X133.452Y-62.586
X133.452Y-81.636
X133.452Y-100.686
X133.452Y-119.736
X133.452Y-138.786
X133.833Y-52.172
X133.833Y-71.222
X133.833Y-90.272
X133.833Y-109.322
X133.833Y-128.372
X133.833Y-147.422
X135.357Y-46.965
X135.357Y-66.015
X135.357Y-85.065
X135.357Y-104.115
X135.357Y-123.165
X135.357Y-142.215
X142.596Y-40.615
X142.596Y-59.665
X142.596Y-78.715
X142.596Y-97.765
X142.596Y-116.815
X142.596Y-135.865
X142.977Y-50.013
X142.977Y-69.063
X142.977Y-88.113
X142.977Y-107.163
X142.977Y-126.213
X142.977Y-145.263
X146.66Y-46.584
X146.66Y-65.634
X146.66Y-84.684
X146.66Y-103.734
X146.66Y-122.784
X146.66Y-141.834
X148.235Y-47.802
X148.235Y-66.852
X148.235Y-85.902
X148.235Y-104.952
X148.235Y-124.002
X148.235Y-143.052
X149.327Y-42.729
X149.327Y-61.779
X149.327Y-80.829
X149.327Y-99.879
X149.327Y-118.929
X149.327Y-137.979
X152.502Y-43.536
X152.502Y-62.586
X152.502Y-81.636
X152.502Y-100.686
X152.502Y-119.736
X152.502Y-138.786
X152.883Y-52.172
X152.883Y-71.222
X152.883Y-90.272
X152.883Y-109.322
X152.883Y-128.372
X152.883Y-147.422
X154.407Y-46.965
X154.407Y-66.015
X154.407Y-85.065
X154.407Y-104.115
X154.407Y-123.165
X154.407Y-142.215
X161.646Y-40.615
X161.646Y-59.665
X161.646Y-78.715
X161.646Y-97.765
X161.646Y-116.815
X161.646Y-135.865
X162.027Y-50.013
X162.027Y-69.063
X162.027Y-88.113
X162.027Y-107.163
X162.027Y-126.213
X162.027Y-145.263
X165.71Y-46.584
X165.71Y-65.634
X165.71Y-84.684
X165.71Y-103.734
X165.71Y-122.784
X165.71Y-141.834
X167.285Y-47.802
X167.285Y-66.852
X167.285Y-85.902
X167.285Y-104.952
X167.285Y-124.002
X167.285Y-143.052
X168.377Y-42.729
X168.377Y-61.779
X168.377Y-80.829
X168.377Y-99.879
X168.377Y-118.929
X168.377Y-137.979
X171.552Y-43.536
X171.552Y-62.586
X171.552Y-81.636
X171.552Y-100.686
X171.552Y-119.736
X171.552Y-138.786
X171.933Y-52.172
X171.933Y-71.222
X171.933Y-90.272
X171.933Y-109.322
X171.933Y-128.372
X171.933Y-147.422
X173.457Y-46.965
X173.457Y-66.015
X173.457Y-85.065
X173.457Y-104.115
X173.457Y-123.165
X173.457Y-142.215
X180.696Y-40.615
X180.696Y-59.665
X180.696Y-78.715
X180.696Y-97.765
X180.696Y-116.815
X180.696Y-135.865
X181.077Y-50.013
X181.077Y-69.063
X181.077Y-88.113
X181.077Y-107.163
X181.077Y-126.213
X181.077Y-145.263
X184.76Y-46.584
X184.76Y-65.634
X184.76Y-84.684
X184.76Y-103.734
X184.76Y-122.784
X184.76Y-141.834
X186.335Y-47.802
X186.335Y-66.852
X186.335Y-85.902
X186.335Y-104.952
X186.335Y-124.002
X186.335Y-143.052
X187.427Y-42.729
X187.427Y-61.779
X187.427Y-80.829
X187.427Y-99.879
X187.427Y-118.929
X187.427Y-137.979
X190.602Y-43.536
X190.602Y-62.586
X190.602Y-81.636
X190.602Y-100.686
X190.602Y-119.736
X190.602Y-138.786
X190.983Y-52.172
X190.983Y-71.222
X190.983Y-90.272
X190.983Y-109.322
X190.983Y-128.372
X190.983Y-147.422
X192.507Y-46.965
X192.507Y-66.015
X192.507Y-85.065
X192.507Y-104.115
X192.507Y-123.165
X192.507Y-142.215
X199.746Y-40.615
X199.746Y-59.665
X199.746Y-78.715
X199.746Y-97.765
X199.746Y-116.815
X199.746Y-135.865
X200.127Y-50.013
X200.127Y-69.063
X200.127Y-88.113
X200.127Y-107.163
X200.127Y-126.213
X200.127Y-145.263
X203.81Y-46.584
X203.81Y-65.634
X203.81Y-84.684
X203.81Y-103.734
X203.81Y-122.784
X203.81Y-141.834
X205.385Y-47.802
X205.385Y-66.852
X205.385Y-85.902
X205.385Y-104.952
X205.385Y-124.002
X205.385Y-143.052
X206.477Y-42.729
X206.477Y-61.779
X206.477Y-80.829
X206.477Y-99.879
X206.477Y-118.929
X206.477Y-137.979
X209.652Y-43.536
X209.652Y-62.586
X209.652Y-81.636
X209.652Y-100.686
X209.652Y-119.736
X209.652Y-138.786
X210.033Y-52.172
X210.033Y-71.222
X210.033Y-90.272
X210.033Y-109.322
X210.033Y-128.372
X210.033Y-147.422
X211.557Y-46.965
X211.557Y-66.015
X211.557Y-85.065
X211.557Y-104.115
X211.557Y-123.165
X211.557Y-142.215
X218.796Y-40.615
X218.796Y-59.665
X218.796Y-78.715
X218.796Y-97.765
X218.796Y-116.815
X218.796Y-135.865
X219.177Y-50.013
X219.177Y-69.063
X219.177Y-88.113
X219.177Y-107.163
X219.177Y-126.213
X219.177Y-145.263
X222.86Y-46.584
X222.86Y-65.634
X222.86Y-84.684
X222.86Y-103.734
X222.86Y-122.784
X222.86Y-141.834
X224.435Y-47.802
X224.435Y-66.852
X224.435Y-85.902
X224.435Y-104.952
X224.435Y-124.002
X224.435Y-143.052
X225.527Y-42.729
X225.527Y-61.779
X225.527Y-80.829
X225.527Y-99.879
X225.527Y-118.929
X225.527Y-137.979
X228.702Y-43.536
X228.702Y-62.586
X228.702Y-81.636
X228.702Y-100.686
X228.702Y-119.736
X228.702Y-138.786
X229.083Y-52.172
X229.083Y-71.222
X229.083Y-90.272
X229.083Y-109.322
X229.083Y-128.372
X229.083Y-147.422
X230.607Y-46.965
X230.607Y-66.015
X230.607Y-85.065
X230.607Y-104.115
X230.607Y-123.165
X230.607Y-142.215
T2
X154.534Y-129.137
X155.169Y-113.897
X161.646Y-132.947
X162.662Y-143.615
X142.596Y-113.897
X143.612Y-124.565
X173.584Y-148.187
X155.677Y-123.93
X155.677Y-126.089
X156.058Y-118.85
X157.836Y-113.897
X218.796Y-37.697
X219.812Y-48.365
X230.734Y-52.937
X231.369Y-37.697
X231.877Y-47.73
X231.877Y-49.889
X232.258Y-42.65
X174.727Y-142.98
X174.727Y-145.139
X175.108Y-137.9
X176.886Y-132.947
X211.684Y-91.037
X180.696Y-94.847
X161.646Y-94.847
X174.219Y-132.947
X176.886Y-94.847
X142.596Y-37.697
X143.612Y-48.365
X155.169Y-37.697
X155.677Y-47.73
X156.058Y-42.65
X157.836Y-37.697
X199.746Y-75.797
X200.762Y-86.465
X181.712Y-105.515
X192.634Y-110.087
X193.269Y-94.847
X193.777Y-104.88
X193.777Y-107.039
X194.158Y-99.8
X162.662Y-105.515
X173.584Y-110.087
X174.219Y-94.847
X174.727Y-104.88
X174.727Y-107.039
X175.108Y-99.8
X234.036Y-37.697
X154.534Y-52.937
X155.677Y-49.889
X180.696Y-113.897
X181.712Y-124.565
X192.634Y-129.137
X193.269Y-113.897
X193.777Y-123.93
X193.777Y-126.089
X194.158Y-118.85
X195.936Y-113.897
X161.646Y-75.797
X162.662Y-86.465
X173.584Y-91.037
X174.219Y-75.797
X174.727Y-85.83
X174.727Y-87.989
X175.108Y-80.75
X176.886Y-75.797
X199.746Y-56.747
X200.762Y-67.415
X211.684Y-71.987
X212.319Y-56.747
X212.827Y-66.78
X212.827Y-68.939
X213.208Y-61.7
X214.986Y-56.747
X195.936Y-94.847
X173.584Y-71.987
X174.727Y-66.78
X174.727Y-68.939
X175.108Y-61.7
X212.827Y-87.989
X219.812Y-67.415
X231.369Y-56.747
X161.646Y-56.747
X212.827Y-85.83
X214.986Y-75.797
X218.796Y-56.747
X230.734Y-71.987
X231.877Y-66.78
X231.877Y-68.939
X232.258Y-61.7
X154.534Y-71.987
X219.812Y-143.615
X230.734Y-148.187
X212.319Y-75.797
X213.208Y-80.75
X180.696Y-37.697
X193.777Y-47.73
X193.777Y-49.889
X194.158Y-42.65
X195.936Y-37.697
X218.796Y-132.947
X143.612Y-67.415
X176.886Y-56.747
X181.712Y-48.365
X192.634Y-52.937
X156.058Y-61.7
X174.219Y-56.747
X193.269Y-37.697
X142.596Y-56.747
X155.169Y-56.747
X157.836Y-56.747
X162.662Y-67.415
X234.036Y-56.747
X155.677Y-66.78
X155.677Y-68.939
X234.036Y-132.947
X142.596Y-132.947
X143.612Y-143.615
X155.169Y-132.947
X157.836Y-132.947
X231.369Y-132.947
X231.877Y-142.98
X231.877Y-145.139
X232.258Y-137.9
X156.058Y-137.9
X143.612Y-105.515
X154.534Y-148.187
X155.677Y-145.139
X142.596Y-94.847
X155.677Y-142.98
X180.696Y-75.797
X181.712Y-86.465
X192.634Y-91.037
X193.269Y-75.797
X193.777Y-85.83
X193.777Y-87.989
X194.158Y-80.75
X195.936Y-75.797
X218.796Y-113.897
X219.812Y-124.565
X230.734Y-129.137
X231.369Y-113.897
X231.877Y-123.93
X231.877Y-126.089
X232.258Y-118.85
X234.036Y-113.897
X154.534Y-110.087
X155.169Y-94.847
X155.677Y-104.88
X155.677Y-107.039
X156.058Y-99.8
X157.836Y-94.847
X199.746Y-37.697
X200.762Y-48.365
X211.684Y-52.937
X212.319Y-37.697
X212.827Y-47.73
X212.827Y-49.889
X213.208Y-42.65
X214.986Y-37.697
X123.546Y-132.947
X124.562Y-143.615
X135.484Y-148.187
X136.119Y-132.947
X136.627Y-142.98
X136.627Y-145.139
X137.008Y-137.9
X138.786Y-132.947
X180.696Y-56.747
X181.712Y-67.415
X218.796Y-75.797
X219.812Y-86.465
X230.734Y-91.037
X161.646Y-113.897
X162.662Y-124.565
X173.584Y-129.137
X174.219Y-113.897
X174.727Y-123.93
X174.727Y-126.089
X175.108Y-118.85
X176.886Y-113.897
X135.484Y-52.937
X193.269Y-56.747
X231.369Y-75.797
X231.877Y-85.83
X231.877Y-87.989
X232.258Y-80.75
X234.036Y-75.797
X123.546Y-37.697
X195.936Y-56.747
X124.562Y-48.365
X136.627Y-68.939
X199.746Y-94.847
X200.762Y-105.515
X211.684Y-110.087
X212.319Y-94.847
X212.827Y-104.88
X212.827Y-107.039
X213.208Y-99.8
X214.986Y-94.847
X199.746Y-113.897
X200.762Y-124.565
X211.684Y-129.137
X212.319Y-113.897
X212.827Y-123.93
X212.827Y-126.089
X213.208Y-118.85
X214.986Y-113.897
X123.546Y-113.897
X124.562Y-124.565
X135.484Y-129.137
X136.119Y-113.897
X136.627Y-123.93
X136.627Y-126.089
X137.008Y-118.85
X138.786Y-113.897
X180.696Y-132.947
X181.712Y-143.615
X193.269Y-132.947
X194.158Y-137.9
X195.936Y-132.947
X218.796Y-94.847
X136.119Y-37.697
X136.627Y-47.73
X136.627Y-49.889
X137.008Y-42.65
X138.786Y-37.697
X234.036Y-94.847
X123.546Y-56.747
X124.562Y-67.415
X135.484Y-71.987
X136.119Y-56.747
X136.627Y-66.78
X137.008Y-61.7
X138.786Y-56.747
X161.646Y-37.697
X162.662Y-48.365
X173.584Y-52.937
X174.219Y-37.697
X174.727Y-47.73
X174.727Y-49.889
X175.108Y-42.65
X176.886Y-37.697
X199.746Y-132.947
X200.762Y-143.615
X211.684Y-148.187
X212.319Y-132.947
X212.827Y-142.98
X212.827Y-145.139
X213.208Y-137.9
X214.986Y-132.947
X142.596Y-75.797
X143.612Y-86.465
X154.534Y-91.037
X219.812Y-105.515
X230.734Y-110.087
X231.369Y-94.847
X231.877Y-104.88
X231.877Y-107.039
X232.258Y-99.8
X194.158Y-61.7
X192.634Y-148.187
X193.777Y-142.98
X193.777Y-145.139
X155.169Y-75.797
X155.677Y-85.83
X155.677Y-87.989
X156.058Y-80.75
X157.836Y-75.797
X123.546Y-94.847
X124.562Y-105.515
X135.484Y-110.087
X135.484Y-91.037
X136.627Y-85.83
X136.627Y-87.989
X138.786Y-94.847
X137.008Y-80.75
X136.119Y-94.847
X124.562Y-86.465
X137.008Y-99.8
X136.119Y-75.797
X136.627Y-104.88
X123.546Y-75.797
X136.627Y-107.039
X138.786Y-75.797
X192.634Y-71.987
X193.777Y-66.78
X193.777Y-68.939
T0
M30
